<?xml version="1.0" encoding="UTF-8"?>
<svg width="152px" height="140px" viewBox="0 0 152 140" version="1.1" xmlns="http://www.w3.org/2000/svg" xmlns:xlink="http://www.w3.org/1999/xlink">
    <!-- Generator: Sketch 42 (36781) - http://www.bohemiancoding.com/sketch -->
    <title>Map/Africa</title>
    <desc>Created with Sketch.</desc>
    <defs>
        <path d="M150.077,48.2149881 C146.014,47.7999881 146.241,50.4669881 142.52,50.2859881 L133.952,50.2859881 C133.496,45.5689881 128.765,43.9369881 125.377,41.3339881 C126.221,36.8069881 119.737,37.6189881 121.588,32.3649881 C119.977,30.7999881 117.015,30.1759881 115.901,28.2439881 C116.743,26.3059881 114.827,23.3189881 115.678,22.8099881 C115.436,22.3209881 115.145,21.7729881 114.819,21.1869881 C114.55,21.3599881 114.157,21.4699881 114.023,21.3679881 C113.681,21.1159881 114.135,20.7879881 114.529,20.6699881 C112.805,17.6199881 110.37,13.8079881 109.427,12.3449881 C109.358,12.3579881 109.299,12.3759881 109.224,12.3819881 C102.316,10.5509881 93.705,9.90198807 84.523,9.64798807 C81.784,10.1719881 82.258,13.0439881 79.793,13.7969881 C75.426,10.5199881 66.78,10.3409881 62.732,6.89798807 C63.458,4.51098807 61.645,3.97498807 60.822,2.75298807 C63.036,2.56298807 62.989,0.907988069 61.741,0.0019880685 C56,-0.0460119315 51.431,0.778988069 47.489,2.06298807 C39.789,1.73598807 33.107,2.15998807 29.427,4.83698807 C28.619,3.38698807 26.682,2.71398807 23.755,2.75298807 C22.967,5.18098807 19.556,5.66898807 17.125,6.89798807 C14.543,10.1309881 15.511,14.3519881 13.346,17.2199881 C11.921,19.0349881 6.823,20.8999881 4.761,22.7389881 C4.608,26.7649881 2.421,29.3099881 0,31.6969881 L0,49.5959881 C3.284,52.2719881 6.154,55.2629881 7.628,59.2259881 C12,61.1069881 14.937,64.0439881 20.909,64.7349881 C24.74,64.0559881 29.278,63.9069881 34.21,64.0559881 C36.176,62.9369881 36.044,60.3409881 39.947,60.6079881 C41.639,60.7209881 40.487,62.9369881 41.865,63.3529881 C46.238,62.9139881 47.914,64.4579881 51.324,64.7349881 C52.948,64.1319881 53.74,62.8139881 57.027,63.3529881 C57.981,68.6739881 55.004,71.1119881 55.107,75.7729881 C57.817,79.3039881 62.451,81.9769881 60.822,86.7859881 C63.331,89.1009881 63.503,93.0999881 64.622,96.4249881 C62.273,99.5559881 62.815,104.723988 60.822,108.125988 C64.891,110.929988 67.831,114.515988 69.407,119.156988 L69.407,125.357988 C73.613,128.934988 73.508,135.650988 77.927,139.133988 C87.061,138.650988 91.635,134.877988 99.779,133.627988 C101.223,129.839988 104.108,127.136988 108.297,125.357988 C107.821,122.685988 110.009,121.988988 109.224,119.156988 C110.931,118.530988 111.666,117.234988 114.949,117.765988 C115.053,109.822988 118.93,104.621988 126.373,101.930988 C127.758,96.3229881 127.758,88.2519881 126.373,82.6559881 C128.373,79.9859881 129.999,77.0559881 131.071,73.6979881 C133.346,72.5799881 135.26,71.2269881 137.742,70.2469881 C142.261,65.4929881 146.36,60.4159881 151.057,55.8049881 C151.78,53.2209881 153.04,49.7049881 150.077,48.2149881 M145.3475,92.2979881 C143.6805,94.3139881 142.2225,96.4569881 141.5345,99.1909881 C137.4135,99.8769881 135.3225,101.973988 133.0155,104.012988 C132.2505,106.390988 134.3905,106.672988 133.9515,108.826988 C133.0955,110.267988 132.4405,111.879988 131.0715,112.963988 C133.1435,116.071988 130.4175,118.819988 133.9515,121.230988 C137.0295,121.357988 137.9615,120.005988 141.5345,120.533988 C143.5985,117.449988 142.8015,116.086988 145.3475,112.963988 L145.3475,109.515988 C145.5745,108.742988 146.3895,108.441988 147.2395,108.125988 C145.5115,105.110988 148.9845,102.253988 149.1855,97.1139881 C145.6225,97.1509881 149.2715,91.9929881 145.3475,92.2979881" id="path-1"></path>
    </defs>
    <g id="Symbols" stroke="none" stroke-width="1" fill="none" fill-rule="evenodd">
        <g id="Map/Africa">
            <mask id="mask-2" fill="white">
                <use xlink:href="#path-1"></use>
            </mask>
            <use id="Africa" fill="IconColor" xlink:href="#path-1"></use>
            <g id="Mixin/Fill/Black" mask="url(#mask-2)" fill="IconColor">
                <rect id="Rectangle" x="0" y="0" width="152" height="139"></rect>
            </g>
            <g id="Mixin/State/Hover" mask="url(#mask-2)" fill="IconColor" fill-opacity="0.300000012">
                <rect id="Box" x="0" y="0" width="152" height="139"></rect>
            </g>
        </g>
    </g>
</svg>