<?xml version="1.0" encoding="UTF-8"?>
<svg width="320px" height="200px" viewBox="0 0 320 200" version="1.1" xmlns="http://www.w3.org/2000/svg" xmlns:xlink="http://www.w3.org/1999/xlink">
    <!-- Generator: Sketch 42 (36781) - http://www.bohemiancoding.com/sketch -->
    <title>Map/Asia</title>
    <desc>Created with Sketch.</desc>
    <defs>
        <path d="M58.126,2.67716452 C58.041,-1.67583548 49.3,-0.191835483 49.606,3.36316452 C52.846,5.50716452 54.599,2.40616452 58.126,2.67716452 M111.3751,6.79726452 C118.8361,5.88026452 126.6711,9.19626452 128.4391,4.72026452 C126.2071,2.06226452 117.5171,0.940264517 112.3271,2.67726452 C110.1861,2.76026452 111.8661,5.57426452 111.3751,6.79726452 M212.9659,19.8978645 C215.2499,18.7878645 216.3709,16.8508645 218.6949,15.7598645 C215.0819,15.4238645 214.3149,12.5898645 211.0679,13.0088645 C210.6559,13.0478645 210.1859,14.6268645 209.1739,14.3758645 L203.5039,14.3758645 C202.2349,19.3948645 210.2759,17.6968645 212.9659,19.8978645 M247.1417,98.4075645 C248.9737,98.4935645 247.8267,100.676565 250.0107,100.468565 C252.1127,98.7755645 251.7867,95.3365645 255.6977,94.9705645 C250.7267,94.4555645 247.6087,92.5725645 242.4127,92.2105645 C243.1057,95.4835645 241.3467,96.9395645 241.4517,99.8045645 C244.0627,101.648565 243.8167,98.0185645 247.1417,98.4075645 M225.3233,119.765065 C225.1573,122.191065 227.5623,122.722065 229.1243,123.873065 C229.7823,121.379065 232.0853,120.068065 234.8363,119.056065 C236.1033,119.047065 236.8853,119.396065 237.6583,119.765065 C240.6593,117.114065 246.9563,116.856065 250.0103,114.244065 C249.8473,109.334065 247.9063,105.646065 248.1343,100.468065 L244.2963,100.468065 C245.4653,103.697065 243.8063,105.271065 245.2793,108.729065 C244.5253,108.894065 244.1863,109.313065 244.2963,110.136065 C240.8863,111.187065 239.2083,111.990065 235.7513,114.244065 C232.4113,115.510065 226.3753,114.772065 226.2573,118.389065 C225.8283,120.287065 231.4303,117.856065 231.0293,119.765065 L225.3233,119.765065 Z M205.3477,137.679065 C206.8937,138.640065 207.8037,140.026065 208.2007,141.804065 C212.1557,141.643065 211.8317,138.430065 212.0397,135.612065 C209.6617,134.078065 206.3687,136.095065 205.3477,137.679065 M209.1739,149.376365 C210.6559,151.050365 212.5609,152.437365 214.8719,153.506365 C216.0649,151.364365 219.2909,150.751365 218.6949,147.306365 C216.1099,144.813365 209.0409,145.946365 209.1739,149.376365 M216.7891,161.777765 C218.7581,163.257765 219.4731,161.423765 222.4631,161.777765 C222.1581,163.383765 220.4351,164.751765 223.4331,165.210765 C224.7771,163.195765 227.4281,162.144765 231.9661,162.460765 C232.8601,159.291765 228.9351,159.611765 227.2231,158.334765 C227.4601,156.075765 226.1031,155.004765 223.4331,154.884765 C222.0981,155.771765 222.4911,157.873765 222.4631,159.706765 C219.2911,158.529765 218.3541,160.119765 216.7891,161.777765 M122.7237,163.834365 C124.0827,167.914365 119.1117,168.752365 122.7237,170.717365 C125.7237,171.056365 125.2527,168.870365 127.4927,168.654365 C126.7057,166.474365 124.7327,165.141365 122.7237,163.834365 M185.4249,182.446665 C186.3529,185.215665 190.4849,185.650665 190.1759,189.322665 C196.3389,188.286665 195.3939,192.411665 201.5589,191.379665 C201.2869,189.798665 204.2889,190.619665 204.4279,189.322665 C203.7009,189.162665 202.5479,189.298665 202.5409,188.614665 C205.6559,187.669665 204.0939,183.366665 207.3139,182.446665 C205.1269,180.206665 208.0989,177.862665 206.3309,176.225665 C207.9869,175.611665 209.6059,174.963665 209.1739,172.807665 C206.8799,171.492665 205.0259,169.844665 200.6229,170.032665 C199.7399,177.220665 187.1129,175.837665 185.4249,182.446665 M167.3594,177.601965 C165.9284,175.998965 162.9244,174.890965 163.6014,172.807965 C161.0044,173.285965 161.6754,171.421965 159.7894,171.421965 C159.9094,174.454965 157.4634,171.339965 155.0204,172.098965 C155.0204,180.143965 168.3704,178.507965 166.4544,187.935965 C171.1304,188.313965 172.4394,192.847965 176.8584,191.378965 C179.0434,188.746965 174.9004,185.736965 175.0164,182.446965 C172.1094,181.031965 168.6934,179.066965 167.3594,177.601965 M220.6045,183.122465 C220.4045,180.062465 214.6025,181.031465 212.9655,178.989465 C208.0985,181.826465 204.7175,189.487465 212.0405,192.062465 C211.8325,190.080465 212.2595,188.561465 213.9275,187.935465 C216.0155,189.263465 216.1475,191.443465 219.6255,190.023465 C219.1395,187.143465 215.9585,186.216465 215.8355,183.122465 C217.0865,184.016465 219.2915,184.016465 220.6045,183.122465 M201.5586,198.966165 C202.0866,196.526165 198.2446,197.265165 198.7316,194.827165 C190.9876,194.974165 185.4706,193.397165 179.7206,192.063165 C178.8866,193.289165 177.0646,193.833165 177.8516,196.199165 C186.9056,196.278165 191.2176,199.826165 201.5586,198.966165 M197.792,108.728865 C199.125,107.420865 199.895,105.686865 203.504,105.996865 C203.543,107.060865 203.043,108.610865 204.428,108.728865 C202.996,110.800865 200.269,108.161865 197.792,108.728865 M155.021,21.9458645 C154.529,21.5968645 155.713,21.0568645 155.988,21.2478645 C156.467,21.6318645 155.287,22.1288645 155.021,21.9458645 M152.174,23.3298645 C151.692,22.9748645 152.868,22.4588645 153.118,22.6528645 C153.609,22.9768645 152.459,23.5248645 152.174,23.3298645 M149.29,24.0378645 C148.828,23.6858645 150.019,23.1218645 150.302,23.3298645 C150.809,23.6998645 149.583,24.2168645 149.29,24.0378645 M90.435,36.4088645 C88.63,36.1268645 86.358,36.1858645 86.642,34.3518645 C83.801,34.2148645 87.535,31.4858645 86.642,34.3518645 C87.32,35.4518645 91.274,34.1938645 90.435,36.4088645 M20.157,47.4268645 C19.661,47.0768645 20.831,46.5568645 21.109,46.7528645 C21.581,47.1078645 20.413,47.6238645 20.157,47.4268645 M319.35,43.9998645 C316.82,43.1618645 313.132,39.4748645 310.821,42.6148645 C311.113,41.0198645 310.645,39.9768645 309.88,39.1768645 C304.702,37.8288645 301.957,34.7658645 293.725,35.7278645 C292.629,34.4468645 290.055,34.2618645 288.972,32.9688645 C282.756,33.5688645 281.431,30.6138645 274.703,31.5828645 C273.389,33.6078645 277.319,35.1108645 274.703,35.7278645 C271.953,35.4268645 272.455,32.7518645 269.973,32.2878645 C267.179,34.4168645 262.049,32.4908645 256.597,33.6698645 C253.206,32.0578645 253.456,27.7188645 246.222,28.8518645 C244.846,29.0058645 245.9,30.9028645 244.296,30.9028645 C240.336,29.6568645 236.473,28.3048645 232.919,26.8008645 C232.491,27.4018645 232.085,27.9978645 231.029,28.1588645 C232.216,25.4538645 228.756,26.1038645 226.257,26.1038645 C228.599,24.4668645 225.23,24.5428645 224.395,23.3298645 C219.814,24.5428645 220.149,22.9338645 215.836,22.6528645 C215.504,23.5728645 213.426,23.2198645 212.04,23.3298645 C211.085,24.6168645 214.872,25.6408645 212.04,26.1038645 C203.871,25.1648645 193.506,27.3258645 186.353,26.1038645 C183.961,25.6648645 183.04,23.5568645 180.692,24.0378645 C176.291,24.7658645 173.363,23.3188645 170.212,22.6528645 C169.103,22.3788645 167.6,22.8088645 166.454,22.6528645 C164.07,22.3268645 162.269,20.4598645 156.96,21.2478645 C157.32,19.4818645 159.757,19.1738645 159.789,17.1348645 C158.445,15.1108645 155.399,14.3548645 154.098,12.2958645 C151.229,13.2208645 146.825,13.0238645 142.69,13.0088645 C140.315,12.4288645 140.7,9.88486452 136.99,10.2448645 C134.762,10.9378645 133.958,12.6188645 134.142,15.0688645 C129.431,13.9558645 131.117,17.4808645 127.492,17.1348645 C125.67,16.8508645 126.728,14.4558645 123.692,15.0688645 C121.234,16.9588645 117.792,18.1578645 112.327,17.8078645 C110.633,18.6958645 109.806,20.1458645 106.62,19.8978645 C105.282,20.7698645 106.184,23.2558645 103.723,23.3298645 C101.77,23.7638645 97.156,22.2118645 98.091,24.7058645 C98.091,27.2348645 103.614,25.7168645 102.811,28.8518645 C99.314,28.1078645 98.377,25.6288645 93.287,26.1038645 C93.287,27.9018645 93.819,30.1458645 91.384,30.2278645 C90.287,29.4068645 90.287,27.7688645 90.435,26.1038645 C86.733,25.4988645 88.907,29.0958645 84.757,28.1588645 C83.27,26.9278645 83.456,24.4808645 79.057,25.3908645 C76.376,28.2878645 72.745,30.4808645 69.527,32.9688645 C63.373,33.2988645 63.84,31.6838645 57.206,31.5828645 C55.669,34.9848645 62.12,32.6318645 60.994,35.7278645 C57.03,35.0598645 52.776,36.0768645 46.742,35.7278645 C42.467,36.9868645 40.13,39.6528645 35.353,40.5408645 L35.353,36.4088645 C32.994,36.5218645 30.777,36.5328645 29.664,35.7278645 C29.896,39.5828645 29.704,43.0868645 23.962,42.6148645 C24.279,45.1588645 20.484,44.6758645 18.264,45.3738645 C15.91,46.2928645 19.95,47.4378645 17.296,48.1228645 C11.735,48.9348645 11.413,43.1378645 11.62,41.9418645 C16.027,41.9608645 20.882,41.6368645 23.962,42.6148645 C26.497,38.2988645 18.624,36.0708645 12.547,35.7278645 C11.079,34.0708645 8.557,33.1838645 5.096,32.9778645 L-5.68434189e-14,44.1488645 C-5.68434189e-14,44.1488645 1.144,51.7398645 3.881,53.7538645 C6.619,55.7678645 7.302,56.6968645 3.881,58.7108645 C0.459,60.7248645 -0.682,68.6258645 4.339,68.6258645 C9.356,68.6258645 11.641,71.8808645 11.182,75.2888645 C15.06,73.8938645 18.939,76.0618645 20.082,77.6128645 C23.275,79.0048645 29.664,79.4718645 29.664,79.4718645 C29.664,79.4718645 29.891,82.7228645 26.011,87.2178645 C12.437,94.2668645 3.881,97.0558645 3.881,97.0558645 L2.557,114.335865 C2.155,114.250865 1.77,114.147865 1.398,114.028865 C4.967,115.183865 10.275,114.643865 12.547,113.553865 C15.393,114.554865 10.077,117.131865 14.433,117.008865 C18.353,117.516865 14.642,112.550865 19.231,113.553865 L19.231,117.675865 C16.87,118.702865 17.857,122.144865 15.868,123.414865 C17.524,126.453865 21.471,133.698865 22.021,134.822865 C22.025,134.825865 22.025,134.825865 22.025,134.826865 C23.994,136.339865 25.786,139.207865 24.888,140.420865 C28.876,143.305865 31.513,147.090865 35.353,150.071865 C37.621,152.936865 37.26,157.239865 42.025,159.706865 C48.643,158.105865 53.291,155.046865 60.994,154.177865 C62.326,153.776865 61.162,151.539865 62.873,151.448865 C66.999,150.963865 68.726,148.774865 72.394,147.980865 C71.717,144.977865 75.179,144.921865 75.258,142.490865 C73.618,140.008865 68.726,139.859865 69.527,135.611865 C65.937,135.267865 63.488,135.802865 61.947,136.955865 C61.162,134.352865 57.663,133.657865 58.126,130.079865 C55.061,130.259865 55.383,127.962865 53.415,127.328865 C54.824,126.961865 55.797,126.331865 57.206,125.946865 C62.455,128.323865 60.878,135.665865 70.514,134.908865 C70.895,136.235865 73.204,136.171865 72.394,138.354865 C76.989,138.697865 77.666,136.222865 81.912,136.297865 C82.879,136.730865 82.897,137.857865 84.757,137.678865 C91.363,136.961865 93.008,139.947865 97.047,141.096865 C95.478,140.857865 95.276,141.642865 95.211,142.490865 C96.19,143.805865 99.557,143.419865 100.922,144.554865 C100.418,146.721865 102.618,146.978865 101.808,149.375865 C104.699,151.668865 105.926,155.134865 107.526,158.333865 C109.534,159.649865 111.49,160.969865 112.327,163.139865 L112.327,167.295865 C113.509,168.249865 116.431,167.957865 118.938,167.971865 C120.201,163.574865 123.6,160.786865 122.724,154.884865 L126.539,154.884865 L126.539,152.113865 C130.126,153.139865 128.376,150.249865 131.273,150.760865 C131.004,147.594865 134.747,147.288865 136.036,145.241865 C138.346,143.927865 141.038,142.907865 144.575,142.490865 C146.732,144.380865 146.742,147.819865 150.302,148.709865 C150.634,150.329865 148.549,150.170865 149.29,152.113865 C150.356,154.364865 156.847,152.632865 158.847,154.177865 C157.567,155.639865 159.321,156.228865 157.866,158.333865 C160.35,159.048865 162.101,160.306865 162.615,162.459865 C162.269,163.762865 159.909,163.705865 160.732,165.914865 C161.021,167.992865 163.662,168.361865 162.615,171.421865 C167.189,174.289865 171.502,177.374865 176.858,179.688865 C177.112,175.138865 172.389,174.229865 172.132,170.032865 C169.485,168.712865 166.963,167.344865 165.47,165.209865 C165.906,162.979865 164.22,159.271865 167.359,159.015865 C169.441,160.969865 170.937,163.347865 175.017,163.833865 C175.724,164.467865 176.014,165.381865 175.908,166.581865 C185.139,165.703865 187.385,159.742865 186.353,151.448865 C185.139,150.750865 182.861,150.760865 181.618,150.071865 C182.828,147.034865 177.064,147.243865 179.721,145.241865 C182.502,143.318865 182.195,147.505865 186.353,146.621865 C187.04,143.670865 191.867,143.700865 196.813,143.856865 C199.827,140.538865 203.871,137.983865 205.348,133.520865 C206.894,133.721865 206.978,132.879865 208.2,132.859865 C209.795,130.061865 207.987,124.896865 211.067,123.225865 C209.041,122.590865 208.2,121.181865 208.2,119.055865 C206.6,118.195865 204.506,117.642865 204.428,115.625865 C204.008,113.972865 206.177,114.119865 205.348,112.187865 C207.313,112.399865 208.345,112.049865 208.2,110.776865 C210.925,109.904865 203.919,106.665865 210.124,106.665865 C211.202,108.863865 214.484,109.439865 215.836,111.493865 C214.905,115.129865 217.621,116.170865 220.604,117.008865 C226.294,114.007865 220.404,106.436865 223.433,101.174865 C225.427,99.8678645 228.289,99.1878645 231.029,98.4078645 C233.224,95.1868645 235.165,91.7888645 238.584,89.4548645 C239.899,83.9058645 236.428,78.1878645 238.584,74.2998645 C237.291,78.2328645 240.776,78.6978645 241.451,81.1878645 C241.639,85.4568645 241.924,89.5818645 246.222,90.8198645 C247.99,89.5988645 245.446,89.0758645 246.222,86.7088645 C248.812,86.6258645 248.134,87.8548645 250.011,86.7088645 C250.177,84.5198645 247.488,84.3698645 248.134,81.8628645 C244.701,81.3938645 243.807,79.0538645 242.413,77.0528645 C242.063,74.5748645 242.754,71.2938645 239.593,70.8498645 C237.607,71.0238645 239.335,73.9128645 236.752,73.6198645 C235.144,68.5488645 228.69,76.7848645 226.257,71.5548645 C226.913,69.9468645 228.666,69.1838645 230.086,68.1148645 C231.174,65.9178645 230.794,62.6818645 233.89,61.8848645 C236.067,63.5868645 235.62,60.8748645 238.584,61.2058645 C243.064,61.6628645 247.203,63.0118645 252.878,62.5968645 C252.549,63.7718645 253.61,63.9088645 254.746,63.9628645 C255.996,63.0118645 258.898,63.3068645 261.415,63.2648645 C261.896,61.0948645 259.727,60.8508645 260.472,58.4608645 C262.399,58.2628645 262.317,56.6038645 264.266,56.3908645 C266.215,56.6038645 266.134,58.2628645 268.069,58.4608645 C267.626,56.9468645 270.893,54.6608645 271.833,56.3908645 C268.799,60.8118645 264.341,64.2448645 263.302,70.1588645 C263.923,72.0208645 266.017,72.7908645 267.122,74.2998645 C267.539,76.9368645 268.238,79.4588645 270.893,80.4908645 C273.266,78.7568645 274.663,76.3328645 277.554,74.9678645 C276.684,71.5628645 280.598,72.0658645 278.551,69.4788645 C278.793,68.0838645 281.061,68.1178645 281.365,66.7258645 C279.967,65.9048645 277.108,66.1088645 277.554,63.9628645 C278.487,57.9198645 284.72,59.2228645 291.815,59.8268645 C293.189,58.7678645 293.055,56.6198645 294.666,55.7068645 C300.203,55.4088645 304.375,53.5178645 307.927,53.6278645 C307.927,50.6818645 303.227,51.1098645 303.227,48.1228645 C305.454,47.8998645 304.993,45.7488645 307.927,46.0758645 C312.899,46.1398645 312.227,50.3148645 318.381,49.4888645 C319.626,48.2658645 317.532,46.0308645 319.35,43.9998645 M54.3936,32.2874645 C53.0026,29.1214645 48.5456,28.2384645 49.6066,23.3294645 C56.3206,22.9104645 58.8206,19.4514645 63.8396,17.8084645 C69.8436,18.2544645 72.8766,16.5804645 73.3956,13.0094645 L68.6086,13.0094645 C68.3776,13.5494645 68.5926,14.3754645 67.6326,14.3754645 C60.5176,14.9444645 55.2046,16.8504645 49.6066,18.5124645 C50.0806,22.0494645 45.0126,21.6324645 45.7946,25.3914645 C44.6216,26.8584645 42.2516,27.4124645 42.0256,29.5204645 C45.0416,30.9734645 48.0096,32.5194645 51.4756,33.6704645 C51.8966,32.7994645 52.7346,32.2464645 54.3936,32.2874645 M186.3526,151.448665 C189.0316,151.050665 189.0316,148.761665 190.1756,147.305665 C189.3246,146.771665 188.0266,146.574665 186.3526,146.621665 C184.5966,149.306665 185.1226,147.187665 186.3526,151.448665" id="path-1"></path>
    </defs>
    <g id="Symbols" stroke="none" stroke-width="1" fill="none" fill-rule="evenodd">
        <g id="Map/Asia">
            <mask id="mask-2" fill="white">
                <use xlink:href="#path-1"></use>
            </mask>
            <use id="Asia" fill="IconColor" xlink:href="#path-1"></use>
            <g id="Mixin/Fill/Black" mask="url(#mask-2)" fill="IconColor">
                <rect id="Rectangle" x="0" y="0" width="319" height="199"></rect>
            </g>
            <g id="Mixin/State/Hover" mask="url(#mask-2)" fill="IconColor" fill-opacity="0.300000012">
                <rect id="Box" x="0" y="0" width="326" height="199"></rect>
            </g>
        </g>
    </g>
</svg>