<?xml version="1.0" encoding="UTF-8"?>
<svg width="143px" height="96px" viewBox="0 0 143 96" version="1.1" xmlns="http://www.w3.org/2000/svg" xmlns:xlink="http://www.w3.org/1999/xlink">
    <!-- Generator: Sketch 42 (36781) - http://www.bohemiancoding.com/sketch -->
    <title>Map/Australia NZ</title>
    <desc>Created with Sketch.</desc>
    <defs>
        <path d="M51.2751,0.805237341 C48.1851,-0.596762659 40.6021,-0.327762659 40.8531,2.89023734 C44.1041,4.35723734 51.0401,3.67123734 51.2751,0.805237341 M61.7478,3.56603734 L55.1028,3.56603734 C54.2518,4.57103734 53.6808,5.75903734 51.2748,5.63303734 C48.3348,6.15403734 49.5018,3.71703734 46.5758,4.24503734 C46.8518,6.05003734 42.8318,4.80303734 43.7138,6.98903734 C43.8338,8.54503734 46.0778,6.12903734 48.4078,6.98903734 C52.6498,9.47003734 58.1968,10.9560373 61.7478,13.8880373 L61.7478,18.0250373 C66.8278,15.7990373 68.3518,19.4330373 72.1938,20.0890373 C75.5308,19.9910373 74.4788,16.6910373 78.8388,17.3340373 C81.0648,18.2780373 83.5858,22.5780373 87.3778,20.0890373 C85.3998,19.4800373 84.4868,18.0510373 84.5268,15.9790373 C82.0428,14.3230373 78.5558,13.4330373 76.9458,11.1410373 L76.9458,9.05803734 C69.6218,8.87203734 67.6288,4.81803734 61.7478,3.56603734 M81.657,46.2701373 C82.043,43.0201373 80,41.5281373 80.717,37.9931373 C78.858,37.5351373 78.555,35.9191373 76.946,35.2491373 C76.609,29.9741373 70.144,29.1461373 71.239,22.8461373 C69.469,22.9971373 69.161,22.0811373 67.453,22.1521373 C65.006,24.9851373 68.474,32.1051373 64.57,33.8661373 C60.837,34.7691373 62.65,31.5931373 58.871,32.4801373 C58.724,30.5541373 54.386,31.6441373 55.103,29.0491373 C54.61,26.8651373 59.785,28.7911373 58.871,26.3151373 C55.572,23.6381373 45.844,25.6161373 40.853,24.2331373 C39.199,24.6501373 40.901,27.4921373 38.948,27.6631373 C35.407,28.1061373 32.268,28.7721373 29.449,29.7481373 C28.258,31.8291373 29.115,35.4791373 25.66,35.9481373 C23.4,34.3151373 20.968,36.0451373 18.024,35.9481373 C16.176,36.4211373 18.253,39.7921373 16.155,40.0611373 C14.195,39.6801373 14.306,37.9931373 12.365,39.3851373 C9.998,41.1101373 11.111,45.3551373 7.616,46.2701373 C5.484,47.2561373 1.262,46.7241373 0,48.3331373 C1.006,51.3991373 3.33,55.2181373 0.953,58.6641373 C2.806,59.1541373 3.456,60.5151373 3.802,62.1071373 C4.32,65.2501373 2.108,66.3931373 2.814,69.6821373 C5.652,69.5001373 5.789,71.2341373 8.555,71.0691373 C12.518,69.8131373 14.849,67.3831373 21.864,68.3031373 C25.21,65.2351373 31.874,64.5491373 39.91,64.8681373 C42.622,66.3101373 44.371,68.5121373 45.575,71.0691373 C49.291,69.7801373 48.139,72.6561373 52.237,71.0691373 C52.199,72.8791373 52.578,74.9831373 51.275,75.8851373 C57.352,78.4451373 60.948,78.5901373 70.296,78.6531373 C72.69,77.4111373 74.458,75.6751373 77.893,75.1651373 C77.428,71.6461373 82.42,72.0711373 81.657,68.3031373 C84.974,68.1461373 84.138,65.0221373 87.378,64.8681373 C86.291,62.4231373 89.011,60.9611373 89.271,58.6641373 C89.791,54.4601373 87.434,50.1581373 86.428,46.2701373 C84.053,45.3551373 82.502,48.2941373 81.657,46.2701373 M133.9226,71.0689373 C134.1056,69.0959373 134.0486,67.2959373 131.0856,67.6319373 L131.0856,73.1149373 C130.3236,75.1409373 126.5666,74.9159373 127.2786,77.9649373 C133.6616,77.2859373 129.4496,80.0159373 129.1736,82.0869373 C135.1746,81.8809373 135.3926,77.3819373 137.7396,74.5079373 C139.1566,73.4739373 141.7056,73.2719373 142.4586,71.7329373 C140.1686,69.6089373 138.4266,71.3239373 133.9226,71.0689373 M123.4577,79.3365373 C122.6487,80.7845373 120.6087,81.3735373 120.6447,83.4565373 C118.9627,83.4045373 117.6977,83.6175373 116.8137,84.1435373 C115.2127,85.5225373 114.6077,87.5995373 112.0877,88.2645373 C108.1687,89.3445373 107.0147,92.3885373 105.4027,95.1635373 C108.5087,94.0515373 110.5627,94.8245373 113.9507,95.1635373 C114.8497,93.5235373 117.7847,93.3395373 116.8137,90.3345373 L120.6447,90.3345373 C120.9087,86.4105373 128.1037,87.5135373 128.2047,83.4565373 C127.8747,81.1725373 125.3977,80.4885373 123.4577,79.3365373 M58.8708,81.3804373 C57.8138,82.4384373 62.0458,85.5434373 62.7018,87.5994373 C67.3218,87.2734373 70.2958,85.7724373 69.3478,81.3804373 C65.1978,81.9364373 60.5508,80.5354373 58.8708,81.3804373" id="path-1"></path>
    </defs>
    <g id="Symbols" stroke="none" stroke-width="1" fill="none" fill-rule="evenodd">
        <g id="Map/Australia-NZ">
            <mask id="mask-2" fill="white">
                <use xlink:href="#path-1"></use>
            </mask>
            <use id="Australia-NZ" fill="IconColor" xlink:href="#path-1"></use>
            <g id="Mixin/Fill/Black" mask="url(#mask-2)" fill="IconColor">
                <rect id="Rectangle" x="0" y="0" width="142" height="95"></rect>
            </g>
            <g id="Mixin/State/Hover" mask="url(#mask-2)" fill="IconColor" fill-opacity="0.300000012">
                <rect id="Box" x="0" y="0" width="142" height="95"></rect>
            </g>
        </g>
    </g>
</svg>