<?xml version="1.0" encoding="UTF-8"?>
<svg width="136px" height="116px" viewBox="0 0 136 116" version="1.1" xmlns="http://www.w3.org/2000/svg" xmlns:xlink="http://www.w3.org/1999/xlink">
    <!-- Generator: Sketch 42 (36781) - http://www.bohemiancoding.com/sketch -->
    <title>Map/Europe</title>
    <desc>Created with Sketch.</desc>
    <defs>
        <path d="M105.3974,5.508 C105.8934,3.578 110.3784,4.515 109.2184,1.389 C100.5354,0.379 92.2204,0.157 84.5124,0 C84.4444,1.225 84.7354,2.165 85.4444,2.777 C91.4464,4.168 96.3694,6.338 105.3974,5.508 M68.3906,8.967 C68.2676,10.67 66.6066,11.097 68.3906,12.411 C72.2926,12.264 72.4286,9.359 76.9096,9.64 C76.6836,12.711 72.2546,12.704 72.1856,15.848 C73.7716,16.766 75.3696,17.657 78.8526,17.233 C78.3956,19.385 80.8506,19.434 83.5846,19.281 C84.4096,16.699 85.2366,14.092 86.4326,11.718 C88.9396,13.55 90.3876,16.205 96.8926,15.17 C97.7306,9.92 91.8666,9.599 89.2896,6.916 C89.0036,8.522 86.7356,6.109 85.4446,6.194 C83.1366,6.316 81.5446,5.847 80.7706,4.836 C82.9826,3.002 79.9646,0.792 75.9856,1.389 C73.1986,2.504 77.4926,4.961 75.0246,5.508 C73.0086,2.243 63.9386,-0.987 63.6036,5.508 C64.0606,7.509 67.6986,7.141 68.3906,8.967 M16.124,52.3464 C16.231,50.5924 19.672,51.2624 20.882,50.2934 C21.89,46.7994 18.721,46.3404 18.991,43.4144 C14.871,44.3284 13.398,42.9774 9.489,44.0874 C6.908,43.6634 7.11,41.2074 3.774,41.3534 C4.941,44.6834 0,43.6504 0,46.1494 C2.657,46.7264 2.46,45.1874 4.706,45.4734 C4.212,47.1394 1.06,46.9494 1.887,49.5954 C6.642,48.6944 5.611,51.9714 8.556,52.3464 C9.341,50.9284 15.155,51.6414 16.124,52.3464 M53.228,77.1618 C51.907,76.4408 50.296,76.0118 49.373,75.0928 C50.561,71.0118 43.076,70.3638 46.541,66.8178 C45.256,66.1178 43.658,65.6858 42.708,64.7378 C44.087,64.1548 45.723,63.7268 45.573,61.9918 C42.096,61.7798 40.272,62.7688 37.999,63.3578 C38.703,67.1168 36.499,68.7138 37.041,72.3228 C39.333,73.3148 40.516,73.4058 41.757,73.6988 C42.157,76.1408 38.563,77.4868 37.041,76.4408 C36.299,79.5438 37.697,81.0548 38.942,82.6608 C37.275,83.2958 33.849,82.6188 34.16,84.7268 C38.88,84.2288 43.644,83.7888 49.373,84.0288 C50.155,81.0778 49.632,79.1318 53.228,77.1618 M27.4985,79.9147 C29.6895,79.1777 33.2665,79.4577 35.1185,78.5257 C34.1175,75.6477 34.8965,75.4837 35.1185,72.3227 L30.3915,72.3227 C30.3315,75.4047 28.2335,73.1937 26.5935,74.3957 C26.7105,76.3827 26.0695,78.8927 27.4985,79.9147 M100.6806,61.9919 C100.6216,59.9139 104.0336,60.2959 106.3676,59.9339 C106.4466,62.0649 103.5126,61.9849 100.6806,61.9919 M90.2486,57.1799 C92.0326,58.6159 94.5436,59.5339 97.7956,59.9339 L97.7956,66.8179 C95.6626,66.5379 98.3336,62.7689 94.0266,64.0699 C91.9246,66.4459 93.2536,71.2949 90.2486,73.0279 C87.0836,73.2429 84.7456,72.6989 82.6056,73.0279 C79.9646,73.4169 79.4056,75.0199 76.9096,75.0929 C77.2116,74.2499 74.1926,72.7129 74.0956,74.3959 C71.8676,74.1969 71.8676,72.5189 74.0956,72.3229 C71.9236,70.6779 70.4326,68.5259 70.2846,65.4359 C75.0246,65.7309 73.1986,75.1379 81.6746,72.3229 C83.8086,69.5259 85.2756,66.2259 87.3536,63.3579 C87.0376,61.7799 86.2126,60.5319 85.4446,59.2199 C86.0106,52.7499 92.7786,50.7619 95.8866,46.1489 C97.0346,46.0569 97.6186,46.2999 97.7956,46.8459 C97.0346,51.5759 89.3776,51.2679 90.2486,57.1799 M109.2186,34.4419 C109.6986,34.8129 108.5416,35.3339 108.2776,35.1429 C107.7776,34.7719 108.9636,34.2569 109.2186,34.4419 M135.8196,80.9449 C135.8196,80.9449 129.4306,80.4779 126.2376,79.0859 C125.0946,77.5349 121.2146,75.3669 117.3366,76.7619 C117.7956,73.3539 115.5116,70.0989 110.4936,70.0989 C105.4736,70.0989 106.6146,62.1979 110.0356,60.1839 C113.4566,58.1699 112.7746,57.2409 110.0356,55.2269 C107.2986,53.2129 106.1556,45.6219 106.1556,45.6219 L111.2516,34.4499 C111.2146,34.4479 111.1806,34.4439 111.1426,34.4419 C109.8236,32.8439 108.4496,31.3599 106.3676,30.3249 L97.7956,30.3249 C95.2256,31.6289 92.7966,33.1159 90.2486,34.4419 C89.8136,33.4339 89.0036,34.7309 87.3536,34.4419 C83.9646,37.0499 79.7116,38.9929 75.9856,41.3529 C74.9146,44.4909 73.0086,47.0109 70.2846,48.8999 C70.1036,48.1039 68.5346,48.3349 67.4316,48.2259 L67.4316,50.9619 C61.3966,51.2309 60.7716,55.3219 58.8516,58.5529 C60.7716,60.1779 61.0476,62.9539 60.7716,66.1179 C61.6916,67.9809 66.7746,66.8619 68.3906,68.1989 C66.3136,70.2259 64.5846,70.9849 64.5846,73.0279 C66.6066,72.6989 66.3676,73.9899 66.4706,75.0929 C63.0916,75.1379 60.9656,76.1619 57.9436,76.4409 C57.0676,77.6849 55.2526,78.2119 56.0126,80.5939 C50.6176,79.4259 53.8956,84.5609 49.3726,84.0289 C49.5226,84.8469 49.1766,85.2539 48.3866,85.4039 C44.2186,85.1049 43.3826,87.2719 40.7896,88.1819 C38.5016,88.5539 35.9476,88.7669 36.1026,90.9279 C37.3266,91.8649 40.2146,91.6019 42.7076,91.6199 C42.2576,94.7279 47.1126,93.9479 46.5406,97.1359 C45.5626,98.0519 45.5866,99.6959 43.6586,99.8809 C39.2396,98.2369 35.3076,100.4989 29.4386,99.8809 C28.4776,102.1539 31.5526,107.3819 27.4986,107.4699 C28.2016,109.4909 30.3916,110.4409 29.4386,113.6609 C33.8486,112.9759 35.1786,114.5569 37.9996,115.0269 C41.5456,113.7089 42.0156,113.7089 45.5736,115.0269 C47.7306,112.2419 51.0056,110.2259 50.3056,105.3859 C54.4806,104.5069 53.7726,100.1009 58.8516,99.8809 C62.8886,101.6019 64.5116,99.3979 68.3906,99.1939 C65.7026,101.8739 67.0586,106.1749 68.3906,109.5269 C74.3996,109.1349 70.6646,105.6239 71.2166,101.9409 C70.2576,101.9289 70.0246,100.7269 71.2166,100.5649 L71.2166,101.9409 C73.1786,102.1489 73.1046,103.7859 74.0956,104.7099 C78.6996,104.7819 81.5596,106.1139 82.6056,108.8469 C82.4506,110.3369 80.2326,110.3069 77.8386,110.2019 C77.7176,112.6169 81.2016,112.3739 82.6056,113.6609 C82.1556,110.5599 85.1616,110.0039 87.3536,108.8469 C87.8856,107.2909 85.5566,107.8609 85.4446,106.7569 C87.2006,104.6049 88.6666,109.0829 90.2486,106.7569 C87.6386,103.1169 75.8296,102.5039 78.8526,97.1359 C81.6746,100.2839 87.0376,101.7669 90.2486,104.7099 C90.7786,105.2319 91.5906,106.8519 92.1046,107.4699 C92.8486,108.3269 94.4106,109.1189 94.0266,110.2019 L94.0266,114.3309 C95.2516,115.2699 98.1626,115.0099 100.6806,115.0269 C102.2676,112.6599 98.9736,109.2679 101.6006,106.7569 L104.4466,106.7569 C103.3876,109.4709 104.2876,109.3259 103.5346,112.2499 C105.6566,112.0109 104.7986,114.2469 106.3676,115.0269 C107.0526,115.3759 107.8536,115.6289 108.7116,115.8089 L110.0356,98.5289 C110.0356,98.5289 118.5916,95.7399 132.1656,88.6909 C136.0456,84.1959 135.8196,80.9449 135.8196,80.9449" id="path-1"></path>
    </defs>
    <g id="Symbols" stroke="none" stroke-width="1" fill="none" fill-rule="evenodd">
        <g id="Map/Europe">
            <mask id="mask-2" fill="white">
                <use xlink:href="#path-1"></use>
            </mask>
            <use id="Europe" fill="IconColor" xlink:href="#path-1"></use>
            <g id="Mixin/Fill/Black" mask="url(#mask-2)" fill="IconColor">
                <rect id="Rectangle" x="0" y="0" width="136" height="116"></rect>
            </g>
            <g id="Mixin/State/Hover" mask="url(#mask-2)" fill="IconColor" fill-opacity="0.300000012">
                <rect id="Box" x="0" y="0" width="136" height="116"></rect>
            </g>
        </g>
    </g>
</svg>