<?xml version="1.0" encoding="UTF-8"?>
<svg width="326px" height="181px" viewBox="0 0 326 181" version="1.1" xmlns="http://www.w3.org/2000/svg" xmlns:xlink="http://www.w3.org/1999/xlink">
    <!-- Generator: Sketch 42 (36781) - http://www.bohemiancoding.com/sketch -->
    <title>Map/North America</title>
    <desc>Created with Sketch.</desc>
    <defs>
        <path d="M304.8749,5.522 C304.8079,7.565 302.7339,8.082 301.0829,8.959 C298.1759,7.622 293.8829,7.318 288.7259,7.58 C291.9429,4.746 300.8439,5.954 304.8749,5.522 M298.2399,38.59 C295.6989,37.36 298.2399,34.04 301.0829,34.469 C300.6029,36.162 298.5419,36.748 298.2399,38.59 M288.7259,41.335 C290.6049,41.335 289.9069,39.471 292.5409,39.953 C296.0489,40.846 298.0809,42.855 302.9709,42.719 C306.1939,41.07 298.4219,39.659 301.0829,38.59 C302.5039,38.94 303.4879,39.608 304.8749,39.953 C305.6249,37.575 303.8129,37.047 302.9709,35.823 C310.8119,35.526 308.2359,28.589 306.8149,24.807 C309.1369,24.249 311.8859,23.911 315.3209,24.128 C315.0759,21.085 310.2199,21.403 307.7529,19.981 C310.7079,20.316 309.8729,17.886 313.4179,18.599 C314.0979,16.505 311.7899,16.589 312.4729,14.467 C315.8699,14.846 314.8129,12.026 318.1879,12.402 C320.5639,11.836 326.3549,13.756 325.7899,11.036 C326.6639,8.527 321.6679,10.337 321.0389,8.959 C318.7959,8.756 319.2529,6.578 316.2849,6.897 C312.1779,6.483 307.7529,9.38 305.8389,8.29 C306.4229,4.81 314.2059,6.535 315.3209,3.465 C313.3469,1.465 309.1759,1.055 303.9029,1.394 C300.8439,0.602 297.0609,-0.424 295.3699,1.394 C294.5769,0.384 292.3419,0.397 290.6359,0 C286.8139,1.832 277.4879,-0.33 273.5769,1.394 C269.1809,1.465 263.9139,0.84 262.1339,2.784 C262.0499,4.28 264.7319,7.242 263.0599,7.58 C256.2079,6.797 252.3389,8.058 246.0209,6.897 C236.4989,7.851 232.0609,12.373 222.2579,13.109 C221.3559,15.595 226.5209,13.663 226.0269,15.875 C223.2879,17.539 218.2009,17.498 215.6279,19.313 C213.2819,18.418 210.2049,18.558 208.9589,21.37 C211.9969,20.773 211.8969,22.454 213.6999,22.728 C213.6729,20.904 218.4579,20.904 218.4579,22.728 C220.7659,22.325 224.9129,19.668 225.0939,23.441 C221.0379,23.714 215.3359,22.766 212.7419,24.128 C213.6119,26.704 217.2079,27.3 220.3589,28.24 C223.2879,28.743 222.1519,26.35 225.0939,26.873 C227.9909,28.232 230.9179,29.544 236.4989,28.944 C235.7269,32.003 237.1539,33.523 238.4079,35.137 C238.0869,36.748 236.8949,37.734 237.4579,39.953 C241.2469,41.301 241.8429,36.787 244.1189,39.284 C244.6379,41.739 241.2469,41.374 238.4079,41.335 C239.2079,44.423 245.6259,43.463 246.9369,46.16 C244.7809,47.348 242.1539,48.178 240.2879,49.609 C242.9619,50.508 237.3359,51.024 238.4079,53.046 C245.1759,56.373 239.9299,64.243 245.0239,68.893 L251.6919,68.893 C254.4479,68.976 253.3499,71.819 256.4239,71.637 C257.3829,70.258 258.0689,68.695 260.2499,68.178 C259.0969,62.989 264.9819,62.922 264.0559,57.859 C266.4819,57.805 265.3849,55.183 267.8229,55.108 C271.4469,56.507 271.4469,53.473 275.4439,55.108 C276.9529,54.168 278.4259,53.159 280.2039,52.374 C284.7889,51.542 286.8139,48.889 291.5789,48.237 C291.9659,45.752 299.9669,45.153 297.2779,42.719 C295.3699,44.293 291.3749,41.535 288.7259,41.335 M190.9071,28.2397 C191.3981,28.6007 190.2071,29.1527 189.9391,28.9437 C189.4511,28.5897 190.6321,28.0487 190.9071,28.2397 M170.9711,15.8747 L170.9711,19.9807 C173.8601,19.5027 174.4131,20.6957 176.6301,20.6767 C177.0681,17.5387 182.7981,14.6027 186.1471,15.8747 C187.5861,18.7587 181.2241,15.9647 181.4151,17.9257 C184.2801,18.9617 178.1291,19.1617 178.5531,20.6767 C181.0261,20.2537 181.9361,20.9547 181.4151,22.7277 C179.1801,22.7537 178.6061,21.5397 175.6991,22.0657 C175.8391,24.0157 172.5061,23.4087 173.8091,26.1917 C179.4751,25.6577 183.5681,25.2357 186.1471,28.2397 C178.6061,29.4247 173.7411,25.5197 169.0491,26.8727 C168.2941,30.1887 174.8001,28.2207 174.7721,31.0257 C181.9361,30.2817 191.5511,34.0807 193.7451,28.9437 C196.2211,29.1527 197.8201,28.6857 197.5451,26.8727 C198.2501,25.0037 193.1131,27.3817 193.7451,25.5007 L200.4121,25.5007 C200.3831,21.8267 206.2041,22.3427 205.1581,17.9257 C210.0701,17.8177 210.5391,14.4907 216.6031,15.1527 C217.7601,13.4987 219.6271,12.3727 223.2081,12.4027 C224.4271,10.6977 221.0981,9.0657 223.2081,8.9587 C227.1911,7.6397 233.0171,9.6507 234.6101,5.5217 C234.6101,4.3927 231.9581,5.1517 231.7861,4.1467 C216.2291,5.6787 195.0311,2.1437 178.5531,6.8967 C177.2811,11.0547 182.6451,10.3607 183.2971,13.1087 C177.1231,13.4597 178.9991,7.9467 171.9311,8.9587 C171.6241,9.9077 170.5341,10.2827 170.9711,11.7357 C169.4371,11.7817 167.6691,11.6237 168.1101,13.1087 C167.2841,15.3127 170.5891,14.5347 170.9711,15.8747 M185.183,61.3052 C181.421,60.5752 183.896,59.5662 181.415,57.8592 C178.535,58.3642 178.606,56.6822 175.699,57.1852 C174.357,58.5062 175.209,61.3872 170.972,60.6552 C171.031,63.0562 174.084,63.4032 177.59,63.3782 C177.281,57.9932 184.07,65.6352 185.183,61.3052 M170.9716,146.0434 L170.9716,148.7864 L174.7716,148.7864 C174.6536,147.0554 173.3976,146.1164 170.9716,146.0434 M181.4154,149.4546 C181.6964,147.8846 181.2734,146.8336 180.4544,146.0436 L177.5894,146.0436 C177.2344,148.3886 177.8814,149.9656 181.4154,149.4546 M182.3441,148.7866 L182.3441,152.2356 C184.3371,152.5096 184.8811,151.7616 186.1471,151.5286 C186.0341,149.7886 184.7821,148.8616 182.3441,148.7866 M180.4545,159.8081 C183.8665,159.4041 185.0525,160.6031 187.1425,161.1931 C187.2125,159.2061 191.0705,159.9361 193.7455,159.8081 C192.3825,155.2451 187.1425,155.8671 181.4155,155.6731 C182.1145,153.7951 179.4755,154.2791 179.4755,152.9221 C177.4195,152.1471 174.2585,152.1061 173.8085,150.1671 L159.5905,150.1671 C159.1675,151.4761 157.5245,151.8951 157.6625,153.6211 C161.5315,153.8871 161.5085,151.3481 166.2235,152.2361 C170.2225,152.8001 170.6645,155.9171 174.7715,156.3631 C177.0345,156.7931 181.6515,155.4931 182.3445,157.0531 C178.8735,157.1251 179.9755,158.0441 180.4545,159.8081 M169.9882,158.4126 L169.9882,161.1926 C173.1862,160.4556 173.2602,161.4126 176.6302,160.5036 C177.2812,157.7426 173.0442,158.5326 169.9882,158.4126 M195.6268,161.1929 C199.0608,161.3649 202.2208,161.3409 201.3428,158.4129 L195.6268,158.4129 L195.6268,161.1929 Z M185.183,61.3052 C181.421,60.5752 183.896,59.5662 181.415,57.8592 C178.535,58.3642 178.606,56.6822 175.699,57.1852 C174.357,58.5062 175.209,61.3872 170.972,60.6552 C171.031,63.0562 174.084,63.4032 177.59,63.3782 C177.281,57.9932 184.07,65.6352 185.183,61.3052 M96.85,137.7602 C99.111,137.9932 99.005,139.9012 100.661,140.5112 C99.463,142.2512 96.037,139.7742 96.85,137.7602 L96.85,137.7602 Z M95.934,136.3782 C96.112,135.5962 96.85,136.0142 96.85,136.3782 C96.701,137.1792 95.934,136.7712 95.934,136.3782 L95.934,136.3782 Z M115.892,37.2332 C115.377,36.8562 116.513,36.3222 116.799,36.5352 C117.295,36.8832 116.143,37.3972 115.892,37.2332 L115.892,37.2332 Z M145.309,35.8222 C148.314,35.5062 148.665,37.0942 151.957,36.5352 C151.957,39.2642 148.237,39.3522 145.309,39.9522 L145.309,35.8222 Z M149.102,32.3772 C152.022,33.0492 148.058,34.2312 148.129,35.1372 C145.259,34.4732 148.584,32.8112 149.102,32.3772 L149.102,32.3772 Z M222.258,86.1202 C222.726,86.4752 221.565,86.9792 221.291,86.7932 C220.809,86.4392 221.974,85.8982 222.258,86.1202 L222.258,86.1202 Z M164.313,180.4642 C165.281,179.5522 165.22,177.9072 167.144,177.7282 C167.188,178.0332 167.251,178.3242 167.329,178.6072 C168.374,177.3642 169.947,175.6382 170.861,174.9642 C170.474,173.6432 169.196,172.9902 167.144,172.8922 C164.703,173.6182 163.623,175.3702 160.459,175.6422 C158.243,172.2812 161.46,169.0952 160.459,164.6102 C158.744,162.2242 152.45,163.1302 149.102,161.8802 C150.044,158.8732 152.802,157.2182 151.957,152.9222 C147.353,153.3392 147.103,153.3392 142.473,152.9222 C140.724,154.4052 141.562,157.7582 138.661,158.4122 C125.951,158.9142 133.896,146.6042 131.062,141.2032 C134.424,140.6302 136.427,139.1432 139.623,138.4612 C144.815,138.1372 146.035,140.6732 150.993,140.5112 C150.915,139.5472 150.796,138.5842 151.957,138.4612 C156.529,138.6232 162.642,137.5832 163.349,140.5112 C162.938,144.5002 165.445,146.3712 169.988,146.7302 C168.85,143.1772 169.358,142.0992 169.988,139.8282 C168.916,138.7962 167.285,138.1412 167.144,136.3782 C168.743,131.8172 172.937,129.0972 179.475,128.1082 C180.35,126.1032 180.35,126.0082 179.475,123.9862 C181.696,124.1852 183.128,123.8762 184.28,123.2892 C181.913,119.5142 187.368,120.3502 186.147,115.7152 C189.308,114.7892 192.319,113.7952 195.627,112.9672 C196.126,110.8032 192.749,111.4032 193.745,108.8392 C197.219,106.7532 202.492,105.9822 207.09,104.7012 C207.747,106.5712 205.158,106.0942 205.158,107.4562 C208.959,106.3082 212.99,105.3372 215.628,103.3342 C213.282,102.2562 208.55,102.9062 208.959,99.8862 C209.488,97.9732 212.606,97.9662 214.674,97.1412 C215.055,95.4662 212.922,95.6492 213.7,93.6862 C218.321,95.9542 223.671,90.3542 226.998,91.6192 C224.803,95.3072 220.281,97.2942 218.457,101.2512 C221.974,101.7492 222.543,100.0772 226.027,100.5782 C226.117,101.6442 225.61,103.2012 226.998,103.3342 C227.94,101.6292 230.636,104.2772 233.648,103.3342 C233.188,101.7492 231.786,99.8182 233.648,98.5032 C230.184,98.2632 229.303,96.1472 227.94,94.3632 C228.267,90.0982 228.267,89.7232 227.94,85.4002 C226.117,84.1282 225.576,85.3572 223.208,85.4002 C223.312,82.1432 218.817,82.1532 218.457,79.2172 C219.184,78.6252 219.465,77.6572 219.401,76.4672 C215.742,74.9572 217.066,69.8552 211.782,69.5702 C211.3,70.5792 212.922,73.1332 210.84,73.0292 C208.881,72.6192 204.598,73.8912 204.189,72.3172 L204.189,65.4472 C199.103,67.1052 200.034,63.8402 195.627,63.3782 C193.129,65.2742 193.578,62.5732 190.907,62.7012 C188.603,62.4252 188.855,63.9492 186.147,63.3782 C187.565,70.2422 183.568,74.1022 185.183,79.2172 C183.568,79.4172 180.454,77.2702 179.475,79.2172 C180.43,81.1842 182.645,79.6592 183.297,80.5902 C179.976,82.0942 179.907,85.9302 178.553,88.8732 C176.378,86.7642 175.952,83.3842 174.772,80.5902 C172.833,79.2172 172.888,80.9092 170.972,81.2812 C170.149,79.2912 169.555,80.5362 167.144,80.5902 C164.313,78.5162 161.101,76.7242 156.74,75.7772 C158.236,72.3522 153.396,73.5822 153.812,70.9502 C155.881,71.2822 155.661,69.9712 155.759,68.8932 C158.897,67.7152 160.233,65.2692 163.349,64.0602 C165.445,61.6472 166.902,58.8152 171.931,58.5542 C171.994,57.3252 170.761,57.1072 170.972,55.8052 C177.38,54.8892 180.953,54.3152 185.183,53.0462 C184.979,50.3812 185.183,47.9612 186.147,46.1592 C185.029,45.1532 182.554,45.0822 181.415,44.1022 C185.183,43.8732 188.431,44.0722 189.939,45.4652 C191.721,43.3742 194.5,46.2642 197.545,45.4652 C196.221,48.9732 201.882,47.3772 201.343,50.3122 C200.413,55.3582 190.074,53.5932 188.994,58.5542 C190.567,60.1902 194.533,60.0632 198.507,59.9202 C204.403,61.8542 206.741,66.3722 214.674,66.8222 C212.548,63.2562 216.26,63.3512 215.628,59.2522 C215.206,57.4592 212.749,57.1762 212.742,55.1082 C216.362,55.2582 217.359,57.2932 220.359,57.8592 C220.092,56.0702 220.014,54.4322 223.208,55.1082 C222.543,52.9922 224.171,52.6002 224.129,50.9722 C221.565,51.4572 222.332,49.5592 221.291,48.9162 C218.05,48.5262 215.576,47.5742 212.742,46.8402 C213.013,45.4362 215.336,45.5122 215.628,44.1022 C214.403,42.4492 211.444,42.0572 211.782,39.2832 L203.258,39.2832 C203.713,37.1022 200.707,37.4672 200.413,35.8222 C196.365,35.4262 194.13,36.3222 190.907,36.5352 C191.472,32.2662 183.403,33.6202 182.344,35.8222 C182.698,33.2562 181.588,31.7882 178.553,31.6792 C173.649,33.8722 167.947,40.9122 173.809,44.7832 C175.204,45.1672 178.685,44.0002 178.553,45.4652 C177.531,47.4902 175.547,48.7852 173.809,50.3122 C171.379,48.6102 175.804,48.8192 174.772,46.1592 C171.525,44.6152 168.442,42.9302 167.144,39.9522 C163.533,40.2822 164.133,37.5742 159.59,38.5902 C159.919,40.2312 157.799,40.0722 158.593,42.0142 C161.851,42.9512 160.645,48.4282 158.593,49.6092 C157.2,49.0092 156.544,47.8822 156.74,46.1592 C151.957,45.6702 151.957,48.7072 148.129,48.9162 C144.597,47.8172 140.724,46.9642 138.661,44.7832 C142.898,44.2602 144.378,45.7012 148.129,45.4652 C150.225,44.0392 147.694,43.4942 148.129,41.3342 C153.396,40.5592 155.493,37.4792 160.459,36.5352 C158.737,34.3692 159.089,32.7432 158.593,31.0262 L144.378,31.0262 C142.279,32.9512 137.548,32.9512 136.744,35.8222 C136.262,34.8052 135.353,34.1172 134.861,33.0842 C132.348,33.0492 128.937,33.7192 130.126,31.0262 C137.157,32.0802 145.544,28.5202 151.957,26.8722 C151.957,30.0462 160.087,29.2502 161.46,27.5672 C160.801,25.9942 160.604,24.0692 159.59,22.7272 C153.99,23.2682 151.239,25.9122 145.309,26.1922 L145.309,22.0652 C140.119,20.7912 139.187,25.3082 142.473,26.1922 C137.027,26.6782 133.952,25.4322 129.198,25.5002 C130.605,29.0682 124.812,27.4072 124.446,29.6372 C126.813,30.5112 127.37,29.2872 128.215,30.3292 C127.606,31.2402 126.179,31.6102 124.446,31.6792 C122.916,27.7442 115.383,28.1322 108.276,28.2392 C107.778,31.5782 105.351,33.4732 102.561,35.1372 C102.393,37.3032 105.044,37.4672 104.489,39.9522 C109.182,40.1602 111.524,38.6482 114.884,37.8922 C112.944,41.6232 120.105,38.7192 120.617,40.6592 C121.297,42.5232 116.143,40.1602 116.799,42.0142 C116.778,45.7442 127.192,41.8482 125.379,46.8402 C128.924,45.3112 130.023,45.7522 133.896,46.8402 L134.861,46.8402 C134.56,46.0102 137.596,44.4752 137.714,46.1592 C137.548,46.9762 136.206,46.9282 134.861,46.8402 C135.114,48.5802 138.93,50.7552 134.861,51.6822 C133.741,51.5412 134.088,50.4082 133.896,49.6092 C125.47,49.0622 121.199,45.5122 111.115,46.1592 C108.211,45.5162 108.136,42.8202 104.489,42.7192 C104.04,44.6742 101.524,45.1532 98.77,45.4652 C99.083,43.8732 98.623,42.8352 97.85,42.0142 C94.183,42.1722 94.183,44.9402 90.25,44.7832 C86.642,45.3112 85.711,43.9402 82.634,44.1022 C81.579,44.2672 82.012,45.4652 80.735,45.4652 C79.813,45.4562 79.965,44.6252 79.813,44.1022 C77.537,44.3252 76.208,45.1862 73.118,44.7832 C65.545,41.3502 50.922,42.9902 42.764,39.9522 C35.661,42.2032 26.445,42.8422 21.861,43.4012 C19.693,46.0732 23.578,46.1232 24.675,48.2372 C28.306,47.9062 30.614,48.5142 31.349,50.3122 C27.502,49.3532 27.936,51.5312 26.581,52.3732 C24.848,51.7652 24.005,50.5902 21.861,50.3122 C18.251,52.9652 9.571,51.9772 6.643,55.1082 C11.883,54.9922 13.739,57.3152 14.249,60.6552 C19.289,59.3312 23.07,60.8372 27.555,59.9202 C22.902,65.9922 3.147,61.0962 4.723,71.6372 C7.889,73.3012 8.634,73.5242 7.595,77.1572 C9.308,77.2422 9.571,76.3082 11.363,76.4672 C11.445,77.5672 10.919,79.0882 12.321,79.2172 C13.665,77.0232 12.759,82.0392 15.191,81.2812 C16.362,78.5992 20.597,77.9872 23.716,79.9102 C19.618,82.2282 18.131,86.4072 13.304,88.1732 C8.945,89.1642 7.456,92.1992 1.918,92.2942 C2.683,94.5022 0.401,94.4232 0,95.7482 C4.345,96.1372 5.92,94.5222 10.434,95.0632 C11.499,93.0752 14.478,92.4992 18.055,92.2942 C21.627,87.5602 27.802,84.6922 33.252,81.2812 L35.17,81.2812 C36.16,80.6382 35.45,78.7652 37.983,79.2172 C38.054,78.8062 38.148,78.4052 38.92,78.5462 C38.869,78.9542 38.812,79.3582 37.983,79.2172 C38.392,82.3002 35.441,82.8632 34.191,84.7322 C41.999,85.3572 43.89,81.7012 50.349,81.2812 C50.775,78.1962 49.849,76.1082 49.395,73.6972 C53.758,74.3462 54.001,71.9852 57.897,72.3172 C60.571,73.6492 62.752,75.2482 64.584,77.1572 C70.622,78.5462 75.786,80.5362 75.024,86.7932 C79.62,86.3492 75.242,82.9792 78.861,82.6572 C79.075,88.4882 78.557,94.7712 81.663,98.5032 C78.8,100.2932 80.693,101.0572 81.663,103.3342 C81.663,104.6892 79.082,104.1852 79.813,106.0942 C79.352,113.6412 78.725,118.7052 79.813,126.0582 C82.33,127.1982 83.998,128.9822 86.428,130.1972 C89.046,132.8582 88.854,137.5832 92.116,139.8282 C91.018,139.9512 91.317,141.0822 91.157,141.8992 C95.134,142.9342 96.037,146.1602 97.85,148.7862 C100.742,148.2682 100.587,149.9902 103.479,149.4542 C103.617,146.5272 101.647,147.1622 101.627,143.2912 C101.086,143.2912 100.553,142.7052 101.627,142.5872 L101.627,143.2912 C103.635,142.9382 103.393,144.2642 103.479,145.3402 C106.464,146.8862 109.022,148.7132 111.115,150.8532 C110.429,155.7092 112.944,158.2512 114.884,161.1932 C122.736,162.6072 127.351,166.1342 136.744,164.6102 C137.835,166.3892 139.1,167.9792 140.566,169.4472 C144.151,168.9142 145.12,170.2862 148.129,170.1382 C149.029,171.7942 150.915,172.7122 152.881,173.5722 L152.881,175.6422 C158.372,176.0572 159.49,179.6012 164.313,180.4642 L164.313,180.4642 Z" id="path-1"></path>
    </defs>
    <g id="Symbols" stroke="none" stroke-width="1" fill="none" fill-rule="evenodd">
        <g id="Map/North-America">
            <mask id="mask-2" fill="white">
                <use xlink:href="#path-1"></use>
            </mask>
            <use id="North-America" fill="IconColor" xlink:href="#path-1"></use>
            <g id="Mixin/Fill/Black" mask="url(#mask-2)" fill="IconColor">
                <rect id="Rectangle" x="0" y="0" width="326" height="180"></rect>
            </g>
            <g id="Mixin/State/Hover" mask="url(#mask-2)" fill="IconColor" fill-opacity="0.300000012">
                <rect id="Box" x="0" y="0" width="326" height="180"></rect>
            </g>
        </g>
    </g>
</svg>