<?xml version="1.0" encoding="UTF-8"?>
<svg width="104px" height="136px" viewBox="0 0 104 136" version="1.1" xmlns="http://www.w3.org/2000/svg" xmlns:xlink="http://www.w3.org/1999/xlink">
    <!-- Generator: Sketch 42 (36781) - http://www.bohemiancoding.com/sketch -->
    <title>Map/South America</title>
    <desc>Created with Sketch.</desc>
    <defs>
        <path d="M103.88933,38.555 C103.93733,35.994 102.93133,34.195 102.00333,32.379 C100.33433,31.083 99.2153303,32.664 97.2613303,33.053 C95.7653303,30.696 92.0793303,29.907 88.7413303,28.901 L82.0873303,28.901 C80.3853303,26.909 74.0233303,28.31 73.5243303,25.478 C70.9933303,25.478 67.9073303,25.863 67.8523303,24.094 C70.5823303,20.882 65.0363303,12.087 56.4253303,15.163 C53.4253303,13.873 51.2393303,12.032 50.7403303,8.937 C45.7763303,7.936 42.2373303,5.919 37.4093303,4.816 C36.1763303,5.071 35.9293303,6.02 34.5733303,6.19 C33.2853303,3.706 28.6603303,3.592 27.8973303,0.69 C24.8633303,0.073 25.9383303,2.454 24.1173303,2.757 C21.9093303,2.276 21.5993303,0.461 19.3633303,0 C18.5023303,1.198 17.6353303,2.38 14.6193303,2.062 C13.1653303,4.91 9.40133028,6.033 7.07333028,8.24 C6.29133028,9.525 4.90033028,11.133 4.01233028,12.112 C4.64433028,13.387 5.48733028,14.517 6.05533028,15.813 C6.05533028,17.2 3.48133028,16.722 4.17733028,18.581 C4.61533028,22.128 1.13533028,22.822 0.379330282,25.478 C-1.46166972,30.282 4.20233028,32.907 0.379330282,35.116 C2.03733028,36.432 5.06333028,36.751 7.03833028,37.891 C6.25233028,38.881 3.98333028,38.864 2.28933028,39.245 C1.59733028,44.792 5.77333028,46.816 10.8383303,48.227 C11.2173303,49.869 9.07933028,49.707 9.87533028,51.659 C13.4233303,53.671 14.6903303,57.332 20.3463303,57.86 C22.0793303,60.935 25.0793303,63.122 25.0603303,67.495 C24.0973303,68.404 24.1713303,70.034 23.2093303,70.928 C24.4573303,71.385 24.9443303,72.406 25.0603303,73.69 C22.5113303,76.79 26.2033303,80.408 25.0603303,84.709 C19.9323303,86.934 22.2923303,94.642 20.3463303,99.173 C21.7433303,101.079 24.2293303,97.98 25.0603303,99.877 C25.9253303,103.25 21.8153303,103.03 20.3463303,104.678 C19.1383303,106.918 23.3673303,105.219 22.2143303,107.455 C20.4033303,109.121 23.2553303,110.788 21.2493303,112.944 C22.1783303,117.626 25.3743303,120.034 23.2093303,123.979 C26.0053303,125.586 25.7103303,129.469 28.8843303,130.867 C28.7473303,132.09 30.0023303,132.31 29.8113303,133.611 C32.2123303,133.97 33.7453303,134.913 35.5063303,135.668 C39.0683303,135.251 45.3013303,136.807 45.9313303,134.285 C43.3853303,133.885 41.5273303,132.94 40.2553303,131.529 C40.9653303,129.206 36.4173303,130.661 37.4093303,128.096 C37.0823303,125.082 40.1573303,124.557 40.2553303,121.894 C42.7143303,121.809 43.9403303,120.898 44.0783303,119.154 C44.5623303,116.709 40.7303303,117.471 41.2243303,115.012 C43.7713303,112.887 47.6783303,106.083 41.2243303,105.368 C47.5833303,106.536 47.3663303,102.97 48.8083303,100.565 C53.9233303,100.807 55.6693303,98.618 59.2743303,97.797 C59.9013303,94.586 57.7513303,93.372 57.3573303,90.926 L64.9643303,90.926 C65.0183303,90.235 66.1303303,90.371 66.8753303,90.215 C67.4013303,88.535 67.6863303,86.686 70.6773303,86.78 C70.3363303,82.873 74.2593303,82.045 76.3543303,79.88 L76.3543303,75.077 C78.1653303,73.853 79.3123303,72.157 81.0903303,70.928 C85.6223303,69.964 85.6223303,69.964 89.6423303,68.867 C90.0763303,64.451 94.6773303,60.617 91.5473303,55.778 C92.9893303,55.201 93.6103303,54.042 93.4493303,52.326 C94.9823303,52.55 95.1033303,51.694 96.3163303,51.659 C96.6663303,49.378 99.1103303,48.616 100.12233,46.849 C102.64133,45.052 99.9803303,43.522 102.93133,42.71 C102.27633,40.594 103.88933,40.178 103.88933,38.555" id="path-1"></path>
    </defs>
    <g id="Symbols" stroke="none" stroke-width="1" fill="none" fill-rule="evenodd">
        <g id="Map/South-America">
            <mask id="mask-2" fill="white">
                <use xlink:href="#path-1"></use>
            </mask>
            <use id="South-America" fill="IconColor" xlink:href="#path-1"></use>
            <g id="Mixin/Fill/Black" mask="url(#mask-2)" fill="IconColor">
                <rect id="Rectangle" x="0" y="0" width="104" height="136"></rect>
            </g>
            <g id="Mixin/State/Hover" mask="url(#mask-2)" fill="IconColor" fill-opacity="0.300000012">
                <rect id="Box" x="0" y="0" width="104" height="136"></rect>
            </g>
        </g>
    </g>
</svg>