<?xml version="1.0" encoding="UTF-8"?>
<svg width="26px" height="69px" viewBox="0 0 26 69" version="1.1" xmlns="http://www.w3.org/2000/svg" xmlns:xlink="http://www.w3.org/1999/xlink">
    <!-- Generator: Sketch 42 (36781) - http://www.bohemiancoding.com/sketch -->
    <title>Icon/Trolley 2</title>
    <desc>Created with Sketch.</desc>
    <defs>
        <path d="M22.4414667,64.4658667 L22.11,64.4658667 C21.1185333,64.4658667 20.2414667,65.2329333 20.0185333,66.2244 C19.8,67.3244 20.5685333,68.4244 21.6685333,68.6414667 C22.7685333,68.86 23.8685333,68.0914667 24.0856,66.8829333 C24.3158667,65.7829333 23.5414667,64.6829333 22.4414667,64.4658667 Z M5.1744,64.4658667 L4.84146667,64.4658667 C3.85,64.4658667 2.9744,65.2329333 2.75,66.2244 C2.53293333,67.3244 3.3,68.4244 4.4,68.6414667 C5.5,68.86 6.6,68.0914667 6.81853333,66.8829333 C7.04146667,65.7829333 6.2744,64.6829333 5.1744,64.4658667 Z M24.0914667,0 L21.3414667,0 C20.35,0 19.5829333,0.768533333 19.5829333,1.76 C19.5829333,2.75 20.35,3.51853333 21.3414667,3.51853333 L22.3329333,3.51853333 L22.3329333,14.96 C21.5658667,14.6270667 20.7914667,14.41 19.9158667,14.41 L5.94146667,14.41 C2.86,14.41 0.441466667,16.7185333 0.11,19.8 C0,19.25 0,57.31 0,57.31 C0,60.7185333 2.75,63.4685333 6.05,63.4685333 L20.9,63.4685333 C23.5414667,63.4685333 25.7414667,61.2685333 25.7414667,58.6270667 L25.7414667,1.76586667 C25.85,0.7744 25.0829333,0 24.0914667,0 Z M22.4414667,58.6329333 C22.4414667,59.4 21.7829333,60.0658667 21.01,60.0658667 L6.16586667,60.0658667 C4.73293333,60.0658667 3.5244,58.8558667 3.5244,57.4244 L3.5244,20.2414667 C3.5244,18.81 4.6244,17.71 5.94146667,17.71 L19.91,17.71 C21.2270667,17.71 22.3270667,18.81 22.3270667,20.2414667 L22.3270667,58.6329333 L22.4414667,58.6329333 Z" id="path-1"></path>
    </defs>
    <g id="Symbols" stroke="none" stroke-width="1" fill="none" fill-rule="evenodd">
        <g id="Icon/Trolley-2">
            <mask id="mask-2" fill="white">
                <use xlink:href="#path-1"></use>
            </mask>
            <use id="trolley-2" fill="IconColor" xlink:href="#path-1"></use>
            <g id="Mixin/Fill/Black" mask="url(#mask-2)" fill="IconColor">
                <rect id="Rectangle" x="0" y="0" width="26" height="69"></rect>
            </g>
        </g>
    </g>
</svg>