<?xml version="1.0" encoding="UTF-8"?>
<svg width="32px" height="52px" viewBox="0 0 32 52" version="1.1" xmlns="http://www.w3.org/2000/svg" xmlns:xlink="http://www.w3.org/1999/xlink">
    <!-- Generator: Sketch 42 (36781) - http://www.bohemiancoding.com/sketch -->
    <title>Icon/Trolley 3</title>
    <desc>Created with Sketch.</desc>
    <defs>
        <path d="M2.9211589,44.2067443 C2.81262556,44.2067443 2.70409223,44.098211 2.58822556,44.098211 C1.59822556,43.8811443 0.606758897,44.3152777 0.171158897,45.3067443 C-0.27030777,46.4067443 0.171158897,47.6152777 1.16262556,48.0567443 C2.15409223,48.498211 3.4711589,48.0567443 3.91262556,47.0652777 C4.46262556,45.9652777 4.0211589,44.7567443 2.9211589,44.2067443 Z M15.5711589,47.6152777 C15.4626256,47.6152777 15.3540922,47.5067443 15.2382256,47.5067443 C14.2482256,47.2896777 13.2567589,47.7252777 12.8211589,48.7152777 C12.3796922,49.8152777 12.8211589,51.0252777 13.8126256,51.4652777 C14.8040922,51.9067443 16.1211589,51.4652777 16.5626256,50.4752777 C17.1126256,49.3811443 16.6711589,48.0567443 15.5711589,47.6152777 Z M31.2982256,1.96527767 C31.1882256,1.41527767 30.7482256,0.865277673 30.0882256,0.648211007 L28.1067589,0.0982110065 C27.1211589,-0.234722327 26.2382256,0.315277673 26.0211589,1.19821101 C25.8040922,2.08114434 26.3540922,3.06527767 27.2296922,3.28967767 L27.5626256,3.39821101 L25.5796922,10.7652777 C25.3626256,10.6567443 25.0296922,10.548211 24.6982256,10.433811 L13.1482256,7.35087767 C10.8382256,6.69234434 8.41529223,8.11941101 7.7567589,10.5423443 L0.606758897,36.9423443 C-0.161774437,39.8008777 1.48822556,42.883811 4.34822556,43.6508777 L14.4652922,46.2923443 C16.9982256,46.9508777 19.7482256,45.4108777 20.4067589,42.7752777 L23.4882256,31.4423443 L27.6711589,15.8252777 L31.1882256,2.84234434 C31.1882256,2.84234434 31.6296922,-1.11618899 31.2982256,1.96527767 Z M24.3711589,15.0567443 L20.1882256,30.6752777 L17.1067589,42.0067443 C16.8882256,42.7752777 16.1152922,43.2152777 15.3482256,42.998211 L5.22969223,40.3567443 C4.23822556,40.0252777 3.57969223,39.0396777 3.91262556,37.9396777 L11.0626256,11.5396777 C11.1711589,10.9896777 11.7211589,10.7711443 12.1626256,10.8811443 L23.7126256,13.962611 C24.2626256,14.0652777 24.5882256,14.6152777 24.3711589,15.0567443 Z" id="path-1"></path>
    </defs>
    <g id="Symbols" stroke="none" stroke-width="1" fill="none" fill-rule="evenodd">
        <g id="Icon/Trolley-3">
            <mask id="mask-2" fill="white">
                <use xlink:href="#path-1"></use>
            </mask>
            <use id="trolley-3" fill="IconColor" xlink:href="#path-1"></use>
            <g id="Mixin/Fill/Black" mask="url(#mask-2)" fill="IconColor">
                <rect id="Rectangle" x="0" y="0" width="33" height="52"></rect>
            </g>
        </g>
    </g>
</svg>