<?xml version="1.0" encoding="UTF-8"?>
<svg width="32px" height="86px" viewBox="0 0 32 86" version="1.1" xmlns="http://www.w3.org/2000/svg" xmlns:xlink="http://www.w3.org/1999/xlink">
    <!-- Generator: Sketch 42 (36781) - http://www.bohemiancoding.com/sketch -->
    <title>Icon/Trolley</title>
    <desc>Created with Sketch.</desc>
    <defs>
        <path d="M30.0211589,0 L26.6126256,0 C25.6211589,0 24.8540922,0.767066667 24.8540922,1.75853333 C24.8540922,2.75 25.6211589,3.51706667 26.6126256,3.51706667 L28.2626256,3.51706667 L28.2626256,20.4585333 C26.5040922,18.9170667 24.1940922,17.9256 21.7711589,17.9256 L10.2211589,17.9256 C4.7211589,17.9256 0.321158897,22.4341333 0.321158897,28.0441333 L0.321158897,70.3941333 C0.321158897,76.0026667 4.82969223,80.5112 10.2211589,80.5112 L26.8296922,80.5112 C29.4711589,80.5112 31.6711589,78.3112 31.6711589,75.6697333 L31.6711589,1.75853333 C31.6711589,0.767066667 30.9040922,0 30.0211589,0 Z M28.2626256,75.5670667 C28.2626256,76.3341333 27.6040922,77 26.8296922,77 L10.2211589,77 C6.58822556,77 3.72969223,74.0314667 3.72969223,70.4 L3.72969223,28.05 C3.72969223,24.4170667 6.69822556,21.45 10.2211589,21.45 L21.7711589,21.45 C25.4040922,21.45 28.2626256,24.4170667 28.2626256,28.05 L28.2626256,75.5670667 Z M7.36262556,29.15 C6.3711589,29.15 5.60409223,29.9170667 5.60409223,30.9085333 L5.60409223,66.6585333 C5.60409223,67.65 6.3711589,68.4170667 7.36262556,68.4170667 C8.35409223,68.4170667 9.1211589,67.65 9.1211589,66.6585333 L9.1211589,30.9085333 C9.01262556,29.9170667 8.23822556,29.15 7.36262556,29.15 Z M9.6711589,81.4 L9.33822556,81.4 C8.34822556,81.4 7.4711589,82.1670667 7.24822556,83.1585333 C7.02969223,84.2585333 7.79822556,85.3585333 8.89822556,85.5756 C9.99822556,85.7941333 11.0982256,85.0256 11.3152922,83.8170667 C11.5382256,82.7170667 10.7711589,81.6170667 9.6711589,81.4 Z M26.9382256,81.4 L26.6067589,81.4 C25.6152922,81.4 24.7382256,82.1670667 24.5152922,83.1585333 C24.2982256,84.2585333 25.0652922,85.3585333 26.1652922,85.5756 C27.2652922,85.7941333 28.3652922,85.0256 28.5838256,83.8170667 C28.8126256,82.7170667 28.0382256,81.6170667 26.9382256,81.4 Z" id="path-1"></path>
    </defs>
    <g id="Symbols" stroke="none" stroke-width="1" fill="none" fill-rule="evenodd">
        <g id="Icon/Trolley">
            <mask id="mask-2" fill="white">
                <use xlink:href="#path-1"></use>
            </mask>
            <use id="Trolley" fill="IconColor" xlink:href="#path-1"></use>
            <g id="Mixin/Fill/Black" mask="url(#mask-2)" fill="IconColor">
                <rect id="Rectangle" x="0" y="0" width="33" height="86"></rect>
            </g>
        </g>
    </g>
</svg>