<?xml version="1.0" encoding="UTF-8"?>
<svg width="24px" height="38px" viewBox="0 0 24 38" version="1.1" xmlns="http://www.w3.org/2000/svg" xmlns:xlink="http://www.w3.org/1999/xlink">
    <!-- Generator: Sketch 42 (36781) - http://www.bohemiancoding.com/sketch -->
    <title>Icon/Building</title>
    <desc>Created with Sketch.</desc>
    <defs>
        <path d="M11.3442832,35.7317375 L4.57999496,35.7317375 C4.27291335,35.7317375 4.02304636,35.4828724 4.02304636,35.1770221 L4.02304636,12.0788692 C4.02304636,11.7730189 4.27291335,11.5241538 4.57999496,11.5241538 C4.88752356,11.5241538 5.13694356,11.7730189 5.13694356,12.0788692 L5.13694356,34.620526 L11.3442832,34.620526 C11.6535998,34.620526 11.9030198,34.8689458 11.9030198,35.1752413 C11.9030198,35.4828724 11.6535998,35.7317375 11.3442832,35.7317375 Z M9.8607557,18.0184036 L7.1926769,18.0184036 C6.88559528,18.0184036 6.63394034,17.7695385 6.63394034,17.4636882 L6.63394034,13.710678 C6.63394034,13.4043825 6.88380733,13.1559626 7.1926769,13.1559626 L9.8607557,13.1559626 C10.1678373,13.1559626 10.4177043,13.4043825 10.4177043,13.710678 L10.4177043,17.4636882 C10.4177043,17.7695385 10.1678373,18.0184036 9.8607557,18.0184036 Z M7.75141345,16.907192 L9.30201914,16.907192 L9.30201914,14.2653933 L7.75141345,14.2653933 L7.75141345,16.907192 Z M16.0598409,25.5265045 L13.3922091,25.5265045 C13.0846805,25.5265045 12.8348135,25.2776394 12.8348135,24.9717891 L12.8348135,21.2187789 C12.8348135,20.9129286 13.0846805,20.6622828 13.3922091,20.6622828 L16.0598409,20.6622828 C16.3673695,20.6622828 16.6167895,20.9111478 16.6167895,21.2187789 L16.6167895,24.9717891 C16.6167895,25.2776394 16.3673695,25.5265045 16.0598409,25.5265045 Z M13.9491577,24.415293 L15.5011044,24.415293 L15.5011044,21.7734943 L13.9491577,21.7734943 L13.9491577,24.415293 Z M16.0598409,18.0184036 L13.3922091,18.0184036 C13.0846805,18.0184036 12.8348135,17.7695385 12.8348135,17.4636882 L12.8348135,13.710678 C12.8348135,13.4043825 13.0846805,13.1559626 13.3922091,13.1559626 L16.0598409,13.1559626 C16.3673695,13.1559626 16.6167895,13.4043825 16.6167895,13.710678 L16.6167895,17.4636882 C16.6167895,17.7695385 16.3673695,18.0184036 16.0598409,18.0184036 Z M13.9491577,16.907192 L15.5011044,16.907192 L15.5011044,14.2653933 L13.9491577,14.2653933 L13.9491577,16.907192 Z M18.9414508,10.800488 L4.25517218,10.800488 C4.01960884,10.800488 3.80997089,10.6526826 3.72951282,10.4318649 C3.64950175,10.2110472 3.71923207,9.9639629 3.9007097,9.81615752 L11.244743,3.81801913 C11.450805,3.64928949 11.7458179,3.64928949 11.95188,3.81801913 L19.2941253,9.81437673 C19.4756029,9.9639629 19.5453333,10.2110472 19.4648752,10.4300841 C19.3866521,10.6526826 19.1770141,10.800488 18.9414508,10.800488 Z M5.81605862,9.6874956 L17.3801174,9.6874956 L11.5974175,4.96573684 L5.81605862,9.6874956 Z M19.2464273,35.7317375 L16.058053,35.7317375 C15.7509714,35.7317375 15.5011044,35.4828724 15.5011044,35.1770221 L15.5011044,29.3720992 L13.9491577,29.3720992 L13.9491577,35.1752413 C13.9491577,35.4815368 13.6992907,35.7299567 13.3922091,35.7299567 C13.0846805,35.7299567 12.8348135,35.4815368 12.8348135,35.1752413 L12.8348135,28.8173838 C12.8348135,28.5110883 13.0846805,28.2626684 13.3922091,28.2626684 L16.0598409,28.2626684 C16.3673695,28.2626684 16.6167895,28.5110883 16.6167895,28.8173838 L16.6167895,34.620526 L18.6894787,34.620526 L18.6894787,12.0788692 C18.6894787,11.7730189 18.9393457,11.5241538 19.2464273,11.5241538 C19.5539559,11.5241538 19.8033759,11.7730189 19.8033759,12.0788692 L19.8033759,35.1752413 C19.8051638,35.4828724 19.5557438,35.7317375 19.2464273,35.7317375 Z M9.8607557,33.0310439 L7.1926769,33.0310439 C6.88559528,33.0310439 6.63394034,32.782624 6.63394034,32.4745478 L6.63394034,28.7237635 C6.63394034,28.417468 6.88380733,28.1686029 7.1926769,28.1686029 L9.8607557,28.1686029 C10.1678373,28.1686029 10.4177043,28.417468 10.4177043,28.7237635 L10.4177043,32.4763285 C10.4177043,32.782624 10.1678373,33.0310439 9.8607557,33.0310439 Z M7.75141345,31.9198324 L9.30201914,31.9198324 L9.30201914,29.2784789 L7.75141345,29.2784789 L7.75141345,31.9198324 Z M9.8607557,25.5265045 L7.1926769,25.5265045 C6.88559528,25.5265045 6.63394034,25.2776394 6.63394034,24.9717891 L6.63394034,21.2187789 C6.63394034,20.9129286 6.88380733,20.6622828 7.1926769,20.6622828 L9.8607557,20.6622828 C10.1678373,20.6622828 10.4177043,20.9111478 10.4177043,21.2187789 L10.4177043,24.9717891 C10.4177043,25.2776394 10.1678373,25.5265045 9.8607557,25.5265045 Z M7.75141345,24.415293 L9.30201914,24.415293 L9.30201914,21.7734943 L7.75141345,21.7734943 L7.75141345,24.415293 Z" id="path-1"></path>
    </defs>
    <g id="Symbols" stroke="none" stroke-width="1" fill="none" fill-rule="evenodd">
        <g id="Icon/Building">
            <rect id="Bounding-Box" x="-6" y="3" width="35" height="35"></rect>
            <mask id="mask-2" fill="white">
                <use xlink:href="#path-1"></use>
            </mask>
            <use id="Combined-Shape" fill="#000000" xlink:href="#path-1"></use>
            <g id="Mixin/Fill/Black" mask="url(#mask-2)" fill="IconColor">
                <g transform="translate(0.000000, 2.000000)" id="Rectangle">
                    <rect x="0" y="0" width="24" height="36"></rect>
                </g>
            </g>
        </g>
    </g>
</svg>