<?xml version="1.0" encoding="UTF-8"?>
<svg width="24px" height="24px" viewBox="0 0 24 24" version="1.1" xmlns="http://www.w3.org/2000/svg" xmlns:xlink="http://www.w3.org/1999/xlink">
    <!-- Generator: Sketch 42 (36781) - http://www.bohemiancoding.com/sketch -->
    <title>Icon/Camera</title>
    <desc>Created with Sketch.</desc>
    <defs>
        <path d="M9.586,2.77272727 C9.14066667,2.80539394 8.92066667,3.07739394 8.78133333,3.42106061 C8.54033333,4.21139394 8.31,5.07606061 8.11733333,5.77272727 L6.25,5.77272727 C6.254,5.50572727 6.25,5.21939394 6.24233333,4.96006061 C6.12633333,4.51106061 5.784,4.34172727 5.414,4.27272727 L3.586,4.27272727 C3.12233333,4.30539394 2.892,4.61272727 2.75766667,4.96006061 C2.73833333,5.24272727 2.75,5.53839394 2.75,5.82739394 C1.75133333,6.05006061 1,6.95372727 1,8.02272727 L1,19.5227273 C1,20.7570606 1.99733333,21.7727273 3.22666667,21.7727273 L20.7733333,21.7727273 C22.0026667,21.7727273 23,20.7570606 23,19.5227273 L23,8.02272727 C23,6.78839394 22.0026667,5.77272727 20.7733333,5.77272727 L15.8826667,5.77272727 C15.6653333,4.95106061 15.418,4.10339394 15.2186667,3.42106061 C15.0963333,2.99272727 14.7696667,2.83906061 14.414,2.77272727 L9.586,2.77272727 Z M9.711,3.77272727 L14.289,3.77272727 L14.8436667,5.77272727 L9.15633333,5.77272727 L9.711,3.77272727 Z M3.75,5.27272727 L5.25,5.27272727 L5.25,5.77272727 L3.75,5.77272727 L3.75,5.27272727 Z M3.164,6.77272727 C9.28633333,6.77939394 15.5286667,6.77272727 20.7733333,6.77272727 C21.4596667,6.77272727 22,7.31839394 22,8.02272727 L22,19.5227273 C22,20.2270606 21.4596667,20.7727273 20.7733333,20.7727273 L3.22666667,20.7727273 C2.54033333,20.7727273 2,20.2270606 2,19.5227273 L2,8.02272727 C2,7.34039394 2.50766667,6.80539394 3.164,6.77272727 Z M11.9296667,7.53039394 C9.92333333,7.55539394 7.965,8.54339394 6.78133333,10.3430606 C6.59766667,10.5577273 6.64966667,10.9303939 6.88533333,11.0853939 C7.121,11.2413939 7.48433333,11.1423939 7.60933333,10.8900606 C9.20566667,8.46272727 12.4636667,7.79339394 14.8906667,9.39006061 C16.7826667,10.6347273 17.6563333,12.9447273 17.0703333,15.1320606 C16.9923333,15.4043939 17.1966667,15.7233939 17.4766667,15.7650606 C17.7186667,15.8040606 17.9766667,15.6347273 18.039,15.3977273 C18.7356667,12.7973939 17.6863333,10.0410606 15.4373333,8.56172727 C14.358,7.85206061 13.1326667,7.51606061 11.9296667,7.53039394 Z M12,9.52272727 C9.659,9.52272727 7.75,11.4317273 7.75,13.7727273 C7.75,16.1137273 9.659,18.0227273 12,18.0227273 C14.341,18.0227273 16.25,16.1137273 16.25,13.7727273 C16.25,11.4317273 14.341,9.52272727 12,9.52272727 Z M12,10.5227273 C13.8006667,10.5227273 15.25,11.9720606 15.25,13.7727273 C15.25,15.5733939 13.8006667,17.0227273 12,17.0227273 C10.1993333,17.0227273 8.75,15.5733939 8.75,13.7727273 C8.75,11.9720606 10.1993333,10.5227273 12,10.5227273 Z M5.961,12.1553939 C5.254,14.7933939 6.34233333,17.5917273 8.64833333,19.0540606 C11.5586667,20.8990606 15.4363333,20.0343939 17.2813333,17.1243939 C17.4453333,16.9043939 17.379,16.5487273 17.147,16.4017273 C16.914,16.2543939 16.565,16.3493939 16.4373333,16.5930606 C14.8816667,19.0460606 11.6406667,19.7660606 9.18733333,18.2100606 C7.24733333,16.9797273 6.33466667,14.6400606 6.92966667,12.4210606 C7.00766667,12.1490606 6.80333333,11.8300606 6.52333333,11.7883939 C6.23566667,11.7660606 6,12.0280606 5.961,12.1553939 Z" id="path-1"></path>
    </defs>
    <g id="Symbols" stroke="none" stroke-width="1" fill="none" fill-rule="evenodd">
        <g id="Icon/Camera">
            <rect id="Bounding-Box" x="0" y="0" width="24" height="24"></rect>
            <mask id="mask-2" fill="white">
                <use xlink:href="#path-1"></use>
            </mask>
            <use id="Page-1" fill="#000000" xlink:href="#path-1"></use>
            <g id="Mixin/Fill/Black" mask="url(#mask-2)" fill="IconColor">
                <rect id="Rectangle" x="0" y="0" width="24" height="24"></rect>
            </g>
        </g>
    </g>
</svg>