<?xml version="1.0" encoding="UTF-8"?>
<svg width="24px" height="24px" viewBox="0 0 24 24" version="1.1" xmlns="http://www.w3.org/2000/svg" xmlns:xlink="http://www.w3.org/1999/xlink">
    <!-- Generator: Sketch 42 (36781) - http://www.bohemiancoding.com/sketch -->
    <title>Icon/Computer</title>
    <desc>Created with Sketch.</desc>
    <defs>
        <path d="M14.3981837,17.2543418 L14.3981837,17.9577855 L9.45989275,17.9577855 L9.45989275,17.2543418 L1,17.2543418 L1,19.159087 L2.61789831,20.7718533 L21.2401781,20.7718533 L22.8580764,19.159087 L22.8580764,17.2543418 L14.3981837,17.2543418 Z M22.1525224,18.8674009 L20.947617,20.0684096 L2.91045944,20.0684096 L1.70555406,18.8674009 L1.70555406,17.9577855 L8.75756979,17.9577855 L8.75756979,18.6612292 L15.1040315,18.6612292 L15.1040315,17.9577855 L22.1557535,17.9577855 L22.1557535,18.8674009 L22.1525224,18.8674009 Z M21.7991579,3.90062531 L2.05891856,3.90062531 L2.05891856,16.5552909 L21.8000391,16.5552909 L21.8000391,3.90062531 L21.7991579,3.90062531 Z M21.094485,15.8471615 L2.76359141,15.8471615 L2.76359141,4.59967618 L21.094485,4.59967618 L21.094485,15.8471615 Z M20.387756,5.3031199 L3.46591437,5.3031199 L3.46591437,15.1437178 L20.388931,15.1437178 L20.388931,5.3031199 L20.387756,5.3031199 Z M19.6830832,14.4446669 L4.17146842,14.4446669 L4.17146842,6.00685648 L19.6830832,6.00685648 L19.6830832,14.4446669 Z M16.864098,19.364673 L20.0355665,19.364673 L20.0355665,18.6612292 L16.864098,18.6612292 L16.864098,19.364673 Z" id="path-1"></path>
    </defs>
    <g id="Symbols" stroke="none" stroke-width="1" fill="none" fill-rule="evenodd">
        <g id="Icon/Computer">
            <rect id="Bounding-Box" x="0" y="0" width="24" height="24"></rect>
            <mask id="mask-2" fill="white">
                <use xlink:href="#path-1"></use>
            </mask>
            <use id="Combined-Shape" fill="IconColor" xlink:href="#path-1"></use>
            <g id="Mixin/Fill/Black" mask="url(#mask-2)" fill="IconColor">
                <rect id="Rectangle" x="0" y="0" width="24" height="24"></rect>
            </g>
            <g id="Page-1" mask="url(#mask-2)">
                <g transform="translate(-13.000000, -8.000000)"></g>
            </g>
        </g>
    </g>
</svg>