<?xml version="1.0" encoding="UTF-8"?>
<svg width="24px" height="24px" viewBox="0 0 24 24" version="1.1" xmlns="http://www.w3.org/2000/svg" xmlns:xlink="http://www.w3.org/1999/xlink">
    <!-- Generator: Sketch 42 (36781) - http://www.bohemiancoding.com/sketch -->
    <title>Icon/Instruments</title>
    <desc>Created with Sketch.</desc>
    <defs>
        <path d="M22.9552443,8.66635333 L22.1896644,8.66635333 L17.188404,3.99972938 L20.2549904,2.92602795 C20.5027676,2.838864 20.6335136,2.56761953 20.5478734,2.3186232 C20.4610143,2.06993164 20.189465,1.94010002 19.9407735,2.02695921 L16.1381698,3.3591048 L16.1369507,3.3591048 L0.892706787,8.69378254 C0.889049559,8.69500162 0.88539233,8.6962207 0.88203987,8.69865885 C0.87228726,8.70231608 0.862839419,8.70566854 0.854610654,8.70932577 C0.848515273,8.71176392 0.84272466,8.71542115 0.836629279,8.71755453 C0.829619591,8.72243083 0.821086057,8.72608806 0.814076368,8.7306596 C0.80706668,8.73431683 0.800971298,8.73797406 0.79396161,8.74254559 C0.787866228,8.7474219 0.782075616,8.74986005 0.775980235,8.75473636 C0.768970546,8.75930789 0.761656089,8.76540327 0.7546464,8.76997481 C0.749770095,8.77363204 0.743979483,8.77728927 0.740322254,8.7818608 C0.733007796,8.78795618 0.727217184,8.7937468 0.719902727,8.79984218 C0.715331191,8.80471848 0.710454885,8.80929002 0.707102426,8.81294725 C0.701007044,8.81995694 0.694911663,8.82605232 0.689121051,8.83184293 C0.684244746,8.83793831 0.680892286,8.84281462 0.676015981,8.84738615 C0.671139676,8.85348153 0.66656814,8.86049122 0.661691835,8.8665866 C0.65681553,8.87237722 0.652243994,8.87969167 0.648586765,8.88548229 C0.644929536,8.89157767 0.641577076,8.89736828 0.637919848,8.90346366 C0.633043543,8.91047335 0.629691083,8.91900688 0.624814778,8.92601657 C0.622376625,8.93211195 0.618719396,8.93668349 0.616586013,8.94399795 C0.612928784,8.95100764 0.609271555,8.9592364 0.605614327,8.96776993 C0.603480943,8.97356055 0.601042791,8.97965593 0.598604638,8.98544654 C0.596166485,8.99398007 0.593728333,9.00220884 0.591594949,9.0104376 C0.589156797,9.01775206 0.587937721,9.02476175 0.585499568,9.03207621 C0.584280492,9.0390859 0.581842339,9.04731466 0.580623263,9.05462912 C0.579708956,9.06285788 0.57848988,9.07139142 0.577270803,9.07962018 C0.576051727,9.08662987 0.576051727,9.09272525 0.574832651,9.09851586 C0.573613574,9.10948755 0.573613574,9.11893539 0.573613574,9.12838323 C0.573613574,9.13325954 0.572394498,9.13569769 0.572394498,9.13905015 L0.572394498,14.8571274 C0.572394498,15.1201431 0.785428076,15.3334814 1.04874855,15.3334814 L1.52479783,15.3334814 L1.52479783,21.5239507 C1.52479783,21.7869664 1.73783141,22 2.00115188,22 L3.4296045,22 C3.6926202,22 3.90595855,21.7869664 3.90595855,21.5239507 L3.90595855,15.3334814 L9.62037855,15.3334814 L9.62037855,21.5239507 C9.62037855,21.7869664 9.83341213,22 10.0964278,22 L13.9048221,22 C14.1678378,22 14.3823952,21.7869664 14.3823952,21.5239507 L14.3823952,15.3334814 L20.0968152,15.3334814 L20.0968152,21.5239507 C20.0968152,21.7869664 20.3098488,22 20.5728645,22 L22.0016219,22 C22.2646376,22 22.4776712,21.7869664 22.4776712,21.5239507 L22.4776712,15.3334814 L22.9552443,15.3334814 C23.2170409,15.3334814 23.4312936,15.1201431 23.4312936,14.8571274 L23.4312936,9.14270738 C23.4312936,8.87969167 23.2170409,8.66635333 22.9552443,8.66635333 Z M2.95446952,19.6191441 L2.47842024,19.6191441 L2.47842024,15.3334814 L2.95446952,15.3334814 L2.95446952,19.6191441 Z M2.47842024,21.0479014 L2.47842024,20.5715474 L2.95446952,20.5715474 L2.95446952,21.0479014 L2.47842024,21.0479014 Z M21.5264869,19.6191441 L21.0492186,19.6191441 L21.0492186,15.3334814 L21.5264869,15.3334814 L21.5264869,19.6191441 Z M21.0492186,21.0479014 L21.0492186,20.5715474 L21.5264869,20.5715474 L21.5264869,21.0479014 L21.0492186,21.0479014 Z M19.6204612,12.9523207 L2.95446952,12.9523207 L2.95446952,12.4759667 L3.90717763,12.4759667 C3.90717763,12.7392871 4.12021121,12.9523207 4.38322691,12.9523207 C4.64624261,12.9523207 4.85927619,12.7392871 4.85927619,12.4759667 L5.81198429,12.4759667 C5.81198429,12.7392871 6.02501787,12.9523207 6.28803358,12.9523207 C6.55104928,12.9523207 6.76408286,12.7392871 6.76408286,12.4759667 L7.71679096,12.4759667 C7.71679096,12.7392871 7.92982454,12.9523207 8.19284024,12.9523207 C8.45585595,12.9523207 8.66888953,12.7392871 8.66888953,12.4759667 L9.62159763,12.4759667 C9.62159763,12.7392871 9.83463121,12.9523207 10.0976469,12.9523207 C10.3606626,12.9523207 10.5736962,12.7392871 10.5736962,12.4759667 L11.5264043,12.4759667 C11.5264043,12.7392871 11.7394379,12.9523207 12.0024536,12.9523207 C12.2654693,12.9523207 12.4785029,12.7392871 12.4785029,12.4759667 L13.431211,12.4759667 C13.431211,12.7392871 13.6442445,12.9523207 13.9072602,12.9523207 C14.170276,12.9523207 14.3845286,12.7392871 14.3845286,12.4759667 L15.3360176,12.4759667 C15.3360176,12.7392871 15.5490512,12.9523207 15.813286,12.9523207 C16.0750826,12.9523207 16.2893353,12.7392871 16.2893353,12.4759667 L17.2417386,12.4759667 C17.2417386,12.7392871 17.455077,12.9523207 17.7180927,12.9523207 C17.9811084,12.9523207 18.1941419,12.7392871 18.1941419,12.4759667 L19.1465453,12.4759667 C19.145631,12.7392871 19.3586645,12.9523207 19.6204612,12.9523207 C19.8834769,12.9523207 20.0977295,12.7392871 20.0977295,12.4759667 L21.0492186,12.4759667 L21.0492186,12.9523207 L19.6204612,12.9523207 Z M1.52601691,12.9523207 L1.52601691,12.4759667 L2.00237096,12.4759667 L2.00237096,12.9523207 L1.52601691,12.9523207 Z M13.431211,10.57116 L12.4785029,10.57116 L12.4785029,8.66635333 L13.431211,8.66635333 L13.431211,10.57116 Z M11.5264043,10.57116 L10.5736962,10.57116 L10.5736962,8.66635333 L11.5264043,8.66635333 L11.5264043,10.57116 Z M10.0964278,11.5238681 L1.52601691,11.5238681 L1.52601691,9.61906143 L9.62159763,9.61906143 L9.62159763,11.047514 C9.62159763,11.3105298 9.83463121,11.5238681 10.0964278,11.5238681 Z M22.0025362,12.4759667 L22.4788903,12.4759667 L22.4788903,12.9523207 L22.0025362,12.9523207 L22.0025362,12.4759667 Z M22.4776712,11.5238681 L13.9084793,11.5238681 C14.170276,11.5238681 14.3845286,11.3105298 14.3845286,11.047514 L14.3845286,9.61906143 L22.4788903,9.61906143 L22.4788903,11.5238681 L22.4776712,11.5238681 Z M20.7944316,8.66635333 L14.3833095,8.66635333 L14.3833095,8.19030404 C14.3833095,7.92728834 14.170276,7.71425476 13.9060412,7.71425476 L10.0976469,7.71425476 C9.83463121,7.71425476 9.62159763,7.92728834 9.62159763,8.19030404 L9.62159763,8.66635333 L3.8523192,8.66635333 L16.1741326,4.35448057 L20.7944316,8.66635333 Z M13.431211,21.0479014 L10.5736962,21.0479014 L10.5736962,20.5715474 C10.5736962,20.8345631 10.7870345,21.0479014 11.0500502,21.0479014 C11.313066,21.0479014 11.5264043,20.8345631 11.5264043,20.5715474 L12.4785029,20.5715474 C12.4785029,20.8345631 12.6918412,21.0479014 12.9548569,21.0479014 C13.2166535,21.0479014 13.431211,20.8345631 13.431211,20.5715474 L13.431211,21.0479014 Z M13.431211,19.6191441 L10.5736962,19.6191441 L10.5736962,15.3334814 L13.431211,15.3334814 L13.431211,19.6191441 Z M1.52601691,14.3807733 L1.52601691,13.904724 L22.4776712,13.904724 L22.4776712,14.3807733 L1.52601691,14.3807733 Z" id="path-1"></path>
    </defs>
    <g id="Symbols" stroke="none" stroke-width="1" fill="none" fill-rule="evenodd">
        <g id="Icon/Instruments">
            <rect id="Bounding-Box" x="0" y="0" width="24" height="24"></rect>
            <mask id="mask-2" fill="white">
                <use xlink:href="#path-1"></use>
            </mask>
            <use id="Page-1" fill="IconColor" xlink:href="#path-1"></use>
            <g id="Mixin/Fill/Black" mask="url(#mask-2)" fill="IconColor">
                <rect id="Rectangle" x="0" y="0" width="24" height="24"></rect>
            </g>
        </g>
    </g>
</svg>