<?xml version="1.0" encoding="UTF-8"?>
<svg width="24px" height="24px" viewBox="0 0 24 24" version="1.1" xmlns="http://www.w3.org/2000/svg" xmlns:xlink="http://www.w3.org/1999/xlink">
    <!-- Generator: Sketch 42 (36781) - http://www.bohemiancoding.com/sketch -->
    <title>Icon/Jewelry</title>
    <desc>Created with Sketch.</desc>
    <defs>
        <path d="M11.0839932,17.1465246 C11.0259628,17.1986339 10.9877038,17.2785583 11.0067049,17.3845374 L11.0259628,18.2827187 C11.0259628,18.4147524 11.1222521,18.5467861 11.2185415,18.5467861 L11.2185415,18.5467861 C11.3338319,18.5467861 11.4111201,18.4147524 11.4111201,18.2827187 L11.3918623,17.5165711 L11.9115679,17.0405455 C12.0078572,16.9609732 12.0268583,16.8025328 11.9695982,16.6704991 C11.9115679,16.5384653 11.7962774,16.5124107 11.6999881,16.5909267 L11.0839932,17.1465246 Z M11.4322373,13.5562742 L8.60627001,15.4091727 L8.60627001,15.4091727 L8.60627001,15.4091727 C8.57946299,15.4360473 8.55265597,15.4360473 8.55265597,15.462922 L8.55265597,15.462922 L8.55265597,15.462922 C8.52548669,15.4897966 8.52548669,15.5166713 8.52548669,15.5453618 L8.52548669,15.5722364 L8.52548669,15.5991111 L8.63452606,19.6847849 L8.63452606,19.7116595 L8.63452606,19.7385342 C8.63452606,19.765772 8.66133308,19.7926467 8.66133308,19.820974 L8.66133308,19.820974 L8.66133308,19.820974 C8.68850236,19.8478486 8.71530938,19.8747233 8.74356543,19.9034138 L12.1382763,21.9731253 L12.1650833,21.9731253 L12.1918903,21.9731253 C12.2190596,21.9731253 12.2458666,22 12.2741227,22 L12.2741227,22 L12.2741227,22 L12.2741227,22 C12.3009297,22 12.3277367,22 12.356355,21.9731253 L12.383162,21.9731253 L12.4099691,21.9731253 L15.6970895,19.7940993 C15.6970895,19.7940993 15.6970895,19.7940993 15.7238966,19.7672247 L15.7510659,19.7399869 L15.7778729,19.7131122 C15.7778729,19.7131122 15.7778729,19.7131122 15.8046799,19.6862375 L15.8046799,19.6862375 C15.8314869,19.6593629 15.8314869,19.6321251 15.8314869,19.6037977 L15.8314869,19.5769231 L15.8314869,19.5500484 L15.7228098,15.4643747 L15.7228098,15.4375 L15.7228098,15.4102622 C15.7228098,15.3833875 15.6956405,15.3565129 15.6956405,15.3281855 L15.6956405,15.3281855 L15.6956405,15.3281855 C15.6688335,15.3013109 15.6688335,15.274073 15.6420265,15.274073 L15.6420265,15.274073 L15.6420265,15.274073 L12.6802128,13.5577269 C21.1566656,9.74443138 22,1.43689471 22,1.3544549 C22,1.21826577 21.8909606,1.08207665 21.7551142,1.05520199 C21.5924608,1.05520199 21.4834214,1.16451646 21.4566144,1.30070559 C21.4566144,1.38278224 20.6143668,9.66199156 12.0009808,13.258474 C3.39049297,9.60678957 2.5467963,1.32612756 2.5467963,1.2455036 C2.5467963,1.10931447 2.4109499,1 2.24829649,1 C2.11245009,1 1.9766037,1.13618913 2.00341072,1.29925291 C2.00341072,1.38169272 2.84710739,9.76985335 11.4322373,13.5562742 Z M13.6862007,16.6617494 L13.740177,18.4590827 L12.2190596,19.4124066 L10.6425169,18.5683972 L10.5889029,16.7710639 L12.1100202,15.81774 L13.6862007,16.6617494 Z M11.8397765,15.3267328 L10.3186591,16.2531821 L9.25869496,15.6259857 L11.7858002,13.9379669 L11.8397765,15.3267328 Z M9.04061622,16.1438676 L10.0455173,16.7710639 L10.0991313,18.5683972 L9.12139954,19.2493428 L9.04061622,16.1438676 Z M10.3990802,19.0307139 L11.9756229,19.8747233 L12.0024299,21.2638524 L9.36773433,19.7385342 L10.3990802,19.0307139 Z M12.4922014,19.8478486 L14.0133188,18.9213994 L15.0732829,19.5485957 L12.5458155,21.2366146 L12.4922014,19.8478486 Z M15.2895504,19.0575885 L14.2850116,18.4307554 L14.2310353,16.6334221 L15.2091293,15.9524765 L15.2895504,19.0575885 Z M13.9310864,16.1707423 L12.383162,15.3267328 L12.356355,13.9379669 L14.9910506,15.462922 L13.9310864,16.1707423 Z" id="path-1"></path>
    </defs>
    <g id="Symbols" stroke="none" stroke-width="1" fill="none" fill-rule="evenodd">
        <g id="Icon/Jewelry">
            <rect id="Bounding-Box" x="0" y="0" width="24" height="24"></rect>
            <mask id="mask-2" fill="white">
                <use xlink:href="#path-1"></use>
            </mask>
            <use id="Combined-Shape" fill="IconColor" xlink:href="#path-1"></use>
            <g id="Mixin/Fill/Black" mask="url(#mask-2)" fill="IconColor">
                <rect id="Rectangle" x="0" y="0" width="24" height="24"></rect>
            </g>
        </g>
    </g>
</svg>