<?xml version="1.0" encoding="UTF-8"?>
<svg width="24px" height="24px" viewBox="0 0 24 24" version="1.1" xmlns="http://www.w3.org/2000/svg" xmlns:xlink="http://www.w3.org/1999/xlink">
    <!-- Generator: Sketch 42 (36781) - http://www.bohemiancoding.com/sketch -->
    <title>Icon/Small home</title>
    <desc>Created with Sketch.</desc>
    <defs>
        <path d="M6.41122268,16 L3.59066745,16 C3.26603662,16 3,15.7445523 3,15.4277605 L3,11.5708661 C3,11.2559055 3.26414649,11 3.59066745,11 L6.41122268,11 C6.73585351,11 7,11.2559055 7,11.5708661 L7,15.4295916 C7,15.7445523 6.73585351,16 6.41122268,16 Z M4.18133491,14.8573521 L5.82055523,14.8573521 L5.82055523,12.1412745 L4.18133491,12.1412745 L4.18133491,14.8573521 Z M2.61138371,4 C2.27428852,4 2,3.76917518 2,3.48549603 L2,0.514503974 C2,0.230411892 2.27428852,0 2.61138371,0 L5.38665358,0 C5.72620216,0 6,0.230411892 6,0.514503974 L6,1.41591824 C6,1.70001032 5.72620216,1.93042222 5.38665358,1.93042222 C5.04955839,1.93042222 4.77526987,1.70001032 4.77526987,1.41591824 L4.77526987,1.03065965 L3.22473013,1.03065965 L3.22473013,3.48384433 C3.22276742,3.76752349 2.94896958,4 2.61138371,4 Z M15.4364707,9 L0.565510599,9 C0.326985034,9 0.114710859,8.8544612 0.033241027,8.63702973 C-0.0477761952,8.41959827 0.0228309929,8.17630298 0.206590726,8.03076417 L7.64297599,2.12460664 C7.85162928,1.95846445 8.150352,1.95846445 8.35900529,2.12460664 L15.7935801,8.02901069 C15.9773398,8.17630298 16.047947,8.41959827 15.9664772,8.63527625 C15.8872704,8.8544612 15.6749962,9 15.4364707,9 Z M2.14602535,7.90407527 L13.8555033,7.90407527 L8.00008542,3.25472422 L2.14602535,7.90407527 Z M7.43275285,21 L0.565431959,21 C0.253672925,21 0,20.7436806 0,20.4286691 L0.190897574,9.57133089 C0.190897574,9.2563194 0.444570499,9 0.756329533,9 C1.06854236,9 1.32176149,9.2563194 1.32176149,9.57133089 L1.13086392,19.8555041 L7.43275285,19.8555041 C7.74678087,19.8555041 8,20.111365 8,20.426835 C8,20.7436806 7.74678087,21 7.43275285,21 Z M15.44053,21 L12.2377762,21 C11.9293096,21 11.6783158,20.7582693 11.6783158,20.4611871 L11.6783158,14.8226786 L10.1193699,14.8226786 L10.1193699,20.4594574 C10.1193699,20.756972 9.86837597,20.9982703 9.55990943,20.9982703 C9.25099388,20.9982703 9,20.756972 9,20.4594574 L9,14.2838657 C9,13.986351 9.25099388,13.7450528 9.55990943,13.7450528 L12.2395722,13.7450528 C12.5484878,13.7450528 12.7990326,13.986351 12.7990326,14.2838657 L12.7990326,19.9206444 L14.8810696,19.9206444 L14.7668127,10.5388129 C14.7668127,10.2417307 15.0178066,10 15.3262731,10 C15.6351887,10 15.8857336,10.2417307 15.8857336,10.5388129 L15.9999904,20.4594574 C16.0017864,20.7582693 15.7512415,21 15.44053,21 Z" id="path-1"></path>
    </defs>
    <g id="Symbols" stroke="none" stroke-width="1" fill="none" fill-rule="evenodd">
        <g id="Icon/Small-home">
            <rect id="Bounding-Box" x="0" y="0" width="24" height="24"></rect>
            <g id="small-home" transform="translate(4.000000, 1.000000)">
                <mask id="mask-2" fill="white">
                    <use xlink:href="#path-1"></use>
                </mask>
                <use id="Combined-Shape" fill="#000000" xlink:href="#path-1"></use>
                <g id="Mixin/Fill/Black" mask="url(#mask-2)" fill="IconColor">
                    <g transform="translate(-4.000000, -1.000000)" id="Rectangle">
                        <rect x="0" y="0" width="24" height="24"></rect>
                    </g>
                </g>
            </g>
        </g>
    </g>
</svg>