<?xml version="1.0" encoding="UTF-8"?>
<svg width="24px" height="24px" viewBox="0 0 24 24" version="1.1" xmlns="http://www.w3.org/2000/svg" xmlns:xlink="http://www.w3.org/1999/xlink">
    <!-- Generator: Sketch 42 (36781) - http://www.bohemiancoding.com/sketch -->
    <title>Icon/Accidents</title>
    <desc>Created with Sketch.</desc>
    <defs>
        <path d="M7.59868748,6.47503013 L7.59868748,4.94136763 C7.59868748,3.9179789 8.36637109,3.152 9.38748688,3.152 L14.3311193,3.152 C15.3539397,3.152 16.1199186,3.92025184 16.1199186,4.94136763 L16.1199186,6.47503013 L20.2106324,6.47503013 C21.2340211,6.47503013 22,7.24328196 22,8.26382952 L22,19.8552269 C21.9153332,20.8808885 21.1499225,21.6462992 20.1265338,21.6462992 L3.58979939,21.6462992 C2.56641067,21.6462992 1.801,20.8786156 1.801,19.8574998 L1.801,8.26382952 C1.801,7.24100903 2.5686836,6.47503013 3.58979939,6.47503013 L7.59868748,6.47503013 Z M9.3033883,6.47503013 L14.4152178,6.47503013 L14.4152178,4.94136763 C14.4152178,4.85670082 14.4152178,4.85670082 14.3311193,4.85670082 L9.38748688,4.85670082 C9.3033883,4.85670082 9.3033883,4.85670082 9.3033883,4.94136763 L9.3033883,6.47503013 Z M12.9656539,10.7367822 L10.7506793,10.7367822 L10.7506793,12.9517568 L8.53286353,12.9517568 L8.53286353,15.2536711 L10.7506793,15.2536711 L10.7506793,17.3845471 L12.9656539,17.3845471 L12.9656539,15.2536711 L15.1834697,15.2536711 L15.1834697,12.9517568 L12.9656539,12.9517568 L12.9656539,10.7367822 Z M3.58979939,8.17973095 C3.50570082,8.17973095 3.50570082,8.17973095 3.50570082,8.26382952 L3.50570082,19.8552269 C3.50570082,19.9393254 3.50570082,19.9393254 3.58979939,19.9393254 L20.2106324,19.9393254 C20.2952992,19.9393254 20.2952992,19.9393254 20.2952992,19.8552269 L20.2952992,8.26382952 C20.2952992,8.17973095 20.2952992,8.17973095 20.2106324,8.17973095 L3.58979939,8.17973095 Z" id="path-1"></path>
    </defs>
    <g id="Symbols" stroke="none" stroke-width="1" fill="none" fill-rule="evenodd">
        <g id="Icon/Accidents">
            <rect id="Bounding-Box" x="0" y="0" width="24" height="24"></rect>
            <mask id="mask-2" fill="white">
                <use xlink:href="#path-1"></use>
            </mask>
            <use id="Combined-Shape" fill="IconColor" xlink:href="#path-1"></use>
            <g id="Mixin/Fill/Black" mask="url(#mask-2)" fill="IconColor">
                <rect id="Rectangle" x="0" y="0" width="24" height="24"></rect>
            </g>
            <g id="Fill-745-+-Fill-746-+-Fill-747" mask="url(#mask-2)">
                <g transform="translate(2.000000, 2.000000)"></g>
            </g>
        </g>
    </g>
</svg>