<?xml version="1.0" encoding="UTF-8"?>
<svg width="24px" height="24px" viewBox="0 0 24 24" version="1.1" xmlns="http://www.w3.org/2000/svg" xmlns:xlink="http://www.w3.org/1999/xlink">
    <!-- Generator: Sketch 42 (36781) - http://www.bohemiancoding.com/sketch -->
    <title>Icon/Car 2</title>
    <desc>Created with Sketch.</desc>
    <defs>
        <path d="M20.0005,15.0025 L19.8165,15.0025 C19.4015,13.8415 18.3025,13.0025 17.0005,13.0025 C15.6985,13.0025 14.5995,13.8415 14.1855,15.0025 L10.8165,15.0025 C10.4015,13.8415 9.3025,13.0025 8.0005,13.0025 C6.6985,13.0025 5.5995,13.8415 5.1855,15.0025 L4.0005,15.0025 L4.0005,14.0025 C4.0005,12.8995 4.8975,12.0025 6.0005,12.0025 L19.9205,12.0025 C19.9675,12.3305 20.0005,12.6625 20.0005,13.0025 L20.0005,15.0025 Z M17.0005,17.0025 C16.4495,17.0025 16.0005,16.5535 16.0005,16.0025 C16.0005,15.4515 16.4495,15.0025 17.0005,15.0025 C17.5515,15.0025 18.0005,15.4515 18.0005,16.0025 C18.0005,16.5535 17.5515,17.0025 17.0005,17.0025 L17.0005,17.0025 Z M8.0005,17.0025 C7.4495,17.0025 7.0005,16.5535 7.0005,16.0025 C7.0005,15.4515 7.4495,15.0025 8.0005,15.0025 C8.5515,15.0025 9.0005,15.4515 9.0005,16.0025 C9.0005,16.5535 8.5515,17.0025 8.0005,17.0025 L8.0005,17.0025 Z M12.0005,6.1025 L12.0005,10.0025 L8.1015,10.0025 C8.5005,8.0465 10.0445,6.5025 12.0005,6.1025 L12.0005,6.1025 Z M19.3155,10.0025 L14.0005,10.0025 L14.0005,6.0825 C16.3525,6.4215 18.3265,7.9305 19.3155,10.0025 L19.3155,10.0025 Z M13.0005,4.0025 C9.4795,4.0025 6.5585,6.6145 6.0715,10.0025 L6.0005,10.0025 C3.7945,10.0025 2.0005,11.7965 2.0005,14.0025 L2.0005,16.0025 C2.0005,16.5555 2.4485,17.0025 3.0005,17.0025 L5.1855,17.0025 C5.5995,18.1645 6.6985,19.0025 8.0005,19.0025 C9.3025,19.0025 10.4015,18.1645 10.8165,17.0025 L14.1855,17.0025 C14.5995,18.1645 15.6985,19.0025 17.0005,19.0025 C18.3025,19.0025 19.4015,18.1645 19.8165,17.0025 L21.0005,17.0025 C21.5525,17.0025 22.0005,16.5555 22.0005,16.0025 L22.0005,13.0025 C22.0005,8.0405 17.9625,4.0025 13.0005,4.0025 L13.0005,4.0025 Z" id="path-1"></path>
    </defs>
    <g id="Symbols" stroke="none" stroke-width="1" fill="none" fill-rule="evenodd">
        <g id="Icon/Car-2">
            <rect id="Bounding-Box" x="0" y="0" width="24" height="24"></rect>
            <mask id="mask-2" fill="white">
                <use xlink:href="#path-1"></use>
            </mask>
            <use id="Fill-748" fill="IconColor" xlink:href="#path-1"></use>
            <g id="Mixin/Fill/Black" mask="url(#mask-2)" fill="IconColor">
                <rect id="Rectangle" x="0" y="0" width="24" height="24"></rect>
            </g>
        </g>
    </g>
</svg>