<?xml version="1.0" encoding="UTF-8"?>
<svg width="24px" height="24px" viewBox="0 0 24 24" version="1.1" xmlns="http://www.w3.org/2000/svg" xmlns:xlink="http://www.w3.org/1999/xlink">
    <!-- Generator: Sketch 42 (36781) - http://www.bohemiancoding.com/sketch -->
    <title>Icon/Motorcycle</title>
    <desc>Created with Sketch.</desc>
    <defs>
        <path d="M5.0015,9.0044 L12.0015,9.0044 C12.5535,9.0044 13.0015,8.5574 13.0015,8.0044 C13.0015,7.4514 12.5535,7.0044 12.0015,7.0044 L5.0015,7.0044 C4.4495,7.0044 4.0015,7.4514 4.0015,8.0044 C4.0015,8.5574 4.4495,9.0044 5.0015,9.0044 M17.0015,18.0044 L16.1855,18.0044 C16.5985,19.1674 17.6975,20.0044 19.0015,20.0044 C20.6585,20.0044 22.0015,18.6604 22.0015,17.0044 C22.0015,16.0854 21.5795,15.2744 20.9285,14.7234 C20.5885,16.5854 18.9605,18.0044 17.0015,18.0044 M7.0015,20.0044 C8.3055,20.0044 9.4045,19.1674 9.8175,18.0044 L4.1855,18.0044 C4.5985,19.1674 5.6975,20.0044 7.0015,20.0044 M4.0015,15.0044 C4.0015,13.3504 5.3475,12.0044 7.0015,12.0044 L10.0015,12.0044 L10.0015,15.0044 L4.0015,15.0044 Z M20.0015,9.6714 L20.0015,6.0044 C20.0015,4.3504 18.6555,3.0044 17.0015,3.0044 L15.0015,3.0044 L15.0015,5.0044 L17.0015,5.0044 C17.5525,5.0044 18.0015,5.4534 18.0015,6.0044 L18.0015,14.0044 C18.0015,14.5554 17.5525,15.0044 17.0015,15.0044 L12.0015,15.0044 L12.0015,11.0044 C12.0015,10.4524 11.5535,10.0044 11.0015,10.0044 L7.0015,10.0044 C4.2445,10.0044 2.0015,12.2474 2.0015,15.0044 L2.0015,17.0044 L17.0015,17.0044 C18.6555,17.0044 20.0015,15.6584 20.0015,14.0044 L20.0015,12.3374 L22.0015,13.0044 L22.0015,9.0044 L20.0015,9.6714 Z" id="path-1"></path>
    </defs>
    <g id="Symbols" stroke="none" stroke-width="1" fill="none" fill-rule="evenodd">
        <g id="Icon/Motorcycle">
            <rect id="Bounding-Box" x="0" y="0" width="24" height="24"></rect>
            <mask id="mask-2" fill="white">
                <use xlink:href="#path-1"></use>
            </mask>
            <use id="Combined-Shape" fill="IconColor" xlink:href="#path-1"></use>
            <g id="Mixin/Fill/Black" mask="url(#mask-2)" fill="IconColor">
                <rect id="Rectangle" x="0" y="0" width="24" height="24"></rect>
            </g>
            <g id="Fill-745-+-Fill-746-+-Fill-747" mask="url(#mask-2)">
                <g transform="translate(2.000000, 2.000000)"></g>
            </g>
        </g>
    </g>
</svg>