<?xml version="1.0" encoding="UTF-8"?>
<svg width="24px" height="24px" viewBox="0 0 24 24" version="1.1" xmlns="http://www.w3.org/2000/svg" xmlns:xlink="http://www.w3.org/1999/xlink">
    <!-- Generator: Sketch 42 (36781) - http://www.bohemiancoding.com/sketch -->
    <title>Icon/Travel</title>
    <desc>Created with Sketch.</desc>
    <defs>
        <path d="M22.9121,3.5205 C22.6891,3.0295 22.1171,2.7965 21.6151,2.9985 L18.8091,4.2475 L15.4881,2.1445 L13.8811,2.9765 L17.0001,5.0005 L17.1161,5.0005 L14.6851,6.0825 L12.5841,5.1445 L11.0001,6.0565 L15.0001,8.0605 L17.1991,7.0475 L15.6761,11.0005 L17.4731,10.0665 L19.6641,6.0625 L22.3961,4.8615 C22.9111,4.6365 23.1411,4.0345 22.9121,3.5205 M15,18.9182 L15,16.0002 L17.918,16.0002 C17.216,17.2092 16.208,18.2162 15,18.9182 M9,19.7372 L9,16.0002 L13,16.0002 L13,19.7372 C12.359,19.9032 11.691,20.0002 11,20.0002 C10.308,20.0002 9.641,19.9032 9,19.7372 M4.082,16.0002 L7,16.0002 L7,18.9182 C5.791,18.2162 4.784,17.2092 4.082,16.0002 M3.263,10.0002 L7,10.0002 L7,14.0002 L3.263,14.0002 C3.097,13.3602 3,12.6922 3,12.0002 C3,11.3092 3.097,10.6412 3.263,10.0002 M7,5.0832 L7,8.0002 L4.082,8.0002 C4.784,6.7912 5.791,5.7852 7,5.0832 M18.736,14.0002 L15,14.0002 L15,12.0002 L13,12.0002 L13,14.0002 L9,14.0002 L9,10.0002 L11,10.0002 L11,8.0002 L9,8.0002 L9,4.2632 C9.641,4.0982 10.308,4.0002 11,4.0002 L11,2.0002 C5.485,2.0002 1,6.4862 1,12.0002 C1,17.5152 5.485,22.0002 11,22.0002 C16.514,22.0002 21,17.5152 21,12.0002 L19,12.0002 C19,12.6922 18.902,13.3602 18.736,14.0002" id="path-1"></path>
    </defs>
    <g id="Symbols" stroke="none" stroke-width="1" fill="none" fill-rule="evenodd">
        <g id="Icon/Travel">
            <rect id="Bounding-Box" x="0" y="0" width="24" height="24"></rect>
            <mask id="mask-2" fill="white">
                <use xlink:href="#path-1"></use>
            </mask>
            <use id="Combined-Shape" fill="IconColor" xlink:href="#path-1"></use>
            <g id="Mixin/Fill/Black" mask="url(#mask-2)" fill="IconColor">
                <rect id="Rectangle" x="0" y="0" width="24" height="24"></rect>
            </g>
            <g id="Fill-745-+-Fill-746-+-Fill-747" mask="url(#mask-2)">
                <g transform="translate(2.000000, 2.000000)"></g>
            </g>
        </g>
    </g>
</svg>