<?xml version="1.0" encoding="UTF-8"?>
<svg width="24px" height="24px" viewBox="0 0 24 24" version="1.1" xmlns="http://www.w3.org/2000/svg" xmlns:xlink="http://www.w3.org/1999/xlink">
    <!-- Generator: Sketch 42 (36781) - http://www.bohemiancoding.com/sketch -->
    <title>Icon/Truck</title>
    <desc>Created with Sketch.</desc>
    <defs>
        <path d="M9.001,16.003 L11.001,16.003 L11.001,12.003 L9.001,12.003 L9.001,16.003 Z M13.001,16.003 L15.001,16.003 L15.001,12.003 L13.001,12.003 L13.001,16.003 Z M20.001,17.003 L18.001,17.003 L18.001,14.003 L20.001,14.003 L20.001,17.003 Z M8.001,11.003 L16.001,11.003 L16.001,17.003 L8.001,17.003 L8.001,11.003 Z M4.001,14.003 L6.001,14.003 L6.001,17.003 L4.001,17.003 L4.001,14.003 Z M16.001,9.003 L8.001,9.003 L8.001,6.003 L16.001,6.003 L16.001,9.003 Z M21.001,12.281 L21.001,8.003 L19.001,8.003 L19.001,12.003 L18.001,12.003 L18.001,6.003 C18.001,4.899 17.104,4.003 16.001,4.003 L15.001,4.003 L15.001,2.003 L9.001,2.003 L9.001,4.003 L8.001,4.003 C6.898,4.003 6.001,4.899 6.001,6.003 L6.001,12.003 L5.001,12.003 L5.001,8.003 L3.001,8.003 L3.001,12.281 C2.406,12.628 2.001,13.265 2.001,14.003 L2.001,18.003 C2.001,18.555 2.449,19.003 3.001,19.003 L4.001,19.003 C4.001,20.107 4.896,21.003 6.001,21.003 C7.105,21.003 8.001,20.107 8.001,19.003 L16.001,19.003 C16.001,20.107 16.896,21.003 18.001,21.003 C19.105,21.003 20.001,20.107 20.001,19.003 L21.001,19.003 C21.553,19.003 22.001,18.555 22.001,18.003 L22.001,14.003 C22.001,13.265 21.596,12.628 21.001,12.281 L21.001,12.281 Z" id="path-1"></path>
    </defs>
    <g id="Symbols" stroke="none" stroke-width="1" fill="none" fill-rule="evenodd">
        <g id="Icon/Truck">
            <rect id="Bounding-Box" x="0" y="0" width="24" height="24"></rect>
            <mask id="mask-2" fill="white">
                <use xlink:href="#path-1"></use>
            </mask>
            <use id="Combined-Shape" fill="IconColor" xlink:href="#path-1"></use>
            <g id="Mixin/Fill/Black" mask="url(#mask-2)" fill="IconColor">
                <rect id="Rectangle" x="0" y="0" width="24" height="24"></rect>
            </g>
            <g id="Fill-745-+-Fill-746-+-Fill-747" mask="url(#mask-2)">
                <g transform="translate(2.000000, 2.000000)"></g>
            </g>
        </g>
    </g>
</svg>