<?xml version="1.0" encoding="UTF-8"?>
<svg width="24px" height="24px" viewBox="0 0 24 24" version="1.1" xmlns="http://www.w3.org/2000/svg" xmlns:xlink="http://www.w3.org/1999/xlink">
    <!-- Generator: Sketch 42 (36781) - http://www.bohemiancoding.com/sketch -->
    <title>Icon/Car</title>
    <desc>Created with Sketch.</desc>
    <defs>
        <path d="M19.8237222,11.5587968 C20.3771382,11.5140239 20.7910478,11.0826311 20.7910478,10.5154069 C20.7910478,9.94818272 20.307385,9.47201694 19.7312302,9.47201694 L18.7399365,9.47201694 L18.1637816,7.58822767 C17.9102735,6.72574441 16.9884257,6.04507541 16.0665779,6 L7.90945406,6 C6.98760627,6.04507541 6.08849739,6.72574441 5.81225033,7.58822767 L5.23609546,9.47201694 L4.2448018,9.47201694 C3.66864693,9.47201694 3.18498412,9.94818272 3.18498412,10.5154069 C3.18498412,11.0602446 3.62286183,11.5140239 4.15230974,11.5587968 C3.48366281,11.8767449 3,12.5350274 3,13.3291413 L3,16.8235447 C3,17.277324 3.36843183,17.6176585 3.80661682,17.6400449 L3.80661682,19.3641039 C3.80661682,19.7044384 4.08255659,20 4.45252484,20 L5.76554338,20 C6.1112363,20 6.4114514,19.7280349 6.4114514,19.3641039 L6.4114514,17.6624314 L17.5888559,17.6624314 L17.5888559,19.3641039 C17.5888559,19.7044384 17.8647957,20 18.2344566,20 L19.5477824,20 C19.8934754,20 20.1933832,19.7280349 20.1933832,19.3641039 L20.1933832,17.6400449 C20.6315682,17.6176585 21,17.277324 21,16.8235447 L21,13.3291413 C20.953293,12.5574139 20.4923691,11.8767449 19.8237222,11.5587968 Z M6.76234269,8.14285714 C6.93688287,7.52632381 7.61210068,7 8.22110358,7 L15.7788964,7 C16.389061,7 17.0639884,7.52632381 17.2376573,8.14285714 L18,11 L6,11 L6.76234269,8.14285714 Z M6,15 C5.45636416,15 5,14.5650913 5,14 C5,13.4563642 5.43490867,13 6,13 C6.54363584,13 7,13.4349087 7,14 C6.97854451,14.5650913 6.54363584,15 6,15 Z M15,17 L9,17 L9,15 L15,15 L15,17 Z M17,14 C17,13.4563642 17.4349087,13 18,13 C18.5436358,13 19,13.4349087 19,14 C19,14.5436358 18.5650913,15 18,15 C17.4349087,15 17,14.5650913 17,14 Z" id="path-1"></path>
    </defs>
    <g id="Symbols" stroke="none" stroke-width="1" fill="none" fill-rule="evenodd">
        <g id="Icon/Car">
            <rect id="Bounding-Box" x="0" y="0" width="24" height="24"></rect>
            <mask id="mask-2" fill="white">
                <use xlink:href="#path-1"></use>
            </mask>
            <use id="Page-1" fill="IconColor" xlink:href="#path-1"></use>
            <g id="Mixin/Fill/Black" mask="url(#mask-2)" fill="IconColor">
                <rect id="Rectangle" x="0" y="0" width="24" height="24"></rect>
            </g>
        </g>
    </g>
</svg>