<?xml version="1.0" encoding="UTF-8"?>
<svg width="75px" height="56px" viewBox="0 0 75 56" version="1.1" xmlns="http://www.w3.org/2000/svg" xmlns:xlink="http://www.w3.org/1999/xlink">
    <!-- Generator: Sketch 42 (36781) - http://www.bohemiancoding.com/sketch -->
    <title>coffee</title>
    <desc>Created with Sketch.</desc>
    <defs>
        <rect id="path-1" x="0" y="0" width="1128" height="585" rx="3"></rect>
        <filter x="-50%" y="-50%" width="200%" height="200%" filterUnits="objectBoundingBox" id="filter-2">
            <feOffset dx="0" dy="24" in="SourceAlpha" result="shadowOffsetOuter1"></feOffset>
            <feGaussianBlur stdDeviation="16" in="shadowOffsetOuter1" result="shadowBlurOuter1"></feGaussianBlur>
            <feColorMatrix values="0 0 0 0 0.321568627   0 0 0 0 0.380392157   0 0 0 0 0.450980392  0 0 0 0.1 0" type="matrix" in="shadowBlurOuter1"></feColorMatrix>
        </filter>
    </defs>
    <g id="Style-Guide" stroke="none" stroke-width="1" fill="none" fill-rule="evenodd">
        <g id="Icons" transform="translate(-998.000000, -630.000000)">
            <g transform="translate(156.000000, 248.000000)" id="Bounding-Box">
                <g>
                    <use fill="black" fill-opacity="1" filter="url(#filter-2)" xlink:href="#path-1"></use>
                    <use fill="#FFFFFF" fill-rule="evenodd" xlink:href="#path-1"></use>
                </g>
            </g>
            <g id="coffee" transform="translate(998.000000, 630.000000)">
                <path d="M55.4302662,23.1595551 L13.7946404,23.1595551 C13.3559989,23.1595551 13,23.515554 13,23.9541956 L13,35.7275879 C13,46.8031094 21.9783771,55.8139785 33.0122241,55.8139785 C43.8059131,55.8139785 52.6324257,47.2000764 53.0632973,36.4452365 L55.5461072,36.4777284 C59.1053899,36.4777284 62,33.4927059 62,29.8232331 C62,26.2109743 58.9923743,23.1595551 55.4302662,23.1595551 Z M33.0122241,54.2246976 C22.8528348,54.2246976 14.5892808,45.9279454 14.5892808,35.7275879 L14.5892808,24.748836 L51.4295167,24.748836 L51.4930879,35.6308184 C51.4930879,45.8841519 43.2048118,54.2246976 33.0122241,54.2246976 Z M55.5545833,34.8884476 L53.0767179,34.8559557 L53.0187975,24.748836 L55.4302662,24.748836 C58.1292183,24.748836 60.4078938,27.0720114 60.4078938,29.8232331 C60.4107192,32.6154229 58.2281068,34.8884476 55.5545833,34.8884476 Z M55.4055441,25.9990702 C55.1131164,25.9990702 54.8757838,26.2356965 54.8757838,26.5288305 C54.8757838,26.8212582 55.1131164,27.0585908 55.4055441,27.0585908 C56.7906906,27.0585908 58.0020758,28.32719 58.0020758,29.7759078 C58.0020758,31.2493477 56.8295397,32.4911058 55.4443932,32.4911058 C55.1519655,32.4911058 54.9146329,32.7284384 54.9146329,33.0208661 C54.9146329,33.3132937 55.1519655,33.5506263 55.4443932,33.5506263 C57.4059189,33.5506263 59.0615963,31.8207825 59.0615963,29.7759078 C59.0615963,27.7289141 57.3868475,25.9990702 55.4055441,25.9990702 Z M32.4796385,20.659793 C32.1681394,20.9684667 32.1681394,21.4735048 32.4796385,21.7828848 C32.6343285,21.9375748 32.8384628,22.0145666 33.0425971,22.0145666 C33.2467313,22.0145666 33.4480402,21.9375748 33.6055556,21.7828848 C36.0000721,19.387662 36.0000721,15.4893327 33.6055556,13.0941099 C31.8283865,11.3169408 31.8283865,8.42868778 33.6055556,6.65151865 C33.9170547,6.3400196 33.9170547,5.83780686 33.6055556,5.52842686 C33.2933502,5.21692782 32.7918439,5.21692782 32.4824639,5.52842686 C30.0872411,7.92364965 30.0872411,11.8219789 32.4824639,14.2172017 C34.2568076,15.9936645 34.2568076,18.8826239 32.4796385,20.659793 Z M26.6911245,20.659793 C26.3789191,20.971292 26.3789191,21.4735048 26.6911245,21.7828848 C26.8458145,21.9375748 27.0499488,22.0145666 27.2540831,22.0145666 C27.4582174,22.0145666 27.6595263,21.9375748 27.8170417,21.7828848 C29.6712027,19.9287238 29.6712027,16.9097966 27.8170417,15.0556356 C26.5809344,13.8195283 26.5809344,11.8113837 27.8170417,10.5752764 C28.1285407,10.263071 28.1285407,9.76085828 27.8170417,9.45218463 C27.5048363,9.13997924 27.0026236,9.13997924 26.6939499,9.45218463 C24.839789,11.3063456 24.839789,14.3245665 26.6939499,16.1787274 C27.9272318,17.4148347 27.9272318,19.4236857 26.6911245,20.659793 Z M39.1955861,18.4192602 C39.1955861,19.2661703 38.8671347,20.0608107 38.2681524,20.659793 C37.9566534,20.9684667 37.9566534,21.4735048 38.2681524,21.7828848 C38.4228424,21.9375748 38.6269767,22.0145666 38.831111,22.0145666 C39.0352453,22.0145666 39.2372605,21.9375748 39.3940696,21.7828848 C40.2939557,20.8829987 40.7876923,19.6885658 40.7876923,18.4192602 C40.7876923,17.1471292 40.2911303,15.9526964 39.3940696,15.0556356 C38.1579623,13.8195283 38.1579623,11.8113837 39.3940696,10.5752764 C39.706275,10.263071 39.706275,9.76085828 39.3940696,9.45218463 C39.0825705,9.13997924 38.5803578,9.13997924 38.2709778,9.45218463 C36.4168168,11.3063456 36.4168168,14.3245665 38.2709778,16.1787274 C38.8671347,16.7777097 39.1955861,17.5723501 39.1955861,18.4192602 Z" fill="IconColor"></path>
                <path d="M48.2336287,13.1907121 C48.3489816,13.3081061 48.5259081,13.3695606 48.641261,13.3695606 C48.7573934,13.3695606 48.9335404,13.3112576 49.0496728,13.1907121 L49.6919081,12.5415 L50.3925993,13.2490152 C50.5079522,13.3664091 50.6848787,13.4278636 50.8002316,13.4278636 C50.9155846,13.4278636 51.092511,13.3695606 51.207864,13.2490152 C51.4424669,13.0126515 51.4424669,12.6581061 51.207864,12.4217424 L50.5079522,11.7134394 L51.1501875,11.0642273 C51.3847904,10.8270758 51.3847904,10.4733182 51.1501875,10.2361667 C50.9155846,9.99901515 50.5656287,9.99901515 50.3310257,10.2361667 L49.6887904,10.8853788 L48.995114,10.1778636 C48.760511,9.94071212 48.4105551,9.94071212 48.1759522,10.1778636 C47.9413493,10.4150152 47.9413493,10.7687727 48.1759522,11.0059242 L48.875864,11.7134394 L48.2336287,12.3626515 C47.9990257,12.599803 47.9990257,12.9535606 48.2336287,13.1907121 Z" id="Fill-10" fill="IconColor"></path>
                <path d="M65.5141875,19.7134394 L66.1564228,19.0642273 C66.3910257,18.8270758 66.3910257,18.4733182 66.1564228,18.2361667 C65.9218199,17.9990152 65.571864,17.9990152 65.337261,18.2361667 L64.6950257,18.8853788 L63.9943346,18.1778636 C63.760511,17.9407121 63.4097757,17.9407121 63.1759522,18.1778636 C62.9413493,18.4150152 62.9413493,18.7687727 63.1759522,19.0059242 L63.875864,19.7134394 L63.2336287,20.3626515 C62.9990257,20.599803 62.9990257,20.9535606 63.2336287,21.1907121 C63.3489816,21.3081061 63.5259081,21.3695606 63.641261,21.3695606 C63.7573934,21.3695606 63.9335404,21.3112576 64.0496728,21.1907121 L64.6919081,20.5415 L65.3918199,21.2490152 C65.5079522,21.3664091 65.6840993,21.4278636 65.8002316,21.4278636 C65.9155846,21.4278636 66.092511,21.3695606 66.207864,21.2490152 C66.4424669,21.0126515 66.4424669,20.6581061 66.207864,20.4217424 L65.5141875,19.7134394 Z" id="Fill-11" fill="IconColor"></path>
                <path d="M2.3949375,25.2490152 C2.51106985,25.3664091 2.68721691,25.4278636 2.80334926,25.4278636 C2.91870221,25.4278636 3.09562868,25.3695606 3.21098162,25.2490152 C3.44558456,25.0126515 3.44558456,24.6581061 3.21098162,24.4217424 L2.51106985,23.7134394 L3.15330515,23.0642273 C3.38790809,22.8270758 3.38790809,22.4733182 3.15330515,22.2361667 C2.91870221,21.9990152 2.56874632,21.9990152 2.33414338,22.2361667 L1.69190809,22.8853788 L0.995113971,22.1778636 C0.760511029,21.9407121 0.410555147,21.9407121 0.175952206,22.1778636 C-0.0586507353,22.4150152 -0.0586507353,22.7687727 0.175952206,23.0059242 L0.875863971,23.7134394 L0.233628676,24.3626515 C-0.000974264706,24.599803 -0.000974264706,24.9535606 0.233628676,25.1907121 C0.348981618,25.3081061 0.525908088,25.3695606 0.641261029,25.3695606 C0.757393382,25.3695606 0.933540441,25.3112576 1.04967279,25.1907121 L1.69190809,24.5415 L2.3949375,25.2490152 Z" id="Fill-13" fill="IconColor"></path>
                <path d="M62.4988529,44.7378182 L62.4988529,44.3257576 L62.8488088,44.3257576 C63.1995441,44.3257576 63.4333676,44.0886061 63.4333676,43.7348485 C63.4333676,43.3810909 63.1995441,43.1439394 62.8488088,43.1439394 L62.4988529,43.1439394 L62.4988529,42.7318788 C62.4988529,42.3773333 62.26425,42.1409697 61.9142941,42.1409697 C61.5643382,42.1409697 61.3297353,42.3773333 61.3297353,42.7318788 L61.3297353,43.1439394 L60.9797794,43.1439394 C60.6298235,43.1439394 60.3952206,43.3810909 60.3952206,43.7348485 C60.3952206,44.0886061 60.6298235,44.3257576 60.9797794,44.3257576 L61.3297353,44.3257576 L61.3297353,44.7378182 C61.3297353,45.0923636 61.5643382,45.3287273 61.9142941,45.3287273 C62.26425,45.3287273 62.4988529,45.0955152 62.4988529,44.7378182 Z" id="Fill-14" fill="IconColor"></path>
                <path d="M18.4543676,14.0037576 L18.1044118,14.0037576 L18.1044118,13.5909091 C18.1044118,13.2371515 17.8698088,13 17.5198529,13 C17.1691176,13 16.9352941,13.2371515 16.9352941,13.5909091 L16.9352941,14.0037576 L16.5845588,14.0037576 C16.2346029,14.0037576 16,14.2401212 16,14.5946667 C16,14.9484242 16.2346029,15.1855758 16.5845588,15.1855758 L16.9352941,15.1855758 L16.9352941,15.5976364 C16.9352941,15.9513939 17.1691176,16.1885455 17.5198529,16.1885455 C17.8698088,16.1885455 18.1044118,15.9513939 18.1044118,15.5976364 L18.1044118,15.1855758 L18.4543676,15.1855758 C18.8043235,15.1855758 19.0389265,14.9484242 19.0389265,14.5946667 C19.0389265,14.2401212 18.7466471,14.0037576 18.4543676,14.0037576 Z" id="Fill-15" fill="IconColor"></path>
                <path d="M57.9797794,5.40381818 L58.3297353,5.40381818 L58.3297353,5.81587879 C58.3297353,6.16963636 58.5643382,6.40678788 58.9142941,6.40678788 C59.26425,6.40678788 59.4988529,6.16963636 59.4988529,5.81587879 L59.4988529,5.40381818 L59.8488088,5.40381818 C60.1995441,5.40381818 60.4333676,5.16666667 60.4333676,4.81290909 C60.4333676,4.45915152 60.1995441,4.222 59.8488088,4.222 L59.4988529,4.222 L59.4988529,3.74769697 C59.4988529,3.39393939 59.26425,3.15678788 58.9142941,3.15678788 C58.5643382,3.15678788 58.3297353,3.39393939 58.3297353,3.74769697 L58.3297353,4.16054545 L57.9797794,4.16054545 C57.6298235,4.16054545 57.3952206,4.39690909 57.3952206,4.75145455 C57.3952206,5.10521212 57.6298235,5.40381818 57.9797794,5.40381818 Z" id="Fill-16" fill="IconColor"></path>
                <path d="M29.4535882,1.06127273 L29.1036324,1.06127273 L29.1036324,0.590909091 C29.1036324,0.237151515 28.8690294,0 28.5190735,0 C28.1691176,0 27.9345147,0.237151515 27.9345147,0.590909091 L27.9345147,1.0029697 L27.5845588,1.0029697 C27.2338235,1.0029697 27,1.24012121 27,1.59387879 C27,1.94763636 27.2338235,2.18478788 27.5845588,2.18478788 L27.9345147,2.18478788 L27.9345147,2.59763636 C27.9345147,2.95139394 28.1691176,3.18854545 28.5190735,3.18854545 C28.8690294,3.18854545 29.1036324,2.95139394 29.1036324,2.59763636 L29.1036324,2.24309091 L29.4535882,2.24309091 C29.8035441,2.24309091 30.0381471,2.00672727 30.0381471,1.65218182 C30.0381471,1.29842424 29.8035441,1.06127273 29.4535882,1.06127273 Z" id="Fill-17" fill="IconColor"></path>
                <path d="M12.4535882,6.00375758 L12.1036324,6.00375758 L12.1036324,5.59090909 C12.1036324,5.23715152 11.8690294,5 11.5190735,5 C11.1691176,5 10.9345147,5.23715152 10.9345147,5.59090909 L10.9345147,6.00375758 L10.5845588,6.00375758 C10.2338235,6.00375758 10,6.24090909 10,6.59466667 C10,6.94842424 10.2338235,7.18557576 10.5845588,7.18557576 L10.9345147,7.18557576 L10.9345147,7.59763636 C10.9345147,7.95139394 11.1691176,8.18854545 11.5190735,8.18854545 C11.8690294,8.18854545 12.1036324,7.95139394 12.1036324,7.59763636 L12.1036324,7.18557576 L12.4535882,7.18557576 C12.8035441,7.18557576 13.0381471,6.94842424 13.0381471,6.59466667 C13.0381471,6.24090909 12.8035441,6.00375758 12.4535882,6.00375758 Z" id="Fill-19" fill="IconColor"></path>
                <path d="M70.0411324,30.3257576 C70.0411324,31.194 68.7566618,31.194 68.7566618,30.3257576 C68.7566618,29.4575152 70.0411324,29.4575152 70.0411324,30.3257576" id="Fill-20" fill="IconColor"></path>
                <path d="M74.7176029,36.530303 C74.7176029,37.3985455 73.4331324,37.3985455 73.4331324,36.530303 C73.4331324,35.6620606 74.7176029,35.6620606 74.7176029,36.530303" id="Fill-21" fill="IconColor"></path>
                <path d="M9.46139706,38.5530303 C9.46139706,39.4212727 8.17692647,39.4212727 8.17692647,38.5530303 C8.17692647,37.6847879 9.46139706,37.6847879 9.46139706,38.5530303" id="Fill-22" fill="IconColor"></path>
                <path d="M11.7419559,21.4166667 C11.7419559,22.2849091 10.4535882,22.2849091 10.4535882,21.4166667 C10.4535882,20.5484242 11.7419559,20.5484242 11.7419559,21.4166667" id="Fill-24" fill="IconColor"></path>
                <path d="M41.4352059,4.81290909 C41.4352059,5.67721212 40.1507353,5.67721212 40.1507353,4.81290909 C40.1507353,3.94466667 41.4352059,3.94466667 41.4352059,4.81290909" id="Fill-25" fill="IconColor"></path>
                <path d="M46.5808824,18.2832727 C46.5808824,19.1515152 45.2964118,19.1515152 45.2964118,18.2832727 C45.2964118,17.4189697 46.5808824,17.4189697 46.5808824,18.2832727" id="Fill-27" fill="IconColor"></path>
            </g>
            <g id="SVGs" transform="translate(190.000000, 322.000000)"></g>
        </g>
    </g>
</svg>