<?xml version="1.0" encoding="UTF-8"?>
<svg width="24px" height="24px" viewBox="0 0 24 24" version="1.1" xmlns="http://www.w3.org/2000/svg" xmlns:xlink="http://www.w3.org/1999/xlink">
    <!-- Generator: Sketch 42 (36781) - http://www.bohemiancoding.com/sketch -->
    <title>Icon/Currency</title>
    <desc>Created with Sketch.</desc>
    <defs>
        <path d="M14.0066298,6 L14.0066298,7.398685 C14.950281,7.41940636 15.8655573,7.61107609 16.7524862,7.97369994 L16.3502762,8.9916318 C15.5664786,8.68081136 14.7852709,8.49950215 14.0066298,8.44769874 L14.0066298,11.8200837 C14.8058972,12.0739204 15.4053387,12.322573 15.8049724,12.566049 C16.204606,12.809525 16.5049714,13.0970296 16.7060773,13.4285714 C16.9020268,13.7393919 17,14.1253215 17,14.5863718 C17,15.2960785 16.7370192,15.8788581 16.2110497,16.334728 C15.6850802,16.790598 14.950281,17.0781026 14.0066298,17.1972504 L14.0066298,19 L13.0088398,19 L13.0088398,17.2671847 C12.4467744,17.2671847 11.8898738,17.2218574 11.3381215,17.1312014 C10.7863692,17.0405455 10.3403332,16.9149241 10,16.7543335 L10,15.5421399 C10.4125251,15.7286321 10.9049695,15.8866302 11.4773481,16.0161387 C12.0548832,16.1352865 12.5653753,16.1948595 13.0088398,16.1948595 L13.0088398,12.7758518 C11.9569008,12.44431 11.216945,12.0557902 10.7889503,11.6102809 C10.3609555,11.1647716 10.1469613,10.5949427 10.1469613,9.90077705 C10.1469613,9.20661139 10.4073639,8.64196273 10.9281768,8.20681411 C11.4541463,7.77166549 12.1476937,7.50747207 13.0088398,7.41422594 L13.0088398,6 L14.0066298,6 Z M11.8524862,8.96054991 C11.5869232,9.19884558 11.4541436,9.50577617 11.4541436,9.88135087 C11.4541436,10.2569256 11.5701646,10.5664463 11.8022099,10.8099223 C12.0342553,11.0533983 12.4364612,11.2787397 13.0088398,11.4859534 L13.0088398,8.47878063 C12.5034966,8.56166608 12.1180492,8.72225424 11.8524862,8.96054991 Z M15.6850829,14.6873879 C15.6850829,14.3144034 15.5703511,14.0126531 15.340884,13.7821279 C15.1114169,13.5516028 14.66667,13.3223761 14.0066298,13.0944411 L14.0066298,16.1171548 C15.1256041,15.9617446 15.6850829,15.4851604 15.6850829,14.6873879 Z" id="path-1"></path>
    </defs>
    <g id="Symbols" stroke="none" stroke-width="1" fill="none" fill-rule="evenodd">
        <g id="Icon/Currency">
            <rect id="Bounding-Box" x="0" y="0" width="24" height="24"></rect>
            <mask id="mask-2" fill="white">
                <use xlink:href="#path-1"></use>
            </mask>
            <use id="$" fill="IconColor" opacity="0.25" xlink:href="#path-1"></use>
            <g id="Mixin/Fill/Black" mask="url(#mask-2)" fill="IconColor">
                <rect id="Rectangle" x="0" y="0" width="24" height="24"></rect>
            </g>
        </g>
        <g id="Section-Labels" transform="translate(-125.000000, -260.000000)"></g>
    </g>
</svg>