<?xml version="1.0" encoding="UTF-8"?>
<svg width="24px" height="24px" viewBox="0 0 24 24" version="1.1" xmlns="http://www.w3.org/2000/svg" xmlns:xlink="http://www.w3.org/1999/xlink">
    <!-- Generator: Sketch 42 (36781) - http://www.bohemiancoding.com/sketch -->
    <title>Icon/Declaration</title>
    <desc>Created with Sketch.</desc>
    <defs>
        <path d="M4,4.0005 L4,16.0005 L8,16.0005 L8,18.0005 L10.667,16.0005 L20,16.0005 L20,4.0005 L4,4.0005 Z M6,22.0005 L6,18.0005 L4,18.0005 C2.897,18.0005 2,17.1035 2,16.0005 L2,4.0005 C2,2.8975 2.897,2.0005 4,2.0005 L20,2.0005 C21.103,2.0005 22,2.8975 22,4.0005 L22,16.0005 C22,17.1035 21.103,18.0005 20,18.0005 L11.333,18.0005 L6,22.0005 Z" id="path-1"></path>
    </defs>
    <g id="Symbols" stroke="none" stroke-width="1" fill="none" fill-rule="evenodd">
        <g id="Icon/Declaration">
            <rect id="Bounding-Box" x="0" y="0" width="24" height="24"></rect>
            <mask id="mask-2" fill="white">
                <use xlink:href="#path-1"></use>
            </mask>
            <use id="Fill-316" fill="IconColor" xlink:href="#path-1"></use>
            <g id="Mixin/Fill/Black" mask="url(#mask-2)" fill="IconColor">
                <rect id="Rectangle" x="0" y="0" width="24" height="24"></rect>
            </g>
            <g id="Page-1" mask="url(#mask-2)">
                <g transform="translate(-13.000000, -8.000000)"></g>
            </g>
        </g>
    </g>
</svg>