<?xml version="1.0" encoding="UTF-8"?>
<svg width="24px" height="24px" viewBox="0 0 24 24" version="1.1" xmlns="http://www.w3.org/2000/svg" xmlns:xlink="http://www.w3.org/1999/xlink">
    <!-- Generator: Sketch 42 (36781) - http://www.bohemiancoding.com/sketch -->
    <title>Icon/App/Dribbble</title>
    <desc>Created with Sketch.</desc>
    <defs>
        <path d="M12,22 C6.5,22 2,17.5 2,12 C2,6.5 6.5,2 12,2 C17.5,2 22,6.5 22,12 C22,17.5 17.5,22 12,22 Z M20.4166667,13.3333333 C20.0833333,13.25 17.75,12.5 15.0833333,13 C16.1666667,16.0833333 16.6666667,18.5833333 16.75,19.0833333 C18.6666667,17.8333333 20.0833333,15.75 20.4166667,13.3333333 Z M15.3333333,19.9166667 C15.1666667,19.1666667 14.75,16.5833333 13.5,13.4166667 C13.5,13.4166667 13.5,13.4166667 13.4166667,13.4166667 C8.58333333,15.0833333 6.83333333,18.4166667 6.75,18.75 C8.16666667,19.9166667 10,20.5833333 12,20.5833333 C13.1666667,20.5833333 14.3333333,20.3333333 15.3333333,19.9166667 Z M5.66666667,17.75 C5.83333333,17.4166667 8.16666667,13.5 12.5833333,12.0833333 C12.6666667,12.0833333 12.8333333,12 12.9166667,12 C12.6666667,11.5 12.5,11 12.25,10.5833333 C8,11.8333333 3.83333333,11.8333333 3.5,11.8333333 L3.5,12.0833333 C3.5,14.1666667 4.25,16.25 5.66666667,17.75 Z M3.66666667,10.25 C4.08333333,10.25 7.58333333,10.25 11.5833333,9.25 C10.1666667,6.75 8.66666667,4.58333333 8.41666667,4.33333333 C6,5.41666667 4.16666667,7.58333333 3.66666667,10.25 Z M10,3.75 C10.25,4.08333333 11.75,6.16666667 13.1666667,8.75 C16.1666667,7.58333333 17.5,5.91666667 17.6666667,5.66666667 C16.1666667,4.25 14.1666667,3.5 12,3.5 C11.3333333,3.5 10.6666667,3.58333333 10,3.75 Z M18.5833333,6.58333333 C18.4166667,6.83333333 17,8.66666667 13.8333333,9.91666667 C14,10.3333333 14.25,10.75 14.4166667,11.1666667 C14.5,11.3333333 14.5,11.5 14.5833333,11.5833333 C17.4166667,11.25 20.25,11.8333333 20.5,11.8333333 C20.5,9.91666667 19.8333333,8.08333333 18.5833333,6.58333333 Z" id="path-1"></path>
    </defs>
    <g id="Symbols" stroke="none" stroke-width="1" fill="none" fill-rule="evenodd">
        <g id="Icon/App/Dribbble">
            <rect id="Bounding-Box" x="0" y="0" width="24" height="24"></rect>
            <mask id="mask-2" fill="white">
                <use xlink:href="#path-1"></use>
            </mask>
            <g id="Mask"></g>
            <g id="Mixin/Fill/Black" mask="url(#mask-2)" fill="IconColor">
                <rect id="Rectangle" x="0" y="0" width="24" height="24"></rect>
            </g>
        </g>
    </g>
</svg>