<?xml version="1.0" encoding="UTF-8"?>
<svg width="24px" height="24px" viewBox="0 0 24 24" version="1.1" xmlns="http://www.w3.org/2000/svg" xmlns:xlink="http://www.w3.org/1999/xlink">
    <!-- Generator: Sketch 42 (36781) - http://www.bohemiancoding.com/sketch -->
    <title>Icon/Edit</title>
    <desc>Created with Sketch.</desc>
    <defs>
        <path d="M19.1017311,2 L19.1017311,2 C19.0807296,2.00107712 19.0597281,2.00323136 19.0387267,2.00646272 C18.9019479,2.02315807 18.7756699,2.08536173 18.6790093,2.18311034 L9.5412198,11.3216625 C9.44348223,11.4186033 9.38155485,11.5448955 9.36459213,11.6814205 L9.08080316,14.2500815 C9.03745399,14.6362289 9.36351513,14.9623268 9.74961892,14.919242 L12.3179899,14.6351517 C12.4558456,14.6214185 12.5850854,14.5616383 12.6839,14.4646976 L21.8216895,5.3261454 C22.0594368,5.08944836 22.0594368,4.70437809 21.8216895,4.46768106 L19.5371075,2.18311034 C19.4226765,2.06516574 19.2659733,2 19.1017311,2 Z M19.0758574,3.38461538 L20.6153846,4.92524887 L20.308758,5.23076923 L18.7692308,3.69679638 L19.0758574,3.38461538 Z M4.54079248,4.308497 L4.54079248,4.308497 C4.23258127,4.34095293 3.99786865,4.60167329 4.0000146,4.91201635 L4.0000146,19.3964807 C4.0000146,19.7296233 4.27040354,20 4.60356134,20 L19.0886831,20 C19.4218409,20 19.6922298,19.7296233 19.6922298,19.3964807 L19.6922298,9.538998 C19.6975947,9.20263655 19.4250598,8.92689527 19.0886831,8.92689527 C18.7523064,8.92689527 18.4800397,9.20263655 18.4851363,9.538998 L18.4851363,18.7929613 L5.20710808,18.7929613 L5.20710808,5.51553569 L14.4614914,5.51553569 C14.7978681,5.52063208 15.0733537,5.2483778 15.0733537,4.91201635 C15.0733537,4.5756549 14.7978681,4.30313238 14.4614914,4.308497 L4.60356134,4.308497 C4.58263838,4.30742408 4.56171543,4.30742408 4.54079248,4.308497 Z M17.8246029,4.76923077 L19.2307692,6.18073189 L12.3295088,13.0769231 L10.9230769,11.665422 L17.8246029,4.76923077 Z M10.0986219,13.0769231 L10.9230769,13.8949828 L10,14 L10.0986219,13.0769231 Z" id="path-1"></path>
    </defs>
    <g id="Symbols" stroke="none" stroke-width="1" fill="none" fill-rule="evenodd">
        <g id="Icon/Edit">
            <rect id="Bounding-Box" x="0" y="0" width="24" height="24"></rect>
            <mask id="mask-2" fill="white">
                <use xlink:href="#path-1"></use>
            </mask>
            <use id="Page-1" fill="IconColor" xlink:href="#path-1"></use>
            <g id="Mixin/Fill/Black" mask="url(#mask-2)" fill="IconColor">
                <rect id="Rectangle" x="0" y="0" width="24" height="24"></rect>
            </g>
        </g>
    </g>
</svg>