<?xml version="1.0" encoding="UTF-8"?>
<svg width="24px" height="24px" viewBox="0 0 24 24" version="1.1" xmlns="http://www.w3.org/2000/svg" xmlns:xlink="http://www.w3.org/1999/xlink">
    <!-- Generator: Sketch 42 (36781) - http://www.bohemiancoding.com/sketch -->
    <title>Icon/Logomark</title>
    <desc>Created with Sketch.</desc>
    <defs>
        <path d="M11.2832238,14.0760498 L11.1863311,14.4777547 L10.3106693,18.1081389 C10.0651776,19.1259166 9.12693598,19.862069 8.07565981,19.862069 L5.54110131,19.862069 C4.13675496,19.862069 3.1270544,18.579747 3.45350235,17.2263348 L4.21798374,14.0568907 C2.96808747,13.9030956 2,12.8421931 2,11.5570374 L2,6.51901246 C2,5.12818171 3.13383966,4 4.53164556,4 L15.2911392,4 L17.1898734,5.88925935 L20.9873418,5.88925935 L22,8.40827181 L22,9.66777803 L20.9873418,12.1867905 L17.1898734,12.1867905 L15.2911392,14.0760498 L11.2832238,14.0760498 Z M9.33057163,14.0760498 L6.16601467,14.0760498 L5.29980735,17.6672368 C5.2593339,17.8350347 5.36713203,17.9728096 5.54110131,17.9728096 L8.07565981,17.9728096 C8.24853682,17.9728096 8.42365801,17.836 8.46436431,17.6672368 L9.33057163,14.0760498 Z M4.65035612,11.7144757 C4.41014435,11.7144757 4.21518987,11.4746657 4.21518987,11.1791855 L4.21518987,6.89686433 C4.21518987,6.60138417 4.41014435,6.36157419 4.65035612,6.36157419 L6.82618733,6.36157419 L6.82618733,11.7144757 L4.65035612,11.7144757 L4.65035612,11.7144757 Z M15.0138835,10.1854257 L13.6268045,11.7144757 L8.80379746,11.7144757 L8.80379746,6.36157419 L13.6268045,6.36157419 L15.0138835,7.8906241 L15.0138835,10.1854257 L15.0138835,10.1854257 Z M17.3481012,10.4549694 L17.3481012,7.62108041 L19.8598312,7.62108041 L20.4135879,8.41032349 L20.4135879,9.67041568 L19.8598312,10.4549694 L17.3481012,10.4549694 Z" id="path-1"></path>
    </defs>
    <g id="Symbols" stroke="none" stroke-width="1" fill="none" fill-rule="evenodd">
        <g id="Icon/Logomark">
            <rect id="Bounding-Box" x="0" y="0" width="24" height="24"></rect>
            <mask id="mask-2" fill="white">
                <use xlink:href="#path-1"></use>
            </mask>
            <g id="product-logo"></g>
            <g id="Mixin/Fill/Black" mask="url(#mask-2)" fill="IconColor">
                <rect id="Rectangle" x="0" y="0" width="24" height="24"></rect>
            </g>
        </g>
    </g>
</svg>