<?xml version="1.0" encoding="UTF-8"?>
<svg width="49px" height="24px" viewBox="0 0 49 24" version="1.1" xmlns="http://www.w3.org/2000/svg" xmlns:xlink="http://www.w3.org/1999/xlink">
    <!-- Generator: Sketch 42 (36781) - http://www.bohemiancoding.com/sketch -->
    <title>logo</title>
    <desc>Created with Sketch.</desc>
    <defs>
        <rect id="path-1" x="0" y="0" width="1128" height="585" rx="3"></rect>
        <filter x="-50%" y="-50%" width="200%" height="200%" filterUnits="objectBoundingBox" id="filter-2">
            <feOffset dx="0" dy="24" in="SourceAlpha" result="shadowOffsetOuter1"></feOffset>
            <feGaussianBlur stdDeviation="16" in="shadowOffsetOuter1" result="shadowBlurOuter1"></feGaussianBlur>
            <feColorMatrix values="0 0 0 0 0.321568627   0 0 0 0 0.380392157   0 0 0 0 0.450980392  0 0 0 0.1 0" type="matrix" in="shadowBlurOuter1"></feColorMatrix>
        </filter>
    </defs>
    <g id="Style-Guide" stroke="none" stroke-width="1" fill="none" fill-rule="evenodd">
        <g id="Icons" transform="translate(-923.000000, -640.000000)">
            <g transform="translate(156.000000, 248.000000)" id="Bounding-Box">
                <g>
                    <use fill="black" fill-opacity="1" filter="url(#filter-2)" xlink:href="#path-1"></use>
                    <use fill="#FFFFFF" fill-rule="evenodd" xlink:href="#path-1"></use>
                </g>
            </g>
            <g id="logo" transform="translate(922.000000, 640.000000)">
                <text id="DAVID" font-family="OpenSansHebrew-Bold, Open Sans Hebrew" font-size="16" font-weight="bold" line-spacing="24" fill="IconColor">
                    <tspan x="0.2890625" y="23">DAVID</tspan>
                </text>
                <path d="M44.299657,2.43936951 C43.4811903,1.23981461 42.0314898,0.335557918 40.5146624,0.0781879214 C39.1107166,-0.160518988 37.7760048,0.149830096 36.6568216,0.975220191 C35.2646155,2.00319509 34.8823232,3.27168301 34.5448826,4.39116724 C34.3155072,5.15304263 34.1075041,5.82822497 33.6240699,6.37487283 C33.3432205,6.00341718 33.0714017,5.61540557 32.8245673,5.23431737 C32.802292,5.20030239 32.7752005,5.17080267 32.7444967,5.14491516 C32.732757,5.1319714 32.7234254,5.11902765 32.7116858,5.10728797 C32.5069938,4.90259604 32.2201241,4.78971446 31.9040557,4.78971446 C31.4525294,4.78971446 30.9751156,5.00735014 30.5964355,5.38603021 C30.2987291,5.68343554 30.0967464,6.05037592 30.0260073,6.4173163 C29.9462376,6.84175103 30.0518948,7.23548198 30.3164892,7.50007639 C30.3213055,7.50489267 30.3282289,7.50850488 30.3330451,7.51422422 C31.7685978,9.65656605 32.8399192,10.6186181 33.4795815,11.1935616 C34.0168978,11.6754907 34.1321875,11.8037242 34.1345957,12.0565789 C34.1463353,13.8015776 34.1345957,11.5505476 34.1345957,11.5836596 C34.1345957,12.3479431 35.0045364,12.94757 36.114689,12.94757 C37.1836023,12.94757 38.0288596,12.3924937 38.0911702,11.6682455 C38.0959865,11.6399498 38.0995987,17.0281846 38.0995987,16.9998889 C38.0995987,16.9679811 38.087558,13.8027817 38.0995987,12.0565789 C38.1017058,11.8037242 38.2169955,11.6766948 38.7543119,11.1935616 C39.1706191,10.8196978 39.7702461,10.2799734 40.5333255,9.36036479 C40.9333778,9.48739419 41.330721,9.55331703 41.7139163,9.55331703 C42.7358709,9.55331703 43.6684232,9.10751006 44.3550442,8.25382431 C45.4098097,6.94500005 45.8011325,4.63920569 44.299657,2.43936951 Z M30.913708,6.58648816 C30.9492281,6.3983522 31.0666249,6.19366027 31.2348937,6.02569248 C31.4793199,5.78096522 31.7406032,5.69397115 31.9040557,5.69397115 C31.9567338,5.69397115 32.02958,5.70360371 32.0732275,5.74695024 C32.183701,5.85862775 32.1298188,6.2490475 31.7932812,6.58528409 C31.548855,6.83001135 31.2878728,6.91700542 31.1256243,6.91700542 C31.0714412,6.91700542 30.9985949,6.90767387 30.9549474,6.86402633 C30.9067846,6.81345538 30.8902286,6.70990535 30.913708,6.58648816 Z M37.1965461,12.0517626 C37.1857095,13.6652166 37.1941379,11.1837357 37.1965461,11.6424865 C37.1941379,11.6623536 36.782647,12.1644509 36.114689,12.1644509 C35.4467311,12.1644509 35.0376483,11.8658415 35.0376483,11.7057002 C35.0376483,11.6740933 35.049388,13.8015776 35.0376483,12.0517626 C35.032832,11.3768813 34.655356,11.0370325 34.0828206,10.5231955 C33.5172087,10.015379 32.6999461,9.2814982 31.5900944,7.74359958 C31.8899079,7.65058516 32.1812928,7.47178074 32.4308364,7.22253822 C32.5741207,7.07925387 32.6906145,6.92272475 32.7833279,6.76288444 C33.6511615,7.94106709 35.0611277,9.60268391 36.1158931,9.60268391 C37.1694545,9.60268391 38.5791196,7.94227116 39.4469532,6.76288444 C39.5399676,6.92513289 39.6585685,7.08045794 39.8009498,7.22133415 C40.0501924,7.47087769 40.3430824,7.64938109 40.6416918,7.74239551 C39.5339473,9.2814982 37.2010613,11.3756772 37.1965461,12.0517626 Z M41.28015,6.86402633 C41.2365025,6.90767387 41.1636562,6.91700542 41.1106772,6.91700542 C40.9484287,6.91700542 40.6874465,6.83001135 40.4418162,6.58408002 C40.1970889,6.33965378 40.1100949,6.07867157 40.1100949,5.91642311 C40.1100949,5.86344403 40.1194264,5.79059778 40.1630739,5.74695024 C40.2067215,5.70360371 40.2795677,5.69397115 40.3325468,5.69397115 C40.4947953,5.69397115 40.7557775,5.78096522 41.0002037,6.02569248 C41.1684725,6.19366027 41.2858694,6.3983522 41.3213894,6.58648816 C41.3448688,6.70990535 41.3295169,6.81345538 41.28015,6.86402633 Z M43.6518672,7.68941643 C43.0158172,8.47958747 42.1220961,8.79234469 41.1413809,8.59006091 C41.3812919,8.26917621 41.6353507,7.91277144 41.9008482,7.51542829 C41.9056645,7.51061201 41.9128889,7.50730081 41.9174042,7.50248453 C42.1819986,7.23789012 42.2879568,6.8429551 42.2078861,6.41821935 C42.1386521,6.05157999 41.9363683,5.68463961 41.6374579,5.38723428 C41.2590788,5.00855421 40.7828691,4.79091853 40.3313427,4.79091853 C40.0137692,4.79091853 39.7268995,4.90380011 39.5234117,5.10849204 C39.5152842,5.11661951 39.5092638,5.12715512 39.5011364,5.13678768 C39.4668204,5.16478232 39.4352135,5.19789425 39.4105301,5.23552144 C38.3334893,6.90165352 36.7672951,8.70083536 36.1183013,8.70083536 C35.7170449,8.70083536 34.9657051,8.01270926 34.1957022,7.09460577 C34.8916548,6.37487283 35.1550451,5.50131993 35.410308,4.65214945 C35.7348049,3.57270055 36.0430469,2.55225108 37.1929339,1.7030806 C38.3509483,0.848491807 39.5550185,0.831935842 40.3629496,0.969500858 C41.6458863,1.18713654 42.8686196,1.94539972 43.5531335,2.94959424 C44.7876064,4.75690355 44.4691299,6.67348223 43.6518672,7.68941643 Z" id="Page-1" fill="IconColor"></path>
            </g>
            <g id="SVGs" transform="translate(190.000000, 322.000000)"></g>
        </g>
    </g>
</svg>