<?xml version="1.0" encoding="UTF-8"?>
<svg width="24px" height="24px" viewBox="0 0 24 24" version="1.1" xmlns="http://www.w3.org/2000/svg" xmlns:xlink="http://www.w3.org/1999/xlink">
    <!-- Generator: Sketch 42 (36781) - http://www.bohemiancoding.com/sketch -->
    <title>Icon/App/PayPal</title>
    <desc>Created with Sketch.</desc>
    <defs>
        <path d="M17.6241266,4.4326475 C18.4185375,5.34346 18.6394878,6.34768125 18.4200874,7.82725083 C18.4200874,7.82725083 18.3829765,8.05481542 18.360027,8.17305083 C17.5865043,12.1715217 14.9384679,13.5537479 11.5566317,13.5537479 L9.83514057,13.5537479 C9.4219956,13.5537479 9.07312008,13.8564654 9.00834712,14.2669288 L9.0365599,14.0850829 L8.12672519,19.8919896 L4.50408116,19.8919896 C4.19438569,19.8919896 3.95778697,19.6134258 4.00633719,19.3059979 L6.44964599,3.71318083 C6.51438748,3.3027175 6.86591434,3 7.27956283,3 L13.1475227,3 C15.1693391,3 16.7498057,3.42990667 17.6241266,4.4326475 Z M19.3370421,8.58444833 C20.0087204,9.43502292 20.1387226,10.6122629 19.8674519,12.0154446 C19.1905497,15.51302 16.8741826,16.7223462 13.9159079,16.7223462 L13.4589018,16.7223462 C13.0974698,16.7223462 12.7898434,16.9872062 12.7334493,17.3461875 L12.6963463,17.5490442 L12.1207851,21.2195513 L12.0910145,21.3761508 C12.0346204,21.7351321 11.7269941,22 11.3655621,22 L8.8614298,22 L10.0127411,14.6046696 L11.556671,14.6046696 C15.8129619,14.6046696 18.4958984,12.5210108 19.3370421,8.58444833 Z" id="path-1"></path>
    </defs>
    <g id="Symbols" stroke="none" stroke-width="1" fill="none" fill-rule="evenodd">
        <g id="Icon/App/PayPal">
            <rect id="Bounding-Box" x="0" y="0" width="24" height="24"></rect>
            <mask id="mask-2" fill="white">
                <use xlink:href="#path-1"></use>
            </mask>
            <g id="Mask"></g>
            <g id="Mixin/Fill/Black" mask="url(#mask-2)" fill="IconColor">
                <rect id="Rectangle" x="0" y="0" width="24" height="24"></rect>
            </g>
        </g>
    </g>
</svg>