<?xml version="1.0" encoding="UTF-8"?>
<svg width="24px" height="24px" viewBox="0 0 24 24" version="1.1" xmlns="http://www.w3.org/2000/svg" xmlns:xlink="http://www.w3.org/1999/xlink">
    <!-- Generator: Sketch 42 (36781) - http://www.bohemiancoding.com/sketch -->
    <title>Icon/App/Pinterest</title>
    <desc>Created with Sketch.</desc>
    <defs>
        <path d="M12,2 C6.5,2 2,6.5 2,12 C2,16.25 4.66666667,19.8333333 8.33333333,21.3333333 C8.25,20.5833333 8.16666667,19.3333333 8.33333333,18.5 C8.5,17.75 9.5,13.5 9.5,13.5 C9.5,13.5 9.25,12.8333333 9.25,12 C9.25,10.5833333 10.0833333,9.58333333 11.0833333,9.58333333 C11.9166667,9.58333333 12.3333333,10.25 12.3333333,11 C12.3333333,11.8333333 11.75,13.1666667 11.5,14.3333333 C11.25,15.3333333 12,16.1666667 13,16.1666667 C14.75,16.1666667 16.1666667,14.3333333 16.1666667,11.5833333 C16.1666667,9.16666667 14.4166667,7.5 12,7.5 C9.16666667,7.5 7.5,9.66666667 7.5,11.8333333 C7.5,12.6666667 7.83333333,13.5833333 8.25,14.0833333 C8.33333333,14.1666667 8.33333333,14.25 8.33333333,14.3333333 C8.25,14.6666667 8.08333333,15.3333333 8.08333333,15.5 C8,15.6666667 7.91666667,15.75 7.75,15.6666667 C6.5,15.0833333 5.75,13.25 5.75,11.8333333 C5.75,8.66666667 8.08333333,5.75 12.3333333,5.75 C15.8333333,5.75 18.5,8.25 18.5,11.5 C18.5,14.9166667 16.3333333,17.75 13.3333333,17.75 C12.3333333,17.75 11.3333333,17.25 11,16.5833333 C11,16.5833333 10.5,18.5 10.4166667,19 C10.1666667,19.8333333 9.58333333,20.9166667 9.16666667,21.5833333 C10,21.8333333 11,22 12,22 C17.5,22 22,17.5 22,12 C22,6.5 17.5,2 12,2 Z" id="path-1"></path>
    </defs>
    <g id="Symbols" stroke="none" stroke-width="1" fill="none" fill-rule="evenodd">
        <g id="Icon/App/Pinterest">
            <rect id="Bounding-Box" x="0" y="0" width="24" height="24"></rect>
            <mask id="mask-2" fill="white">
                <use xlink:href="#path-1"></use>
            </mask>
            <g id="Mask"></g>
            <g id="Mixin/Fill/Black" mask="url(#mask-2)" fill="IconColor">
                <rect id="Rectangle" x="0" y="0" width="24" height="24"></rect>
            </g>
        </g>
    </g>
</svg>