<?xml version="1.0" encoding="UTF-8"?>
<svg width="24px" height="24px" viewBox="0 0 24 24" version="1.1" xmlns="http://www.w3.org/2000/svg" xmlns:xlink="http://www.w3.org/1999/xlink">
    <!-- Generator: Sketch 42 (36781) - http://www.bohemiancoding.com/sketch -->
    <title>Icon/Printer</title>
    <desc>Created with Sketch.</desc>
    <defs>
        <path d="M19.2,8.4 L17.4,8.4 L17.4,3 L6.6,3 L6.6,8.4 L4.8,8.4 C3.81,8.4 3,9.21 3,10.2 L3,15.6 C3,16.59 3.81,17.4 4.8,17.4 L6.6,17.4 L6.6,21 L17.4,21 L17.4,17.4 L19.2,17.4 C20.19,17.4 21,16.59 21,15.6 L21,10.2 C21,9.21 20.19,8.4 19.2,8.4 Z M8,5 L16,5 L16,9 L8,9 L8,5 Z M16,19 L8,19 L8,16 L16,16 L16,19 Z M19,16 L17.25,16 L17.25,14.3333333 L6.75,14.3333333 L6.75,16 L5,16 L5,11 L19,11 L19,16 Z" id="path-1"></path>
    </defs>
    <g id="Symbols" stroke="none" stroke-width="1" fill="none" fill-rule="evenodd">
        <g id="Icon/Printer">
            <rect id="Bounding-Box" x="0" y="0" width="24" height="24"></rect>
            <mask id="mask-2" fill="white">
                <use xlink:href="#path-1"></use>
            </mask>
            <use id="Page-1" fill="IconColor" xlink:href="#path-1"></use>
            <g id="Mixin/Fill/Black" mask="url(#mask-2)" fill="IconColor">
                <rect id="Rectangle" x="0" y="0" width="24" height="24"></rect>
            </g>
        </g>
    </g>
</svg>