<?xml version="1.0" encoding="UTF-8"?>
<svg width="24px" height="24px" viewBox="0 0 24 24" version="1.1" xmlns="http://www.w3.org/2000/svg" xmlns:xlink="http://www.w3.org/1999/xlink">
    <!-- Generator: Sketch 42 (36781) - http://www.bohemiancoding.com/sketch -->
    <title>Icon/Radio - Off</title>
    <desc>Created with Sketch.</desc>
    <defs>
        <path d="M12,20.1818182 C16.5186934,20.1818182 20.1818182,16.5186934 20.1818182,12 C20.1818182,7.48130659 16.5186934,3.81818182 12,3.81818182 C7.48130659,3.81818182 3.81818182,7.48130659 3.81818182,12 C3.81818182,16.5186934 7.48130659,20.1818182 12,20.1818182 Z M12,2 C17.5228475,2 22,6.4771525 22,12 C22,17.5228475 17.5228475,22 12,22 C6.4771525,22 2,17.5228475 2,12 C2,6.4771525 6.4771525,2 12,2 Z" id="path-1"></path>
    </defs>
    <g id="Symbols" stroke="none" stroke-width="1" fill="none" fill-rule="evenodd">
        <g id="Icon/Radio---Off">
            <rect id="Bounding-Box" x="0" y="0" width="24" height="24"></rect>
            <mask id="mask-2" fill="white">
                <use xlink:href="#path-1"></use>
            </mask>
            <g id="Radio---Off" fill-rule="nonzero"></g>
            <g id="Mixin/Fill/Black" mask="url(#mask-2)" fill="IconColor">
                <rect id="Rectangle" x="0" y="0" width="24" height="24"></rect>
            </g>
        </g>
        <g id="Section-Labels" transform="translate(-157.000000, -228.000000)"></g>
    </g>
</svg>