<?xml version="1.0" encoding="UTF-8"?>
<svg width="24px" height="24px" viewBox="0 0 24 24" version="1.1" xmlns="http://www.w3.org/2000/svg" xmlns:xlink="http://www.w3.org/1999/xlink">
    <!-- Generator: Sketch 42 (36781) - http://www.bohemiancoding.com/sketch -->
    <title>Icon/Safe</title>
    <desc>Created with Sketch.</desc>
    <defs>
        <path d="M19.9971,19.0005 L4.0001,19.0005 L4.0001,3.0005 L20.0001,3.0005 L19.9971,19.0005 Z M20.0001,1.0005 L4.0001,1.0005 C2.8971,1.0005 2.0001,1.8975 2.0001,3.0005 L2.0001,19.0005 C2.0001,20.1035 2.8971,21.0005 4.0001,21.0005 L4.0001,22.0005 L6.0001,22.0005 L6.0001,21.0005 L18.0001,21.0005 L18.0001,22.0005 L20.0001,22.0005 L20.0001,21.0005 C21.1031,21.0005 22.0001,20.1035 22.0001,19.0005 L22.0001,3.0005 C22.0001,1.8975 21.1031,1.0005 20.0001,1.0005 L20.0001,1.0005 Z M8,9.0005 L9,9.0005 L9,7.0005 L8,7.0005 L8,6.0005 L17,6.0005 L17,16.0005 L8,16.0005 L8,15.0005 L9,15.0005 L9,13.0005 L8,13.0005 L8,9.0005 Z M6,17.0005 C6,17.5535 6.448,18.0005 7,18.0005 L18,18.0005 C18.553,18.0005 19,17.5535 19,17.0005 L19,5.0005 C19,4.4485 18.553,4.0005 18,4.0005 L7,4.0005 C6.448,4.0005 6,4.4485 6,5.0005 L6,7.0005 L5,7.0005 L5,9.0005 L6,9.0005 L6,13.0005 L5,13.0005 L5,15.0005 L6,15.0005 L6,17.0005 Z M13,10.0005 C13.552,10.0005 14,10.4495 14,11.0005 C14,11.5515 13.552,12.0005 13,12.0005 C12.449,12.0005 12,11.5515 12,11.0005 C12,10.4495 12.449,10.0005 13,10.0005 M13,14.0005 C14.654,14.0005 16,12.6545 16,11.0005 C16,9.3465 14.654,8.0005 13,8.0005 C11.346,8.0005 10,9.3465 10,11.0005 C10,12.6545 11.346,14.0005 13,14.0005" id="path-1"></path>
    </defs>
    <g id="Symbols" stroke="none" stroke-width="1" fill="none" fill-rule="evenodd">
        <g id="Icon/Safe">
            <rect id="Bounding-Box" x="0" y="0" width="24" height="24"></rect>
            <mask id="mask-2" fill="white">
                <use xlink:href="#path-1"></use>
            </mask>
            <use id="Combined-Shape" fill="IconColor" xlink:href="#path-1"></use>
            <g id="Mixin/Fill/Black" mask="url(#mask-2)" fill="IconColor">
                <rect id="Rectangle" x="0" y="0" width="24" height="24"></rect>
            </g>
        </g>
    </g>
</svg>