<?xml version="1.0" encoding="UTF-8"?>
<svg width="24px" height="24px" viewBox="0 0 24 24" version="1.1" xmlns="http://www.w3.org/2000/svg" xmlns:xlink="http://www.w3.org/1999/xlink">
    <!-- Generator: Sketch 42 (36781) - http://www.bohemiancoding.com/sketch -->
    <title>Icon/Save</title>
    <desc>Created with Sketch.</desc>
    <defs>
        <path d="M19,21 L5,21 C3.897,21 3,20.103 3,19 L3,5 C3,3.896 3.897,3 5,3 L14.586,3 C15.12,3 15.622,3.208 16,3.586 L20.414,8 C20.787,8.372 21,8.888 21,9.414 L21,19 C21,20.103 20.103,21 19,21 Z M5,5 L14.586,5 L19,9.414 L19.001,19 L5,19 L5,5 Z M12,18 C13.654,18 15,16.654 15,15 C15,13.346 13.654,12 12,12 C10.346,12 9,13.346 9,15 C9,16.654 10.346,18 12,18 Z M12,14 C12.551,14 13,14.449 13,15 C13,15.551 12.551,16 12,16 C11.449,16 11,15.551 11,15 C11,14.449 11.449,14 12,14 Z M13,7 L13,10 L15,10 L15,7 L13,7 Z M7,7 L7,10 L11,10 L11,7 L7,7 Z" id="path-1"></path>
    </defs>
    <g id="Symbols" stroke="none" stroke-width="1" fill="none" fill-rule="evenodd">
        <g id="Icon/Save">
            <rect id="Bounding-Box" x="0" y="0" width="24" height="24"></rect>
            <mask id="mask-2" fill="white">
                <use xlink:href="#path-1"></use>
            </mask>
            <g id="Mask"></g>
            <g id="Mixin/Fill/Black" mask="url(#mask-2)" fill="IconColor">
                <rect id="Rectangle" x="0" y="0" width="24" height="24"></rect>
            </g>
        </g>
        <g id="Section-Labels" transform="translate(-221.000000, -324.000000)"></g>
    </g>
</svg>