<?xml version="1.0" encoding="UTF-8"?>
<svg width="24px" height="24px" viewBox="0 0 24 24" version="1.1" xmlns="http://www.w3.org/2000/svg" xmlns:xlink="http://www.w3.org/1999/xlink">
    <!-- Generator: Sketch 42 (36781) - http://www.bohemiancoding.com/sketch -->
    <title>Icon/Send</title>
    <desc>Created with Sketch.</desc>
    <defs>
        <path d="M21.4527019,11.6436567 C16.7515753,9.55037313 13.3295987,7.98507463 10.8231191,6.83768657 C5.93471101,4.6016791 4.62010471,4 3.70460779,4 C2.91911689,4 2.53273538,4.48880597 2.40545676,4.6483209 C1.92452541,5.25652985 1.8663409,6.11567164 2.25817721,6.78451493 L5.60015007,12.5 L2.25908635,18.2136194 C1.8663409,18.8833955 1.92543454,19.7416045 2.40636589,20.3498134 C2.53364451,20.511194 2.92002603,21 3.70642606,21 L3.70642606,21 C4.62101384,21 5.93016534,20.4001866 10.7967542,18.1735075 C13.3059613,17.0251866 16.7352109,15.4552239 21.4536111,13.3554104 C21.7854446,13.2061567 22,12.8703358 22,12.4990672 C22,12.1277985 21.7854446,11.7910448 21.4527019,11.6436567 Z M3.89279832,5.88992537 C4.62010471,6.04291045 6.55564884,6.92910448 10.0821757,8.54291045 C11.8186197,9.33768657 14.0023571,10.3358209 16.7343017,11.5662313 L7.1747684,11.5662313 L7.1747684,11.5662313 L3.89279832,5.88992537 Z M10.0558108,16.4692164 C6.4720086,18.1100746 4.53828274,18.994403 3.84915994,19.1184701 L7.1747684,13.4309701 L16.7352109,13.4309701 C13.9887201,14.6697761 11.7958914,15.6725746 10.0558108,16.4692164 Z" id="path-1"></path>
    </defs>
    <g id="Symbols" stroke="none" stroke-width="1" fill="none" fill-rule="evenodd">
        <g id="Icon/Send">
            <rect id="Bounding-Box" x="0" y="0" width="24" height="24"></rect>
            <mask id="mask-2" fill="white">
                <use xlink:href="#path-1"></use>
            </mask>
            <g id="Mask"></g>
            <g id="Mixin/Fill/Black" mask="url(#mask-2)" fill="IconColor">
                <rect id="Rectangle" x="0" y="0" width="24" height="24"></rect>
            </g>
        </g>
    </g>
</svg>