<?xml version="1.0" encoding="UTF-8"?>
<svg width="24px" height="24px" viewBox="0 0 24 24" version="1.1" xmlns="http://www.w3.org/2000/svg" xmlns:xlink="http://www.w3.org/1999/xlink">
    <!-- Generator: Sketch 42 (36781) - http://www.bohemiancoding.com/sketch -->
    <title>Icon/Settings</title>
    <desc>Created with Sketch.</desc>
    <defs>
        <path d="M21.0025,13.4997084 L21.0025,10.4997917 L19.3480459,10.4997917 C19.1545513,9.54281827 18.7720619,8.65634289 18.2500764,7.86886476 L19.4260437,6.69439738 L17.3066026,4.57195634 L16.1291353,5.74792367 C15.3431572,5.22743813 14.4566818,4.84494875 13.5012083,4.65295409 L13.5012083,3 L10.5012916,3 L10.5012916,4.65295409 C9.54581818,4.84644871 8.65784285,5.22893809 7.87186468,5.74942363 L6.69589734,4.57495625 L4.57645621,6.6973973 L5.75092359,7.87036472 C5.22893809,8.65634289 4.84644871,9.54431822 4.65445405,10.4997917 L3,10.4997917 L3,13.4997084 L4.65445405,13.4997084 C4.84794867,14.4566818 5.23043805,15.3431572 5.75242355,16.1306353 L4.57645621,17.3081026 L6.69889726,19.4275437 L7.87336464,18.2515764 C8.6593428,18.7735619 9.54581818,19.1545513 10.5027916,19.346546 L10.5027916,21.001 L13.5027083,21.001 L13.5027083,19.346546 C14.4596817,19.1515514 15.3461571,18.770562 16.1321352,18.2485765 L17.3081026,19.4230438 L19.4275437,17.3006028 L18.2530763,16.1276354 C18.7735619,15.3416572 19.1560512,14.4551818 19.3480459,13.4997084 L21.0025,13.4997084 Z M11.99975,14.9996667 C10.3422961,14.9996667 8.99983335,13.655704 8.99983335,11.99975 C8.99983335,10.343796 10.3422961,8.99983335 11.99975,8.99983335 C13.655704,8.99983335 14.9996667,10.343796 14.9996667,11.99975 C14.9996667,13.655704 13.655704,14.9996667 11.99975,14.9996667 Z" id="path-1"></path>
    </defs>
    <g id="Symbols" stroke="none" stroke-width="1" fill="none" fill-rule="evenodd">
        <g id="Icon/Settings">
            <rect id="Bounding-Box" x="0" y="0" width="24" height="24"></rect>
            <mask id="mask-2" fill="white">
                <use xlink:href="#path-1"></use>
            </mask>
            <g id="Mask"></g>
            <g id="Mixin/Fill/Black" mask="url(#mask-2)" fill="IconColor">
                <rect id="Rectangle" x="0" y="0" width="24" height="24"></rect>
            </g>
        </g>
    </g>
</svg>