<?xml version="1.0" encoding="UTF-8"?>
<svg width="24px" height="24px" viewBox="0 0 24 24" version="1.1" xmlns="http://www.w3.org/2000/svg" xmlns:xlink="http://www.w3.org/1999/xlink">
    <!-- Generator: Sketch 42 (36781) - http://www.bohemiancoding.com/sketch -->
    <title>Icon/App/Shopify</title>
    <desc>Created with Sketch.</desc>
    <defs>
        <path d="M18.026634,6.525 C18.026634,6.45 17.9508144,6.375 17.8749947,6.375 C17.7991751,6.375 16.4344215,6.3 16.4344215,6.3 C16.4344215,6.3 15.4487661,5.325 15.3729465,5.25 C15.2971268,5.175 15.0696679,5.175 14.9938483,5.175 C14.9938483,5.175 14.7663893,5.25 14.4631108,5.325 C14.1598322,4.425 13.553275,3.525 12.5676197,3.525 L12.4918,3.525 C12.1127018,3.15 11.8094233,3 11.5061447,3 C9.15573574,3 8.01844109,5.925 7.71516252,7.35 C6.72950716,7.65 6.12295001,7.875 6.04713037,7.875 C5.51639286,8.025 5.51639286,8.025 5.44057322,8.55 C5.36475358,8.925 4,19.05 4,19.05 L14.3872911,21 L19.9979447,19.8 C20.0737644,19.8 18.026634,6.6 18.026634,6.525 Z M12.3401608,5.85 L12.3401608,5.925 C11.7336036,6.075 11.1270465,6.3 10.5204893,6.45 C10.8995875,5.1 11.5061447,4.5 12.1127018,4.2 C12.2643411,4.65 12.3401608,5.175 12.3401608,5.85 Z M11.430325,3.6 C11.5061447,3.6 11.657784,3.6 11.7336036,3.675 C10.9754072,4.05 10.1413911,4.875 9.83811253,6.675 C9.30737503,6.9 8.85245717,7.05 8.39753931,7.125 C8.77663752,5.775 9.68647324,3.6 11.430325,3.6 Z M11.8094233,11.475 C11.8094233,11.475 11.2028661,11.175 10.4446697,11.175 C9.38319467,11.175 9.30737503,11.85 9.30737503,12 C9.30737503,12.9 11.7336036,13.275 11.7336036,15.45 C11.7336036,17.175 10.596309,18.3 9.15573574,18.3 C7.41188395,18.3 6.42622858,17.175 6.42622858,17.175 L6.88114644,15.6 C6.88114644,15.6 7.79098216,16.425 8.62499824,16.425 C9.15573574,16.425 9.38319467,16.05 9.38319467,15.75 C9.38319467,14.55 7.3360643,14.475 7.3360643,12.45 C7.3360643,10.8 8.54917859,9.15 11.0512268,9.15 C12.0368822,9.15 12.4918,9.45 12.4918,9.45 L11.8094233,11.475 Z M12.9467179,5.775 L12.9467179,5.625 C12.9467179,5.025 12.8708983,4.575 12.719259,4.2 C13.2499965,4.275 13.553275,4.875 13.780734,5.55 C13.553275,5.55 13.2499965,5.625 12.9467179,5.775 Z" id="path-1"></path>
    </defs>
    <g id="Symbols" stroke="none" stroke-width="1" fill="none" fill-rule="evenodd">
        <g id="Icon/App/Shopify">
            <rect id="Bounding-Box" x="0" y="0" width="24" height="24"></rect>
            <mask id="mask-2" fill="white">
                <use xlink:href="#path-1"></use>
            </mask>
            <g id="Mask"></g>
            <g id="Mixin/Fill/Black" mask="url(#mask-2)" fill="IconColor">
                <rect id="Rectangle" x="0" y="0" width="24" height="24"></rect>
            </g>
        </g>
    </g>
</svg>