<?xml version="1.0" encoding="UTF-8"?>
<svg width="24px" height="24px" viewBox="0 0 24 24" version="1.1" xmlns="http://www.w3.org/2000/svg" xmlns:xlink="http://www.w3.org/1999/xlink">
    <!-- Generator: Sketch 42 (36781) - http://www.bohemiancoding.com/sketch -->
    <title>Icon/App/Skype</title>
    <desc>Created with Sketch.</desc>
    <defs>
        <path d="M21.3300979,13.6647143 L21.3300979,13.7480337 L21.3300979,13.5813949 C21.2467785,13.5813949 21.2467785,13.6647143 21.3300979,13.6647143 C21.4134173,13.0814786 21.4967367,12.4982428 21.4967367,11.9150071 C21.4967367,10.6652163 21.2467785,9.4154255 20.7468622,8.24895407 C20.2469459,7.16580203 19.5803908,6.16596938 18.6638775,5.24945612 C17.8306836,4.41626224 16.7475316,3.66638775 15.6643796,3.24979081 C14.4979081,2.74987449 13.2481173,2.49991633 11.9983265,2.49991633 C11.4150908,2.49991633 10.8318551,2.58323571 10.2486194,2.6665551 L10.2486194,2.6665551 C10.2486194,2.6665551 10.3319388,2.6665551 10.3319388,2.74987449 L10.1653,2.74987449 L10.2486194,2.74987449 C9.4154255,2.24995816 8.49891223,2 7.58239897,2 C6.08264999,2 4.6662204,2.58323571 3.66638775,3.66638775 C2.58323571,4.74953979 2,6.16596938 2,7.58239897 C2,8.58223162 2.24995816,9.49874488 2.6665551,10.3319388 L2.6665551,10.2486194 L2.6665551,10.4152581 C2.6665551,10.4152581 2.6665551,10.3319388 2.58323571,10.3319388 C2.49991633,10.8318551 2.41659694,11.4150908 2.41659694,11.9983265 C2.41659694,13.2481173 2.6665551,14.4979081 3.16647143,15.6643796 C3.74970714,16.7475316 4.49958163,17.7473643 5.3327755,18.6638775 C6.16596938,19.4970714 7.24912142,20.2469459 8.33227346,20.6635428 C9.49874488,21.1634592 10.7485357,21.4134173 11.9983265,21.4134173 C12.5815622,21.4134173 13.0814786,21.3300979 13.6647143,21.2467785 C13.6647143,21.2467785 13.5813949,21.2467785 13.5813949,21.1634592 L13.7480337,21.1634592 L13.6647143,21.1634592 C14.4979081,21.6633755 15.4144214,21.9133336 16.4142541,21.9133336 C17.914003,21.9133336 19.3304326,21.3300979 20.3302653,20.2469459 C21.4134173,19.1637938 21.996653,17.7473643 21.996653,16.3309347 C21.996653,15.4144214 21.7466949,14.4979081 21.3300979,13.6647143 Z M12.0816459,17.7473643 C8.7488704,17.7473643 7.24912142,16.0809765 7.24912142,14.8311857 C7.24912142,14.1646306 7.74903775,13.7480337 8.33227346,13.7480337 C9.74870305,13.7480337 9.4154255,15.8310183 12.0816459,15.8310183 C13.4147561,15.8310183 14.24795,15.0811439 14.24795,14.3312694 C14.24795,13.9146724 13.9979918,13.3314367 13.0814786,13.1647979 L10.0819806,12.4149235 C7.66571836,11.8316877 7.24912142,10.4985775 7.24912142,9.33210611 C7.24912142,6.83252448 9.66538366,5.83269183 11.9150071,5.83269183 C13.9979918,5.83269183 16.4142541,6.99916326 16.4142541,8.49891223 C16.4142541,9.16546733 15.8310183,9.49874488 15.1644632,9.49874488 C13.9146724,9.49874488 14.1646306,7.83235713 11.665049,7.83235713 C10.4152581,7.83235713 9.74870305,8.41559285 9.74870305,9.16546733 C9.74870305,9.99866121 10.7485357,10.2486194 11.5817296,10.4152581 L13.831353,10.9151745 C16.2476153,11.4150908 16.830851,12.8315204 16.830851,14.1646306 C16.830851,16.1642959 15.2477826,17.7473643 12.0816459,17.7473643 Z" id="path-1"></path>
    </defs>
    <g id="Symbols" stroke="none" stroke-width="1" fill="none" fill-rule="evenodd">
        <g id="Icon/App/Skype">
            <rect id="Bounding-Box" x="0" y="0" width="24" height="24"></rect>
            <mask id="mask-2" fill="white">
                <use xlink:href="#path-1"></use>
            </mask>
            <g id="Mask"></g>
            <g id="Mixin/Fill/Black" mask="url(#mask-2)" fill="IconColor">
                <rect id="Rectangle" x="0" y="0" width="24" height="24"></rect>
            </g>
        </g>
    </g>
</svg>