<?xml version="1.0" encoding="UTF-8"?>
<svg width="24px" height="24px" viewBox="0 0 24 24" version="1.1" xmlns="http://www.w3.org/2000/svg" xmlns:xlink="http://www.w3.org/1999/xlink">
    <!-- Generator: Sketch 42 (36781) - http://www.bohemiancoding.com/sketch -->
    <title>Icon/App/Slack</title>
    <desc>Created with Sketch.</desc>
    <defs>
        <path d="M21.16069,9.25179299 C23.2426651,16.080671 21.577085,19.078715 14.748207,21.16069 C7.83604998,23.2426651 4.92128497,21.577085 2.83930996,14.748207 C0.757334946,7.91932898 2.42291495,4.92128497 9.25179299,2.83930996 C16.080671,0.757334946 19.078715,2.42291495 21.16069,9.25179299 Z M17.662972,13.748859 C18.245925,13.499022 18.495762,12.916069 18.329204,12.416395 C18.162646,11.833442 17.579693,11.583605 16.99674,11.750163 L15.664276,12.166558 L14.831486,9.58490899 L16.16395,9.16851399 C16.746903,9.00195599 16.99674,8.41900298 16.830182,7.83604998 C16.663624,7.33637598 16.080671,7.00325998 15.580997,7.25309698 L14.248533,7.66949198 L13.832138,6.33702797 C13.66558,5.75407497 13.082627,5.50423797 12.499674,5.67079597 C11.916721,5.83735397 11.666884,6.42030697 11.833442,7.00325998 L12.249837,8.25244498 L9.58490899,9.16851399 L9.16851399,7.83604998 C8.91867699,7.33637598 8.33572398,7.00325998 7.83604998,7.16981798 C7.25309698,7.41965498 7.00325998,8.00260798 7.16981798,8.50228198 L7.75277098,9.91802499 L6.42030697,10.33442 C5.83735397,10.500978 5.58751697,11.083931 5.75407497,11.666884 C5.83735397,12.083279 6.25374897,12.333116 6.67014397,12.333116 C6.75342298,12.333116 6.91998098,12.249837 7.00325998,12.249837 L8.33572398,11.833442 L9.16851399,14.415091 L7.83604998,14.831486 C7.25309698,14.998044 7.00325998,15.580997 7.25309698,16.413787 C7.33637598,16.830182 7.75277098,17.080019 8.16916598,17.080019 C8.25244498,17.080019 8.41900298,16.99674 8.50228198,16.99674 L9.83474599,16.580345 L10.251141,17.912809 C10.33442,18.329204 10.750815,18.579041 11.16721,18.579041 C11.250489,18.579041 11.417047,18.495762 11.500326,18.495762 C12.083279,18.329204 12.333116,17.746251 12.166558,17.163298 L11.750163,15.830834 L14.415091,14.914765 L14.831486,16.247229 C14.914765,16.663624 15.33116,16.913461 15.747555,16.913461 C15.830834,16.913461 15.997392,16.830182 16.080671,16.830182 C16.663624,16.663624 16.913461,16.080671 16.746903,15.497718 L16.330508,14.165254 L17.662972,13.748859 Z M11.0805332,13.7133322 L10.2077027,11.1074823 L12.8925177,10.2082023 L13.7653483,12.8140522 L11.0805332,13.7133322 Z" id="path-1"></path>
    </defs>
    <g id="Symbols" stroke="none" stroke-width="1" fill="none" fill-rule="evenodd">
        <g id="Icon/App/Slack">
            <rect id="Bounding-Box" x="0" y="0" width="24" height="24"></rect>
            <mask id="mask-2" fill="white">
                <use xlink:href="#path-1"></use>
            </mask>
            <g id="Mask"></g>
            <g id="Mixin/Fill/Black" mask="url(#mask-2)" fill="IconColor">
                <rect id="Rectangle" x="0" y="0" width="24" height="24"></rect>
            </g>
        </g>
        <g id="Section-Labels" transform="translate(-221.000000, -260.000000)"></g>
    </g>
</svg>