<?xml version="1.0" encoding="UTF-8"?>
<svg width="24px" height="24px" viewBox="0 0 24 24" version="1.1" xmlns="http://www.w3.org/2000/svg" xmlns:xlink="http://www.w3.org/1999/xlink">
    <!-- Generator: Sketch 42 (36781) - http://www.bohemiancoding.com/sketch -->
    <title>Icon/App/Spotify</title>
    <desc>Created with Sketch.</desc>
    <defs>
        <path d="M12,2 C6.5,2 2,6.5 2,12 C2,17.5 6.5,22 12,22 C17.5,22 22,17.5 22,12 C22,6.5 17.5833333,2 12,2 Z M16.5833333,16.4166667 C16.4166667,16.75 16,16.8333333 15.75,16.5833333 C13.4166667,15.1666667 10.4166667,14.8333333 6.91666667,15.6666667 C6.58333333,15.75 6.25,15.5 6.16666667,15.25 C6.08333333,14.9166667 6.33333333,14.5833333 6.58333333,14.5 C10.4166667,13.6666667 13.6666667,14 16.25,15.5833333 C16.6666667,15.75 16.75,16.1666667 16.5833333,16.4166667 Z M17.8333333,13.6666667 C17.5833333,14 17.1666667,14.1666667 16.75,13.9166667 C14.0833333,12.25 9.91666667,11.75 6.83333333,12.75 C6.41666667,12.8333333 6,12.6666667 5.91666667,12.25 C5.83333333,11.8333333 6,11.4166667 6.41666667,11.3333333 C10.0833333,10.25 14.5833333,10.75 17.6666667,12.6666667 C17.9166667,12.8333333 18.0833333,13.3333333 17.8333333,13.6666667 Z M17.9166667,10.9166667 C14.6666667,9 9.33333333,8.83333333 6.33333333,9.75 C5.83333333,9.91666667 5.33333333,9.58333333 5.16666667,9.16666667 C5,8.66666667 5.33333333,8.16666667 5.75,8 C9.33333333,6.91666667 15.1666667,7.16666667 18.8333333,9.33333333 C19.25,9.58333333 19.4166667,10.1666667 19.1666667,10.6666667 C18.9166667,11 18.3333333,11.1666667 17.9166667,10.9166667 Z" id="path-1"></path>
    </defs>
    <g id="Symbols" stroke="none" stroke-width="1" fill="none" fill-rule="evenodd">
        <g id="Icon/App/Spotify">
            <rect id="Bounding-Box" x="0" y="0" width="24" height="24"></rect>
            <mask id="mask-2" fill="white">
                <use xlink:href="#path-1"></use>
            </mask>
            <g id="Mask"></g>
            <g id="Mixin/Fill/Black" mask="url(#mask-2)" fill="IconColor">
                <rect id="Rectangle" x="0" y="0" width="24" height="24"></rect>
            </g>
        </g>
    </g>
</svg>