<?xml version="1.0" encoding="UTF-8"?>
<svg width="24px" height="24px" viewBox="0 0 24 24" version="1.1" xmlns="http://www.w3.org/2000/svg" xmlns:xlink="http://www.w3.org/1999/xlink">
    <!-- Generator: Sketch 42 (36781) - http://www.bohemiancoding.com/sketch -->
    <title>Icon/Star - Filled</title>
    <desc>Created with Sketch.</desc>
    <defs>
        <path d="M17.9997448,21.95475 C17.8067448,21.95475 17.6127448,21.89875 17.4447448,21.78675 L11.9997448,18.15675 L6.55474483,21.78675 C6.20674483,22.01875 5.74974483,22.01075 5.40974483,21.76275 C5.07174483,21.51575 4.92374483,21.08375 5.03874483,20.68075 L6.87674483,14.24575 L2.29274483,9.66175 C2.00674483,9.37675 1.92174483,8.94575 2.07574483,8.57175 C2.22974483,8.19875 2.59574483,7.95475 2.99974483,7.95475 L8.38174483,7.95475 L11.1057448,2.50775 C11.4447448,1.83075 12.5557448,1.83075 12.8947448,2.50775 L15.6187448,7.95475 L20.9997448,7.95475 C21.4037448,7.95475 21.7697448,8.19875 21.9237448,8.57175 C22.0777448,8.94575 21.9927448,9.37675 21.7067448,9.66175 L17.1227448,14.24575 L18.9607448,20.68075 C19.0757448,21.08375 18.9277448,21.51575 18.5897448,21.76275 C18.4137448,21.89075 18.2067448,21.95475 17.9997448,21.95475 Z" id="path-1"></path>
    </defs>
    <g id="Symbols" stroke="none" stroke-width="1" fill="none" fill-rule="evenodd">
        <g id="Icon/Star---Filled">
            <rect id="Bounding-Box" x="0" y="0" width="24" height="24"></rect>
            <mask id="mask-2" fill="white">
                <use xlink:href="#path-1"></use>
            </mask>
            <g id="Mask"></g>
            <g id="Mixin/Fill/Black" mask="url(#mask-2)" fill="IconColor">
                <rect id="Rectangle" x="0" y="0" width="24" height="24"></rect>
            </g>
        </g>
    </g>
</svg>