<?xml version="1.0" encoding="UTF-8"?>
<svg width="36px" height="24px" viewBox="0 0 36 24" version="1.1" xmlns="http://www.w3.org/2000/svg" xmlns:xlink="http://www.w3.org/1999/xlink">
    <!-- Generator: Sketch 42 (36781) - http://www.bohemiancoding.com/sketch -->
    <title>Icon/Light/Switch - On</title>
    <desc>Created with Sketch.</desc>
    <defs>
        <path d="M4,12 C4,16.4193321 7.57859463,20 11.9933717,20 L24.0066283,20 C28.4153529,20 32,16.4151984 32,12 C32,7.58066785 28.4214054,4 24.0066283,4 L11.9933717,4 C7.58464714,4 4,7.58480159 4,12 Z M2,12 C2,6.4771525 6.4831571,2 11.9933717,2 L24.0066283,2 C29.5258151,2 34,6.47593818 34,12 C34,17.5228475 29.5168429,22 24.0066283,22 L11.9933717,22 C6.4741849,22 2,17.5240618 2,12 Z M12,18 C15.3137085,18 18,15.3137085 18,12 C18,8.6862915 15.3137085,6 12,6 C8.6862915,6 6,8.6862915 6,12 C6,15.3137085 8.6862915,18 12,18 Z" id="path-1"></path>
    </defs>
    <g id="Symbols" stroke="none" stroke-width="1" fill="none" fill-rule="evenodd">
        <g id="Icon/Light/Switch---On">
            <rect id="Bounding-Box" x="0" y="0" width="36" height="24"></rect>
            <mask id="mask-2" fill="white">
                <use xlink:href="#path-1"></use>
            </mask>
            <g id="Mask" fill-rule="nonzero" transform="translate(18.000000, 12.000000) rotate(180.000000) translate(-18.000000, -12.000000) "></g>
            <g id="Mixin/Fill/Active" mask="url(#mask-2)" fill="IconColor">
                <rect id="Box" x="0" y="0" width="36" height="24"></rect>
            </g>
        </g>
    </g>
</svg>