<?xml version="1.0" encoding="UTF-8"?>
<svg width="24px" height="24px" viewBox="0 0 24 24" version="1.1" xmlns="http://www.w3.org/2000/svg" xmlns:xlink="http://www.w3.org/1999/xlink">
    <!-- Generator: Sketch 42 (36781) - http://www.bohemiancoding.com/sketch -->
    <title>Icon/Delete</title>
    <desc>Created with Sketch.</desc>
    <defs>
        <path d="M5,19 C5,20.103 5.897,21 7,21 L17,21 C18.103,21 19,20.103 19,19 L19,7 L5,7 L5,19 Z M7,9 L17,9 L17.001,19 L7,19 L7,9 Z M15,4 L21,4 L21,6 L3,6 L3,4 L9,4 L9,2 L15,2 L15,4 Z M9,11 L9,17 L11,17 L11,11 L9,11 Z M13,11 L13,17 L15,17 L15,11 L13,11 Z" id="path-1"></path>
    </defs>
    <g id="Symbols" stroke="none" stroke-width="1" fill="none" fill-rule="evenodd">
        <g id="Icon/Delete">
            <rect id="Bounding-Box" x="0" y="0" width="24" height="24"></rect>
            <mask id="mask-2" fill="white">
                <use xlink:href="#path-1"></use>
            </mask>
            <g id="Mask"></g>
            <g id="Mixin/Fill/Black" mask="url(#mask-2)" fill="IconColor">
                <rect id="Rectangle" x="0" y="0" width="24" height="24"></rect>
            </g>
        </g>
        <g id="Section-Labels" transform="translate(-157.000000, -324.000000)"></g>
    </g>
</svg>