<?xml version="1.0" encoding="UTF-8"?>
<svg width="24px" height="24px" viewBox="0 0 24 24" version="1.1" xmlns="http://www.w3.org/2000/svg" xmlns:xlink="http://www.w3.org/1999/xlink">
    <!-- Generator: Sketch 42 (36781) - http://www.bohemiancoding.com/sketch -->
    <title>Icon/Unlock</title>
    <desc>Created with Sketch.</desc>
    <defs>
        <path d="M12,15.0005 C11.172,15.0005 10.5,15.6725 10.5,16.5005 C10.5,17.3285 11.172,18.0005 12,18.0005 C12.828,18.0005 13.5,17.3285 13.5,16.5005 C13.5,15.6725 12.828,15.0005 12,15.0005 M7,20.0005 L7,13.0005 L17,13.0005 L17.001,20.0005 L7,20.0005 Z M17,11.0005 L9,11.0005 L9,7.0005 C9,5.3465 10.346,4.0005 12,4.0005 C13.654,4.0005 15,5.3465 15,7.0005 L15,8.0005 L17,8.0005 L17,7.0005 C17,4.2435 14.757,2.0005 12,2.0005 C9.243,2.0005 7,4.2435 7,7.0005 L7,11.0005 C5.897,11.0005 5,11.8965 5,13.0005 L5,20.0005 C5,21.1035 5.897,22.0005 7,22.0005 L17,22.0005 C18.103,22.0005 19,21.1035 19,20.0005 L19,13.0005 C19,11.8965 18.103,11.0005 17,11.0005 L17,11.0005 Z" id="path-1"></path>
    </defs>
    <g id="Symbols" stroke="none" stroke-width="1" fill="none" fill-rule="evenodd">
        <g id="Icon/Unlock">
            <rect id="Bounding-Box" x="0" y="0" width="24" height="24"></rect>
            <mask id="mask-2" fill="white">
                <use xlink:href="#path-1"></use>
            </mask>
            <use id="Combined-Shape" fill="IconColor" xlink:href="#path-1"></use>
            <g id="Mixin/Fill/Black" mask="url(#mask-2)" fill="IconColor">
                <rect id="Rectangle" x="0" y="0" width="24" height="24"></rect>
            </g>
        </g>
    </g>
</svg>