<?xml version="1.0" encoding="UTF-8"?>
<svg width="18px" height="19px" viewBox="0 0 18 19" version="1.1" xmlns="http://www.w3.org/2000/svg" xmlns:xlink="http://www.w3.org/1999/xlink">
    <!-- Generator: Sketch 42 (36781) - http://www.bohemiancoding.com/sketch -->
    <title>Symbol/Loader</title>
    <desc>Created with Sketch.</desc>
    <defs>
        <rect id="path-1" x="0" y="0" width="1128" height="585" rx="3"></rect>
        <filter x="-50%" y="-50%" width="200%" height="200%" filterUnits="objectBoundingBox" id="filter-2">
            <feOffset dx="0" dy="24" in="SourceAlpha" result="shadowOffsetOuter1"></feOffset>
            <feGaussianBlur stdDeviation="16" in="shadowOffsetOuter1" result="shadowBlurOuter1"></feGaussianBlur>
            <feColorMatrix values="0 0 0 0 0.321568627   0 0 0 0 0.380392157   0 0 0 0 0.450980392  0 0 0 0.1 0" type="matrix" in="shadowBlurOuter1"></feColorMatrix>
        </filter>
        <path d="M14.0454545,3.65217391 C14.0454545,5.85507246 10.7727273,5.85507246 10.7727273,3.65217391 C10.7727273,1.44927536 14.0454545,1.44927536 14.0454545,3.65217391 Z M13.2272727,20.173913 C13.2272727,21.2753623 11.5909091,21.2753623 11.5909091,20.173913 C11.5909091,19.0724638 13.2272727,19.0724638 13.2272727,20.173913 Z M9.61381818,3.99619324 C10.6138182,5.74602899 8.01563636,7.26052174 7.01563636,5.51105314 C6.01563636,3.76268599 8.61381818,2.24819324 9.61381818,3.99619324 Z M17.0923636,18.7269758 C17.5469091,19.5229565 16.3665455,20.2113623 15.912,19.4153816 C15.4574545,18.6208696 16.6378182,17.9324638 17.0923636,18.7269758 Z M6.00290909,6.59524638 C7.57672727,7.51312077 6.21309091,9.8981256 4.63927273,8.98025121 C3.064,8.06237681 4.42763636,5.67737198 6.00290909,6.59524638 Z M19.7698182,15.5628792 C20.3992727,15.930029 19.8538182,16.8838841 19.2243636,16.5167343 C18.5938182,16.1495845 19.1392727,15.1957295 19.7698182,15.5628792 Z M5.45454545,11.9130435 C5.45454545,13.5652174 3,13.5652174 3,11.9130435 C3,10.2608696 5.45454545,10.2608696 5.45454545,11.9130435 Z M21,11.9130435 C21,12.4637681 20.1818182,12.4637681 20.1818182,11.9130435 C20.1818182,11.3623188 21,11.3623188 21,11.9130435 Z M6.26290909,15.4956908 C6.99018182,16.7663961 5.10072727,17.8678454 4.37345455,16.5971401 C3.64618182,15.3249662 5.53563636,14.2235169 6.26290909,15.4956908 Z M19.7345455,7.64199034 C19.9163636,7.96030918 19.4447273,8.2356715 19.2629091,7.91735266 C19.0810909,7.59903382 19.5527273,7.3236715 19.7345455,7.64199034 Z M8.79963636,18.2349952 C9.90181818,18.8775072 8.94727273,20.5469372 7.84509091,19.9044251 C6.74290909,19.261913 7.69745455,17.5924831 8.79963636,18.2349952 Z" id="path-3"></path>
        <path d="M14.0454545,3.65217391 C14.0454545,5.85507246 10.7727273,5.85507246 10.7727273,3.65217391 C10.7727273,1.44927536 14.0454545,1.44927536 14.0454545,3.65217391 Z M13.2272727,20.173913 C13.2272727,21.2753623 11.5909091,21.2753623 11.5909091,20.173913 C11.5909091,19.0724638 13.2272727,19.0724638 13.2272727,20.173913 Z M9.61381818,3.99619324 C10.6138182,5.74602899 8.01563636,7.26052174 7.01563636,5.51105314 C6.01563636,3.76268599 8.61381818,2.24819324 9.61381818,3.99619324 Z M17.0923636,18.7269758 C17.5469091,19.5229565 16.3665455,20.2113623 15.912,19.4153816 C15.4574545,18.6208696 16.6378182,17.9324638 17.0923636,18.7269758 Z M6.00290909,6.59524638 C7.57672727,7.51312077 6.21309091,9.8981256 4.63927273,8.98025121 C3.064,8.06237681 4.42763636,5.67737198 6.00290909,6.59524638 Z M19.7698182,15.5628792 C20.3992727,15.930029 19.8538182,16.8838841 19.2243636,16.5167343 C18.5938182,16.1495845 19.1392727,15.1957295 19.7698182,15.5628792 Z M5.45454545,11.9130435 C5.45454545,13.5652174 3,13.5652174 3,11.9130435 C3,10.2608696 5.45454545,10.2608696 5.45454545,11.9130435 Z M21,11.9130435 C21,12.4637681 20.1818182,12.4637681 20.1818182,11.9130435 C20.1818182,11.3623188 21,11.3623188 21,11.9130435 Z M6.26290909,15.4956908 C6.99018182,16.7663961 5.10072727,17.8678454 4.37345455,16.5971401 C3.64618182,15.3249662 5.53563636,14.2235169 6.26290909,15.4956908 Z M19.7345455,7.64199034 C19.9163636,7.96030918 19.4447273,8.2356715 19.2629091,7.91735266 C19.0810909,7.59903382 19.5527273,7.3236715 19.7345455,7.64199034 Z M8.79963636,18.2349952 C9.90181818,18.8775072 8.94727273,20.5469372 7.84509091,19.9044251 C6.74290909,19.261913 7.69745455,17.5924831 8.79963636,18.2349952 Z" id="path-5"></path>
    </defs>
    <g id="Style-Guide" stroke="none" stroke-width="1" fill="none" fill-rule="evenodd">
        <g id="Icons" transform="translate(-335.000000, -466.000000)">
            <g transform="translate(156.000000, 248.000000)">
                <g id="Bounding-Box">
                    <use fill="black" fill-opacity="1" filter="url(#filter-2)" xlink:href="#path-1"></use>
                    <use fill="#FFFFFF" fill-rule="evenodd" xlink:href="#path-1"></use>
                </g>
                <g id="Symbols" transform="translate(32.000000, 128.000000)">
                    <g id="Icon/Progress" transform="translate(144.000000, 88.000000)">
                        <rect id="Bounding-Box" x="0" y="0" width="24" height="24"></rect>
                        <mask id="mask-4" fill="white">
                            <use xlink:href="#path-3"></use>
                        </mask>
                        <g id="Mask"></g>
                        <g id="Mixin/Fill/Black" mask="url(#mask-4)" fill-rule="evenodd" fill="#526173">
                            <rect id="Rectangle" x="0" y="0" width="24" height="24"></rect>
                        </g>
                    </g>
                </g>
            </g>
            <g id="SVG's" transform="translate(190.000000, 322.000000)"></g>
            <g id="SVG's-backup" transform="translate(188.000000, 320.000000)">
                <g id="Symbols" transform="translate(0.000000, 96.000000)">
                    <g id="Icon/Progress" transform="translate(144.000000, 48.000000)">
                        <rect id="Bounding-Box" x="0" y="0" width="24" height="24"></rect>
                        <mask id="mask-6" fill="white">
                            <use xlink:href="#path-5"></use>
                        </mask>
                        <g id="Mask"></g>
                        <g id="Mixin/Fill/Black" mask="url(#mask-6)" fill-rule="evenodd" fill="#526173">
                            <rect id="Rectangle" x="0" y="0" width="24" height="24"></rect>
                        </g>
                    </g>
                </g>
            </g>
        </g>
    </g>
</svg>